<?xml version="1.0" standalone="no"?>
<svg xmlns="http://www.w3.org/2000/svg" width="300" height="300" xmlns:xlink="http://www.w3.org/1999/xlink" viewBox="0 0 300 300"><defs><clipPath id="clip-path-background-color-1"><rect x="0" y="0" width="300" height="300"/></clipPath><clipPath id="clip-path-dot-color-1"><circle cx="70" cy="6" r="4" transform="rotate(0,70,6)"/><path d="M 82 2v 8h 4a 4 4, 0, 0, 0, 0 -8" transform="rotate(180,86,6)"/><path d="M 90 2v 8h 4a 4 4, 0, 0, 0, 0 -8" transform="rotate(0,94,6)"/><circle cx="158" cy="6" r="4" transform="rotate(0,158,6)"/><path d="M 178 2v 8h 4a 4 4, 0, 0, 0, 0 -8" transform="rotate(-90,182,6)"/><path d="M 194 2v 8h 4a 4 4, 0, 0, 0, 0 -8" transform="rotate(180,198,6)"/><path d="M 202 2v 8h 8v -4a 4 4, 0, 0, 0, -4 -4" transform="rotate(0,206,6)"/><circle cx="230" cy="6" r="4" transform="rotate(0,230,6)"/><circle cx="78" cy="14" r="4" transform="rotate(0,78,14)"/><path d="M 106 10v 8h 4a 4 4, 0, 0, 0, 0 -8" transform="rotate(-90,110,14)"/><path d="M 122 10v 8h 8v -4a 4 4, 0, 0, 0, -4 -4" transform="rotate(-90,126,14)"/><path d="M 130 10v 8h 4a 4 4, 0, 0, 0, 0 -8" transform="rotate(0,134,14)"/><path d="M 178 10v 8h 4a 4 4, 0, 0, 0, 0 -8" transform="rotate(90,182,14)"/><path d="M 202 10v 8h 8v -4a 4 4, 0, 0, 0, -4 -4" transform="rotate(180,206,14)"/><rect x="210" y="10" width="8" height="8" transform="rotate(0,214,14)"/><path d="M 218 10v 8h 8v -4a 4 4, 0, 0, 0, -4 -4" transform="rotate(0,222,14)"/><path d="M 98 18v 8h 4a 4 4, 0, 0, 0, 0 -8" transform="rotate(180,102,22)"/><rect x="106" y="18" width="8" height="8" transform="rotate(0,110,22)"/><rect x="122" y="18" width="8" height="8" transform="rotate(0,126,22)"/><path d="M 146 18v 8h 4a 4 4, 0, 0, 0, 0 -8" transform="rotate(180,150,22)"/><path d="M 154 18v 8h 8v -4a 4 4, 0, 0, 0, -4 -4" transform="rotate(0,158,22)"/><circle cx="174" cy="22" r="4" transform="rotate(0,174,22)"/><path d="M 194 18v 8h 4a 4 4, 0, 0, 0, 0 -8" transform="rotate(-90,198,22)"/><rect x="210" y="18" width="8" height="8" transform="rotate(0,214,22)"/><rect x="218" y="18" width="8" height="8" transform="rotate(0,222,22)"/><path d="M 226 18v 8h 4a 4 4, 0, 0, 0, 0 -8" transform="rotate(0,230,22)"/><path d="M 82 26v 8h 4a 4 4, 0, 0, 0, 0 -8" transform="rotate(180,86,30)"/><path d="M 90 26v 8h 4a 4 4, 0, 0, 0, 0 -8" transform="rotate(0,94,30)"/><path d="M 106 26v 8h 4a 4 4, 0, 0, 0, 0 -8" transform="rotate(90,110,30)"/><rect x="122" y="26" width="8" height="8" transform="rotate(0,126,30)"/><path d="M 130 26v 8h 8v -4a 4 4, 0, 0, 0, -4 -4" transform="rotate(0,134,30)"/><rect x="154" y="26" width="8" height="8" transform="rotate(0,158,30)"/><circle cx="182" cy="30" r="4" transform="rotate(0,182,30)"/><path d="M 194 26v 8h 8v -4a 4 4, 0, 0, 0, -4 -4" transform="rotate(180,198,30)"/><rect x="202" y="26" width="8" height="8" transform="rotate(0,206,30)"/><rect x="210" y="26" width="8" height="8" transform="rotate(0,214,30)"/><path d="M 218 26v 8h 8v -4a 4 4, 0, 0, 0, -4 -4" transform="rotate(90,222,30)"/><path d="M 66 34v 8h 4a 4 4, 0, 0, 0, 0 -8" transform="rotate(-90,70,38)"/><circle cx="102" cy="38" r="4" transform="rotate(0,102,38)"/><path d="M 114 34v 8h 8v -4a 4 4, 0, 0, 0, -4 -4" transform="rotate(-90,118,38)"/><rect x="122" y="34" width="8" height="8" transform="rotate(0,126,38)"/><path d="M 130 34v 8h 8v -4a 4 4, 0, 0, 0, -4 -4" transform="rotate(90,134,38)"/><rect x="154" y="34" width="8" height="8" transform="rotate(0,158,38)"/><rect x="162" y="34" width="8" height="8" transform="rotate(0,166,38)"/><path d="M 170 34v 8h 8v -4a 4 4, 0, 0, 0, -4 -4" transform="rotate(0,174,38)"/><circle cx="190" cy="38" r="4" transform="rotate(0,190,38)"/><path d="M 210 34v 8h 4a 4 4, 0, 0, 0, 0 -8" transform="rotate(90,214,38)"/><rect x="66" y="42" width="8" height="8" transform="rotate(0,70,46)"/><rect x="74" y="42" width="8" height="8" transform="rotate(0,78,46)"/><rect x="82" y="42" width="8" height="8" transform="rotate(0,86,46)"/><path d="M 90 42v 8h 4a 4 4, 0, 0, 0, 0 -8" transform="rotate(0,94,46)"/><rect x="114" y="42" width="8" height="8" transform="rotate(0,118,46)"/><path d="M 122 42v 8h 8v -4a 4 4, 0, 0, 0, -4 -4" transform="rotate(90,126,46)"/><path d="M 146 42v 8h 8v -4a 4 4, 0, 0, 0, -4 -4" transform="rotate(-90,150,46)"/><rect x="154" y="42" width="8" height="8" transform="rotate(0,158,46)"/><rect x="162" y="42" width="8" height="8" transform="rotate(0,166,46)"/><path d="M 170 42v 8h 8v -4a 4 4, 0, 0, 0, -4 -4" transform="rotate(90,174,46)"/><path d="M 218 42v 8h 4a 4 4, 0, 0, 0, 0 -8" transform="rotate(180,222,46)"/><path d="M 226 42v 8h 8v -4a 4 4, 0, 0, 0, -4 -4" transform="rotate(0,230,46)"/><path d="M 66 50v 8h 4a 4 4, 0, 0, 0, 0 -8" transform="rotate(90,70,54)"/><rect x="82" y="50" width="8" height="8" transform="rotate(0,86,54)"/><circle cx="102" cy="54" r="4" transform="rotate(0,102,54)"/><rect x="114" y="50" width="8" height="8" transform="rotate(0,118,54)"/><path d="M 130 50v 8h 4a 4 4, 0, 0, 0, 0 -8" transform="rotate(-90,134,54)"/><rect x="146" y="50" width="8" height="8" transform="rotate(0,150,54)"/><rect x="162" y="50" width="8" height="8" transform="rotate(0,166,54)"/><path d="M 178 50v 8h 4a 4 4, 0, 0, 0, 0 -8" transform="rotate(-90,182,54)"/><path d="M 194 50v 8h 4a 4 4, 0, 0, 0, 0 -8" transform="rotate(-90,198,54)"/><path d="M 210 50v 8h 4a 4 4, 0, 0, 0, 0 -8" transform="rotate(-90,214,54)"/><rect x="226" y="50" width="8" height="8" transform="rotate(0,230,54)"/><path d="M 74 58v 8h 4a 4 4, 0, 0, 0, 0 -8" transform="rotate(180,78,62)"/><path d="M 82 58v 8h 8v -4a 4 4, 0, 0, 0, -4 -4" transform="rotate(90,86,62)"/><rect x="114" y="58" width="8" height="8" transform="rotate(0,118,62)"/><path d="M 130 58v 8h 8v -4a 4 4, 0, 0, 0, -4 -4" transform="rotate(180,134,62)"/><rect x="138" y="58" width="8" height="8" transform="rotate(0,142,62)"/><path d="M 146 58v 8h 8v -4a 4 4, 0, 0, 0, -4 -4" transform="rotate(90,150,62)"/><path d="M 162 58v 8h 8v -4a 4 4, 0, 0, 0, -4 -4" transform="rotate(180,166,62)"/><rect x="170" y="58" width="8" height="8" transform="rotate(0,174,62)"/><rect x="178" y="58" width="8" height="8" transform="rotate(0,182,62)"/><rect x="186" y="58" width="8" height="8" transform="rotate(0,190,62)"/><rect x="194" y="58" width="8" height="8" transform="rotate(0,198,62)"/><path d="M 210 58v 8h 4a 4 4, 0, 0, 0, 0 -8" transform="rotate(90,214,62)"/><path d="M 226 58v 8h 4a 4 4, 0, 0, 0, 0 -8" transform="rotate(90,230,62)"/><path d="M 10 66v 8h 8v -4a 4 4, 0, 0, 0, -4 -4" transform="rotate(-90,14,70)"/><rect x="18" y="66" width="8" height="8" transform="rotate(0,22,70)"/><rect x="26" y="66" width="8" height="8" transform="rotate(0,30,70)"/><rect x="34" y="66" width="8" height="8" transform="rotate(0,38,70)"/><rect x="42" y="66" width="8" height="8" transform="rotate(0,46,70)"/><rect x="50" y="66" width="8" height="8" transform="rotate(0,54,70)"/><path d="M 58 66v 8h 8v -4a 4 4, 0, 0, 0, -4 -4" transform="rotate(0,62,70)"/><circle cx="102" cy="70" r="4" transform="rotate(0,102,70)"/><path d="M 114 66v 8h 4a 4 4, 0, 0, 0, 0 -8" transform="rotate(90,118,70)"/><circle cx="158" cy="70" r="4" transform="rotate(0,158,70)"/><rect x="178" y="66" width="8" height="8" transform="rotate(0,182,70)"/><path d="M 194 66v 8h 4a 4 4, 0, 0, 0, 0 -8" transform="rotate(90,198,70)"/><path d="M 250 66v 8h 4a 4 4, 0, 0, 0, 0 -8" transform="rotate(180,254,70)"/><path d="M 258 66v 8h 4a 4 4, 0, 0, 0, 0 -8" transform="rotate(0,262,70)"/><circle cx="294" cy="70" r="4" transform="rotate(0,294,70)"/><path d="M 10 74v 8h 8v -4a 4 4, 0, 0, 0, -4 -4" transform="rotate(180,14,78)"/><rect x="18" y="74" width="8" height="8" transform="rotate(0,22,78)"/><path d="M 42 74v 8h 4a 4 4, 0, 0, 0, 0 -8" transform="rotate(90,46,78)"/><rect x="58" y="74" width="8" height="8" transform="rotate(0,62,78)"/><path d="M 74 74v 8h 8v -4a 4 4, 0, 0, 0, -4 -4" transform="rotate(-90,78,78)"/><path d="M 82 74v 8h 4a 4 4, 0, 0, 0, 0 -8" transform="rotate(0,86,78)"/><path d="M 122 74v 8h 8v -4a 4 4, 0, 0, 0, -4 -4" transform="rotate(-90,126,78)"/><rect x="130" y="74" width="8" height="8" transform="rotate(0,134,78)"/><rect x="138" y="74" width="8" height="8" transform="rotate(0,142,78)"/><path d="M 146 74v 8h 4a 4 4, 0, 0, 0, 0 -8" transform="rotate(0,150,78)"/><path d="M 162 74v 8h 4a 4 4, 0, 0, 0, 0 -8" transform="rotate(180,166,78)"/><rect x="170" y="74" width="8" height="8" transform="rotate(0,174,78)"/><rect x="178" y="74" width="8" height="8" transform="rotate(0,182,78)"/><path d="M 186 74v 8h 4a 4 4, 0, 0, 0, 0 -8" transform="rotate(0,190,78)"/><path d="M 202 74v 8h 8v -4a 4 4, 0, 0, 0, -4 -4" transform="rotate(-90,206,78)"/><rect x="210" y="74" width="8" height="8" transform="rotate(0,214,78)"/><rect x="218" y="74" width="8" height="8" transform="rotate(0,222,78)"/><rect x="226" y="74" width="8" height="8" transform="rotate(0,230,78)"/><path d="M 234 74v 8h 4a 4 4, 0, 0, 0, 0 -8" transform="rotate(0,238,78)"/><circle cx="278" cy="78" r="4" transform="rotate(0,278,78)"/><path d="M 2 82v 8h 4a 4 4, 0, 0, 0, 0 -8" transform="rotate(-90,6,86)"/><rect x="18" y="82" width="8" height="8" transform="rotate(0,22,86)"/><rect x="26" y="82" width="8" height="8" transform="rotate(0,30,86)"/><path d="M 34 82v 8h 8v -4a 4 4, 0, 0, 0, -4 -4" transform="rotate(0,38,86)"/><path d="M 50 82v 8h 4a 4 4, 0, 0, 0, 0 -8" transform="rotate(180,54,86)"/><rect x="58" y="82" width="8" height="8" transform="rotate(0,62,86)"/><rect x="74" y="82" width="8" height="8" transform="rotate(0,78,86)"/><path d="M 90 82v 8h 4a 4 4, 0, 0, 0, 0 -8" transform="rotate(180,94,86)"/><path d="M 98 82v 8h 8v -4a 4 4, 0, 0, 0, -4 -4" transform="rotate(0,102,86)"/><path d="M 114 82v 8h 4a 4 4, 0, 0, 0, 0 -8" transform="rotate(180,118,86)"/><rect x="122" y="82" width="8" height="8" transform="rotate(0,126,86)"/><rect x="130" y="82" width="8" height="8" transform="rotate(0,134,86)"/><path d="M 194 82v 8h 4a 4 4, 0, 0, 0, 0 -8" transform="rotate(180,198,86)"/><rect x="202" y="82" width="8" height="8" transform="rotate(0,206,86)"/><rect x="210" y="82" width="8" height="8" transform="rotate(0,214,86)"/><path d="M 242 82v 8h 8v -4a 4 4, 0, 0, 0, -4 -4" transform="rotate(-90,246,86)"/><path d="M 250 82v 8h 4a 4 4, 0, 0, 0, 0 -8" transform="rotate(0,254,86)"/><path d="M 282 82v 8h 4a 4 4, 0, 0, 0, 0 -8" transform="rotate(180,286,86)"/><path d="M 290 82v 8h 4a 4 4, 0, 0, 0, 0 -8" transform="rotate(0,294,86)"/><path d="M 2 90v 8h 8v -4a 4 4, 0, 0, 0, -4 -4" transform="rotate(180,6,94)"/><rect x="10" y="90" width="8" height="8" transform="rotate(0,14,94)"/><rect x="18" y="90" width="8" height="8" transform="rotate(0,22,94)"/><rect x="26" y="90" width="8" height="8" transform="rotate(0,30,94)"/><path d="M 34 90v 8h 8v -4a 4 4, 0, 0, 0, -4 -4" transform="rotate(90,38,94)"/><path d="M 58 90v 8h 8v -4a 4 4, 0, 0, 0, -4 -4" transform="rotate(180,62,94)"/><rect x="66" y="90" width="8" height="8" transform="rotate(0,70,94)"/><rect x="74" y="90" width="8" height="8" transform="rotate(0,78,94)"/><rect x="98" y="90" width="8" height="8" transform="rotate(0,102,94)"/><path d="M 106 90v 8h 4a 4 4, 0, 0, 0, 0 -8" transform="rotate(0,110,94)"/><path d="M 130 90v 8h 8v -4a 4 4, 0, 0, 0, -4 -4" transform="rotate(180,134,94)"/><rect x="138" y="90" width="8" height="8" transform="rotate(0,142,94)"/><rect x="146" y="90" width="8" height="8" transform="rotate(0,150,94)"/><path d="M 154 90v 8h 8v -4a 4 4, 0, 0, 0, -4 -4" transform="rotate(0,158,94)"/><path d="M 170 90v 8h 4a 4 4, 0, 0, 0, 0 -8" transform="rotate(180,174,94)"/><path d="M 178 90v 8h 8v -4a 4 4, 0, 0, 0, -4 -4" transform="rotate(0,182,94)"/><rect x="210" y="90" width="8" height="8" transform="rotate(0,214,94)"/><circle cx="230" cy="94" r="4" transform="rotate(0,230,94)"/><rect x="242" y="90" width="8" height="8" transform="rotate(0,246,94)"/><path d="M 258 90v 8h 4a 4 4, 0, 0, 0, 0 -8" transform="rotate(-90,262,94)"/><path d="M 10 98v 8h 4a 4 4, 0, 0, 0, 0 -8" transform="rotate(90,14,102)"/><path d="M 42 98v 8h 4a 4 4, 0, 0, 0, 0 -8" transform="rotate(180,46,102)"/><path d="M 50 98v 8h 4a 4 4, 0, 0, 0, 0 -8" transform="rotate(0,54,102)"/><rect x="74" y="98" width="8" height="8" transform="rotate(0,78,102)"/><path d="M 82 98v 8h 8v -4a 4 4, 0, 0, 0, -4 -4" transform="rotate(0,86,102)"/><rect x="98" y="98" width="8" height="8" transform="rotate(0,102,102)"/><circle cx="118" cy="102" r="4" transform="rotate(0,118,102)"/><path d="M 138 98v 8h 4a 4 4, 0, 0, 0, 0 -8" transform="rotate(90,142,102)"/><rect x="154" y="98" width="8" height="8" transform="rotate(0,158,102)"/><path d="M 178 98v 8h 8v -4a 4 4, 0, 0, 0, -4 -4" transform="rotate(180,182,102)"/><rect x="186" y="98" width="8" height="8" transform="rotate(0,190,102)"/><rect x="194" y="98" width="8" height="8" transform="rotate(0,198,102)"/><rect x="202" y="98" width="8" height="8" transform="rotate(0,206,102)"/><path d="M 210 98v 8h 8v -4a 4 4, 0, 0, 0, -4 -4" transform="rotate(90,214,102)"/><path d="M 234 98v 8h 8v -4a 4 4, 0, 0, 0, -4 -4" transform="rotate(-90,238,102)"/><path d="M 242 98v 8h 8v -4a 4 4, 0, 0, 0, -4 -4" transform="rotate(90,246,102)"/><path d="M 258 98v 8h 4a 4 4, 0, 0, 0, 0 -8" transform="rotate(90,262,102)"/><circle cx="294" cy="102" r="4" transform="rotate(0,294,102)"/><path d="M 2 106v 8h 4a 4 4, 0, 0, 0, 0 -8" transform="rotate(-90,6,110)"/><path d="M 18 106v 8h 4a 4 4, 0, 0, 0, 0 -8" transform="rotate(-90,22,110)"/><path d="M 58 106v 8h 8v -4a 4 4, 0, 0, 0, -4 -4" transform="rotate(-90,62,110)"/><rect x="66" y="106" width="8" height="8" transform="rotate(0,70,110)"/><rect x="74" y="106" width="8" height="8" transform="rotate(0,78,110)"/><rect x="82" y="106" width="8" height="8" transform="rotate(0,86,110)"/><rect x="90" y="106" width="8" height="8" transform="rotate(0,94,110)"/><path d="M 98 106v 8h 8v -4a 4 4, 0, 0, 0, -4 -4" transform="rotate(90,102,110)"/><path d="M 154 106v 8h 4a 4 4, 0, 0, 0, 0 -8" transform="rotate(90,158,110)"/><path d="M 186 106v 8h 8v -4a 4 4, 0, 0, 0, -4 -4" transform="rotate(180,190,110)"/><rect x="194" y="106" width="8" height="8" transform="rotate(0,198,110)"/><path d="M 202 106v 8h 8v -4a 4 4, 0, 0, 0, -4 -4" transform="rotate(90,206,110)"/><path d="M 234 106v 8h 4a 4 4, 0, 0, 0, 0 -8" transform="rotate(90,238,110)"/><circle cx="254" cy="110" r="4" transform="rotate(0,254,110)"/><path d="M 266 106v 8h 8v -4a 4 4, 0, 0, 0, -4 -4" transform="rotate(-90,270,110)"/><path d="M 274 106v 8h 4a 4 4, 0, 0, 0, 0 -8" transform="rotate(0,278,110)"/><rect x="2" y="114" width="8" height="8" transform="rotate(0,6,118)"/><path d="M 18 114v 8h 8v -4a 4 4, 0, 0, 0, -4 -4" transform="rotate(180,22,118)"/><rect x="26" y="114" width="8" height="8" transform="rotate(0,30,118)"/><path d="M 34 114v 8h 8v -4a 4 4, 0, 0, 0, -4 -4" transform="rotate(0,38,118)"/><path d="M 50 114v 8h 4a 4 4, 0, 0, 0, 0 -8" transform="rotate(180,54,118)"/><path d="M 58 114v 8h 8v -4a 4 4, 0, 0, 0, -4 -4" transform="rotate(90,62,118)"/><rect x="82" y="114" width="8" height="8" transform="rotate(0,86,118)"/><rect x="90" y="114" width="8" height="8" transform="rotate(0,94,118)"/><path d="M 130 114v 8h 4a 4 4, 0, 0, 0, 0 -8" transform="rotate(180,134,118)"/><path d="M 138 114v 8h 4a 4 4, 0, 0, 0, 0 -8" transform="rotate(0,142,118)"/><circle cx="182" cy="118" r="4" transform="rotate(0,182,118)"/><path d="M 194 114v 8h 4a 4 4, 0, 0, 0, 0 -8" transform="rotate(90,198,118)"/><path d="M 218 114v 8h 8v -4a 4 4, 0, 0, 0, -4 -4" transform="rotate(-90,222,118)"/><path d="M 226 114v 8h 8v -4a 4 4, 0, 0, 0, -4 -4" transform="rotate(0,230,118)"/><path d="M 258 114v 8h 8v -4a 4 4, 0, 0, 0, -4 -4" transform="rotate(-90,262,118)"/><path d="M 266 114v 8h 8v -4a 4 4, 0, 0, 0, -4 -4" transform="rotate(90,270,118)"/><path d="M 282 114v 8h 4a 4 4, 0, 0, 0, 0 -8" transform="rotate(180,286,118)"/><path d="M 290 114v 8h 4a 4 4, 0, 0, 0, 0 -8" transform="rotate(0,294,118)"/><rect x="2" y="122" width="8" height="8" transform="rotate(0,6,126)"/><rect x="26" y="122" width="8" height="8" transform="rotate(0,30,126)"/><rect x="34" y="122" width="8" height="8" transform="rotate(0,38,126)"/><path d="M 42 122v 8h 4a 4 4, 0, 0, 0, 0 -8" transform="rotate(0,46,126)"/><circle cx="70" cy="126" r="4" transform="rotate(0,70,126)"/><rect x="82" y="122" width="8" height="8" transform="rotate(0,86,126)"/><rect x="90" y="122" width="8" height="8" transform="rotate(0,94,126)"/><path d="M 106 122v 8h 4a 4 4, 0, 0, 0, 0 -8" transform="rotate(180,110,126)"/><rect x="114" y="122" width="8" height="8" transform="rotate(0,118,126)"/><path d="M 122 122v 8h 8v -4a 4 4, 0, 0, 0, -4 -4" transform="rotate(0,126,126)"/><path d="M 146 122v 8h 8v -4a 4 4, 0, 0, 0, -4 -4" transform="rotate(-90,150,126)"/><path d="M 154 122v 8h 4a 4 4, 0, 0, 0, 0 -8" transform="rotate(0,158,126)"/><circle cx="190" cy="126" r="4" transform="rotate(0,190,126)"/><path d="M 210 122v 8h 8v -4a 4 4, 0, 0, 0, -4 -4" transform="rotate(-90,214,126)"/><rect x="218" y="122" width="8" height="8" transform="rotate(0,222,126)"/><rect x="226" y="122" width="8" height="8" transform="rotate(0,230,126)"/><rect x="234" y="122" width="8" height="8" transform="rotate(0,238,126)"/><rect x="242" y="122" width="8" height="8" transform="rotate(0,246,126)"/><rect x="250" y="122" width="8" height="8" transform="rotate(0,254,126)"/><rect x="258" y="122" width="8" height="8" transform="rotate(0,262,126)"/><rect x="2" y="130" width="8" height="8" transform="rotate(0,6,134)"/><rect x="10" y="130" width="8" height="8" transform="rotate(0,14,134)"/><rect x="18" y="130" width="8" height="8" transform="rotate(0,22,134)"/><rect x="26" y="130" width="8" height="8" transform="rotate(0,30,134)"/><rect x="34" y="130" width="8" height="8" transform="rotate(0,38,134)"/><path d="M 50 130v 8h 4a 4 4, 0, 0, 0, 0 -8" transform="rotate(180,54,134)"/><path d="M 58 130v 8h 4a 4 4, 0, 0, 0, 0 -8" transform="rotate(0,62,134)"/><path d="M 74 130v 8h 8v -4a 4 4, 0, 0, 0, -4 -4" transform="rotate(-90,78,134)"/><rect x="82" y="130" width="8" height="8" transform="rotate(0,86,134)"/><rect x="90" y="130" width="8" height="8" transform="rotate(0,94,134)"/><rect x="122" y="130" width="8" height="8" transform="rotate(0,126,134)"/><rect x="130" y="130" width="8" height="8" transform="rotate(0,134,134)"/><rect x="138" y="130" width="8" height="8" transform="rotate(0,142,134)"/><rect x="146" y="130" width="8" height="8" transform="rotate(0,150,134)"/><path d="M 170 130v 8h 4a 4 4, 0, 0, 0, 0 -8" transform="rotate(180,174,134)"/><path d="M 178 130v 8h 4a 4 4, 0, 0, 0, 0 -8" transform="rotate(0,182,134)"/><path d="M 194 130v 8h 4a 4 4, 0, 0, 0, 0 -8" transform="rotate(180,198,134)"/><rect x="202" y="130" width="8" height="8" transform="rotate(0,206,134)"/><path d="M 210 130v 8h 8v -4a 4 4, 0, 0, 0, -4 -4" transform="rotate(90,214,134)"/><rect x="234" y="130" width="8" height="8" transform="rotate(0,238,134)"/><path d="M 242 130v 8h 8v -4a 4 4, 0, 0, 0, -4 -4" transform="rotate(90,246,134)"/><path d="M 258 130v 8h 4a 4 4, 0, 0, 0, 0 -8" transform="rotate(90,262,134)"/><path d="M 274 130v 8h 4a 4 4, 0, 0, 0, 0 -8" transform="rotate(180,278,134)"/><rect x="282" y="130" width="8" height="8" transform="rotate(0,286,134)"/><path d="M 290 130v 8h 4a 4 4, 0, 0, 0, 0 -8" transform="rotate(0,294,134)"/><path d="M 2 138v 8h 4a 4 4, 0, 0, 0, 0 -8" transform="rotate(90,6,142)"/><rect x="18" y="138" width="8" height="8" transform="rotate(0,22,142)"/><rect x="26" y="138" width="8" height="8" transform="rotate(0,30,142)"/><path d="M 34 138v 8h 8v -4a 4 4, 0, 0, 0, -4 -4" transform="rotate(90,38,142)"/><path d="M 66 138v 8h 8v -4a 4 4, 0, 0, 0, -4 -4" transform="rotate(-90,70,142)"/><rect x="74" y="138" width="8" height="8" transform="rotate(0,78,142)"/><rect x="82" y="138" width="8" height="8" transform="rotate(0,86,142)"/><rect x="90" y="138" width="8" height="8" transform="rotate(0,94,142)"/><circle cx="110" cy="142" r="4" transform="rotate(0,110,142)"/><path d="M 122 138v 8h 8v -4a 4 4, 0, 0, 0, -4 -4" transform="rotate(180,126,142)"/><rect x="130" y="138" width="8" height="8" transform="rotate(0,134,142)"/><rect x="138" y="138" width="8" height="8" transform="rotate(0,142,142)"/><rect x="146" y="138" width="8" height="8" transform="rotate(0,150,142)"/><path d="M 162 138v 8h 4a 4 4, 0, 0, 0, 0 -8" transform="rotate(-90,166,142)"/><path d="M 226 138v 8h 4a 4 4, 0, 0, 0, 0 -8" transform="rotate(180,230,142)"/><path d="M 234 138v 8h 8v -4a 4 4, 0, 0, 0, -4 -4" transform="rotate(90,238,142)"/><path d="M 250 138v 8h 4a 4 4, 0, 0, 0, 0 -8" transform="rotate(-90,254,142)"/><path d="M 18 146v 8h 8v -4a 4 4, 0, 0, 0, -4 -4" transform="rotate(180,22,150)"/><rect x="26" y="146" width="8" height="8" transform="rotate(0,30,150)"/><circle cx="54" cy="150" r="4" transform="rotate(0,54,150)"/><path d="M 66 146v 8h 8v -4a 4 4, 0, 0, 0, -4 -4" transform="rotate(180,70,150)"/><rect x="74" y="146" width="8" height="8" transform="rotate(0,78,150)"/><rect x="90" y="146" width="8" height="8" transform="rotate(0,94,150)"/><rect x="138" y="146" width="8" height="8" transform="rotate(0,142,150)"/><rect x="146" y="146" width="8" height="8" transform="rotate(0,150,150)"/><rect x="154" y="146" width="8" height="8" transform="rotate(0,158,150)"/><rect x="162" y="146" width="8" height="8" transform="rotate(0,166,150)"/><rect x="170" y="146" width="8" height="8" transform="rotate(0,174,150)"/><rect x="178" y="146" width="8" height="8" transform="rotate(0,182,150)"/><rect x="186" y="146" width="8" height="8" transform="rotate(0,190,150)"/><path d="M 194 146v 8h 4a 4 4, 0, 0, 0, 0 -8" transform="rotate(0,198,150)"/><circle cx="222" cy="150" r="4" transform="rotate(0,222,150)"/><path d="M 242 146v 8h 4a 4 4, 0, 0, 0, 0 -8" transform="rotate(180,246,150)"/><rect x="250" y="146" width="8" height="8" transform="rotate(0,254,150)"/><path d="M 282 146v 8h 8v -4a 4 4, 0, 0, 0, -4 -4" transform="rotate(-90,286,150)"/><path d="M 290 146v 8h 4a 4 4, 0, 0, 0, 0 -8" transform="rotate(0,294,150)"/><path d="M 10 154v 8h 4a 4 4, 0, 0, 0, 0 -8" transform="rotate(-90,14,158)"/><rect x="26" y="154" width="8" height="8" transform="rotate(0,30,158)"/><path d="M 34 154v 8h 4a 4 4, 0, 0, 0, 0 -8" transform="rotate(0,38,158)"/><path d="M 58 154v 8h 4a 4 4, 0, 0, 0, 0 -8" transform="rotate(-90,62,158)"/><path d="M 74 154v 8h 8v -4a 4 4, 0, 0, 0, -4 -4" transform="rotate(180,78,158)"/><rect x="82" y="154" width="8" height="8" transform="rotate(0,86,158)"/><rect x="90" y="154" width="8" height="8" transform="rotate(0,94,158)"/><rect x="98" y="154" width="8" height="8" transform="rotate(0,102,158)"/><path d="M 106 154v 8h 8v -4a 4 4, 0, 0, 0, -4 -4" transform="rotate(0,110,158)"/><circle cx="126" cy="158" r="4" transform="rotate(0,126,158)"/><rect x="138" y="154" width="8" height="8" transform="rotate(0,142,158)"/><path d="M 170 154v 8h 4a 4 4, 0, 0, 0, 0 -8" transform="rotate(90,174,158)"/><rect x="186" y="154" width="8" height="8" transform="rotate(0,190,158)"/><path d="M 210 154v 8h 4a 4 4, 0, 0, 0, 0 -8" transform="rotate(-90,214,158)"/><path d="M 226 154v 8h 4a 4 4, 0, 0, 0, 0 -8" transform="rotate(180,230,158)"/><path d="M 234 154v 8h 8v -4a 4 4, 0, 0, 0, -4 -4" transform="rotate(0,238,158)"/><rect x="250" y="154" width="8" height="8" transform="rotate(0,254,158)"/><path d="M 282 154v 8h 4a 4 4, 0, 0, 0, 0 -8" transform="rotate(90,286,158)"/><path d="M 10 162v 8h 8v -4a 4 4, 0, 0, 0, -4 -4" transform="rotate(180,14,166)"/><rect x="18" y="162" width="8" height="8" transform="rotate(0,22,166)"/><rect x="26" y="162" width="8" height="8" transform="rotate(0,30,166)"/><path d="M 50 162v 8h 4a 4 4, 0, 0, 0, 0 -8" transform="rotate(180,54,166)"/><rect x="58" y="162" width="8" height="8" transform="rotate(0,62,166)"/><path d="M 66 162v 8h 4a 4 4, 0, 0, 0, 0 -8" transform="rotate(0,70,166)"/><rect x="90" y="162" width="8" height="8" transform="rotate(0,94,166)"/><path d="M 106 162v 8h 8v -4a 4 4, 0, 0, 0, -4 -4" transform="rotate(180,110,166)"/><path d="M 114 162v 8h 4a 4 4, 0, 0, 0, 0 -8" transform="rotate(0,118,166)"/><path d="M 138 162v 8h 8v -4a 4 4, 0, 0, 0, -4 -4" transform="rotate(180,142,166)"/><path d="M 146 162v 8h 8v -4a 4 4, 0, 0, 0, -4 -4" transform="rotate(0,150,166)"/><path d="M 162 162v 8h 4a 4 4, 0, 0, 0, 0 -8" transform="rotate(-90,166,166)"/><path d="M 178 162v 8h 4a 4 4, 0, 0, 0, 0 -8" transform="rotate(180,182,166)"/><rect x="186" y="162" width="8" height="8" transform="rotate(0,190,166)"/><path d="M 202 162v 8h 8v -4a 4 4, 0, 0, 0, -4 -4" transform="rotate(-90,206,166)"/><rect x="210" y="162" width="8" height="8" transform="rotate(0,214,166)"/><path d="M 234 162v 8h 8v -4a 4 4, 0, 0, 0, -4 -4" transform="rotate(180,238,166)"/><rect x="242" y="162" width="8" height="8" transform="rotate(0,246,166)"/><rect x="250" y="162" width="8" height="8" transform="rotate(0,254,166)"/><path d="M 258 162v 8h 4a 4 4, 0, 0, 0, 0 -8" transform="rotate(0,262,166)"/><circle cx="278" cy="166" r="4" transform="rotate(0,278,166)"/><circle cx="294" cy="166" r="4" transform="rotate(0,294,166)"/><circle cx="6" cy="174" r="4" transform="rotate(0,6,174)"/><rect x="18" y="170" width="8" height="8" transform="rotate(0,22,174)"/><path d="M 26 170v 8h 8v -4a 4 4, 0, 0, 0, -4 -4" transform="rotate(90,30,174)"/><circle cx="46" cy="174" r="4" transform="rotate(0,46,174)"/><rect x="58" y="170" width="8" height="8" transform="rotate(0,62,174)"/><path d="M 74 170v 8h 4a 4 4, 0, 0, 0, 0 -8" transform="rotate(-90,78,174)"/><path d="M 90 170v 8h 4a 4 4, 0, 0, 0, 0 -8" transform="rotate(90,94,174)"/><path d="M 146 170v 8h 4a 4 4, 0, 0, 0, 0 -8" transform="rotate(90,150,174)"/><rect x="162" y="170" width="8" height="8" transform="rotate(0,166,174)"/><path d="M 170 170v 8h 8v -4a 4 4, 0, 0, 0, -4 -4" transform="rotate(0,174,174)"/><path d="M 186 170v 8h 4a 4 4, 0, 0, 0, 0 -8" transform="rotate(90,190,174)"/><rect x="202" y="170" width="8" height="8" transform="rotate(0,206,174)"/><rect x="210" y="170" width="8" height="8" transform="rotate(0,214,174)"/><path d="M 250 170v 8h 4a 4 4, 0, 0, 0, 0 -8" transform="rotate(90,254,174)"/><circle cx="270" cy="174" r="4" transform="rotate(0,270,174)"/><path d="M 18 178v 8h 4a 4 4, 0, 0, 0, 0 -8" transform="rotate(90,22,182)"/><circle cx="38" cy="182" r="4" transform="rotate(0,38,182)"/><path d="M 50 178v 8h 4a 4 4, 0, 0, 0, 0 -8" transform="rotate(180,54,182)"/><rect x="58" y="178" width="8" height="8" transform="rotate(0,62,182)"/><rect x="66" y="178" width="8" height="8" transform="rotate(0,70,182)"/><path d="M 74 178v 8h 8v -4a 4 4, 0, 0, 0, -4 -4" transform="rotate(90,78,182)"/><circle cx="102" cy="182" r="4" transform="rotate(0,102,182)"/><path d="M 114 178v 8h 8v -4a 4 4, 0, 0, 0, -4 -4" transform="rotate(-90,118,182)"/><rect x="122" y="178" width="8" height="8" transform="rotate(0,126,182)"/><rect x="130" y="178" width="8" height="8" transform="rotate(0,134,182)"/><path d="M 138 178v 8h 4a 4 4, 0, 0, 0, 0 -8" transform="rotate(0,142,182)"/><rect x="162" y="178" width="8" height="8" transform="rotate(0,166,182)"/><rect x="170" y="178" width="8" height="8" transform="rotate(0,174,182)"/><path d="M 178 178v 8h 4a 4 4, 0, 0, 0, 0 -8" transform="rotate(0,182,182)"/><rect x="202" y="178" width="8" height="8" transform="rotate(0,206,182)"/><rect x="210" y="178" width="8" height="8" transform="rotate(0,214,182)"/><path d="M 218 178v 8h 4a 4 4, 0, 0, 0, 0 -8" transform="rotate(0,222,182)"/><circle cx="246" cy="182" r="4" transform="rotate(0,246,182)"/><circle cx="294" cy="182" r="4" transform="rotate(0,294,182)"/><path d="M 2 186v 8h 4a 4 4, 0, 0, 0, 0 -8" transform="rotate(-90,6,190)"/><circle cx="30" cy="190" r="4" transform="rotate(0,30,190)"/><rect x="58" y="186" width="8" height="8" transform="rotate(0,62,190)"/><rect x="66" y="186" width="8" height="8" transform="rotate(0,70,190)"/><path d="M 106 186v 8h 8v -4a 4 4, 0, 0, 0, -4 -4" transform="rotate(-90,110,190)"/><path d="M 114 186v 8h 8v -4a 4 4, 0, 0, 0, -4 -4" transform="rotate(90,118,190)"/><path d="M 130 186v 8h 4a 4 4, 0, 0, 0, 0 -8" transform="rotate(90,134,190)"/><path d="M 146 186v 8h 8v -4a 4 4, 0, 0, 0, -4 -4" transform="rotate(-90,150,190)"/><rect x="154" y="186" width="8" height="8" transform="rotate(0,158,190)"/><rect x="162" y="186" width="8" height="8" transform="rotate(0,166,190)"/><path d="M 170 186v 8h 8v -4a 4 4, 0, 0, 0, -4 -4" transform="rotate(90,174,190)"/><path d="M 186 186v 8h 4a 4 4, 0, 0, 0, 0 -8" transform="rotate(-90,190,190)"/><path d="M 202 186v 8h 4a 4 4, 0, 0, 0, 0 -8" transform="rotate(90,206,190)"/><path d="M 250 186v 8h 4a 4 4, 0, 0, 0, 0 -8" transform="rotate(-90,254,190)"/><path d="M 282 186v 8h 4a 4 4, 0, 0, 0, 0 -8" transform="rotate(-90,286,190)"/><rect x="2" y="194" width="8" height="8" transform="rotate(0,6,198)"/><path d="M 10 194v 8h 4a 4 4, 0, 0, 0, 0 -8" transform="rotate(0,14,198)"/><path d="M 42 194v 8h 4a 4 4, 0, 0, 0, 0 -8" transform="rotate(180,46,198)"/><rect x="50" y="194" width="8" height="8" transform="rotate(0,54,198)"/><rect x="58" y="194" width="8" height="8" transform="rotate(0,62,198)"/><path d="M 66 194v 8h 8v -4a 4 4, 0, 0, 0, -4 -4" transform="rotate(90,70,198)"/><path d="M 90 194v 8h 8v -4a 4 4, 0, 0, 0, -4 -4" transform="rotate(-90,94,198)"/><rect x="98" y="194" width="8" height="8" transform="rotate(0,102,198)"/><rect x="106" y="194" width="8" height="8" transform="rotate(0,110,198)"/><circle cx="126" cy="198" r="4" transform="rotate(0,126,198)"/><rect x="146" y="194" width="8" height="8" transform="rotate(0,150,198)"/><path d="M 154 194v 8h 8v -4a 4 4, 0, 0, 0, -4 -4" transform="rotate(90,158,198)"/><path d="M 178 194v 8h 4a 4 4, 0, 0, 0, 0 -8" transform="rotate(180,182,198)"/><rect x="186" y="194" width="8" height="8" transform="rotate(0,190,198)"/><path d="M 194 194v 8h 4a 4 4, 0, 0, 0, 0 -8" transform="rotate(0,198,198)"/><circle cx="214" cy="198" r="4" transform="rotate(0,214,198)"/><path d="M 242 194v 8h 4a 4 4, 0, 0, 0, 0 -8" transform="rotate(180,246,198)"/><rect x="250" y="194" width="8" height="8" transform="rotate(0,254,198)"/><rect x="258" y="194" width="8" height="8" transform="rotate(0,262,198)"/><rect x="266" y="194" width="8" height="8" transform="rotate(0,270,198)"/><rect x="274" y="194" width="8" height="8" transform="rotate(0,278,198)"/><rect x="282" y="194" width="8" height="8" transform="rotate(0,286,198)"/><rect x="2" y="202" width="8" height="8" transform="rotate(0,6,206)"/><path d="M 18 202v 8h 4a 4 4, 0, 0, 0, 0 -8" transform="rotate(180,22,206)"/><path d="M 26 202v 8h 8v -4a 4 4, 0, 0, 0, -4 -4" transform="rotate(0,30,206)"/><path d="M 74 202v 8h 4a 4 4, 0, 0, 0, 0 -8" transform="rotate(180,78,206)"/><rect x="82" y="202" width="8" height="8" transform="rotate(0,86,206)"/><rect x="90" y="202" width="8" height="8" transform="rotate(0,94,206)"/><rect x="98" y="202" width="8" height="8" transform="rotate(0,102,206)"/><rect x="106" y="202" width="8" height="8" transform="rotate(0,110,206)"/><path d="M 114 202v 8h 8v -4a 4 4, 0, 0, 0, -4 -4" transform="rotate(0,118,206)"/><path d="M 138 202v 8h 4a 4 4, 0, 0, 0, 0 -8" transform="rotate(180,142,206)"/><path d="M 146 202v 8h 8v -4a 4 4, 0, 0, 0, -4 -4" transform="rotate(90,150,206)"/><path d="M 170 202v 8h 4a 4 4, 0, 0, 0, 0 -8" transform="rotate(-90,174,206)"/><path d="M 186 202v 8h 4a 4 4, 0, 0, 0, 0 -8" transform="rotate(90,190,206)"/><path d="M 218 202v 8h 4a 4 4, 0, 0, 0, 0 -8" transform="rotate(-90,222,206)"/><circle cx="238" cy="206" r="4" transform="rotate(0,238,206)"/><path d="M 266 202v 8h 4a 4 4, 0, 0, 0, 0 -8" transform="rotate(90,270,206)"/><rect x="282" y="202" width="8" height="8" transform="rotate(0,286,206)"/><rect x="2" y="210" width="8" height="8" transform="rotate(0,6,214)"/><rect x="26" y="210" width="8" height="8" transform="rotate(0,30,214)"/><circle cx="54" cy="214" r="4" transform="rotate(0,54,214)"/><rect x="90" y="210" width="8" height="8" transform="rotate(0,94,214)"/><path d="M 106 210v 8h 8v -4a 4 4, 0, 0, 0, -4 -4" transform="rotate(180,110,214)"/><path d="M 114 210v 8h 8v -4a 4 4, 0, 0, 0, -4 -4" transform="rotate(90,118,214)"/><path d="M 154 210v 8h 8v -4a 4 4, 0, 0, 0, -4 -4" transform="rotate(-90,158,214)"/><rect x="162" y="210" width="8" height="8" transform="rotate(0,166,214)"/><rect x="170" y="210" width="8" height="8" transform="rotate(0,174,214)"/><path d="M 210 210v 8h 4a 4 4, 0, 0, 0, 0 -8" transform="rotate(180,214,214)"/><rect x="218" y="210" width="8" height="8" transform="rotate(0,222,214)"/><path d="M 226 210v 8h 8v -4a 4 4, 0, 0, 0, -4 -4" transform="rotate(0,230,214)"/><circle cx="246" cy="214" r="4" transform="rotate(0,246,214)"/><path d="M 274 210v 8h 4a 4 4, 0, 0, 0, 0 -8" transform="rotate(180,278,214)"/><rect x="282" y="210" width="8" height="8" transform="rotate(0,286,214)"/><path d="M 290 210v 8h 8v -4a 4 4, 0, 0, 0, -4 -4" transform="rotate(0,294,214)"/><rect x="2" y="218" width="8" height="8" transform="rotate(0,6,222)"/><path d="M 18 218v 8h 4a 4 4, 0, 0, 0, 0 -8" transform="rotate(180,22,222)"/><rect x="26" y="218" width="8" height="8" transform="rotate(0,30,222)"/><rect x="34" y="218" width="8" height="8" transform="rotate(0,38,222)"/><path d="M 42 218v 8h 8v -4a 4 4, 0, 0, 0, -4 -4" transform="rotate(0,46,222)"/><circle cx="70" cy="222" r="4" transform="rotate(0,70,222)"/><path d="M 90 218v 8h 4a 4 4, 0, 0, 0, 0 -8" transform="rotate(90,94,222)"/><circle cx="126" cy="222" r="4" transform="rotate(0,126,222)"/><path d="M 138 218v 8h 4a 4 4, 0, 0, 0, 0 -8" transform="rotate(-90,142,222)"/><path d="M 154 218v 8h 4a 4 4, 0, 0, 0, 0 -8" transform="rotate(90,158,222)"/><path d="M 170 218v 8h 8v -4a 4 4, 0, 0, 0, -4 -4" transform="rotate(180,174,222)"/><path d="M 178 218v 8h 8v -4a 4 4, 0, 0, 0, -4 -4" transform="rotate(0,182,222)"/><circle cx="198" cy="222" r="4" transform="rotate(0,198,222)"/><rect x="226" y="218" width="8" height="8" transform="rotate(0,230,222)"/><path d="M 234 218v 8h 8v -4a 4 4, 0, 0, 0, -4 -4" transform="rotate(0,238,222)"/><path d="M 250 218v 8h 8v -4a 4 4, 0, 0, 0, -4 -4" transform="rotate(-90,254,222)"/><path d="M 258 218v 8h 8v -4a 4 4, 0, 0, 0, -4 -4" transform="rotate(0,262,222)"/><rect x="282" y="218" width="8" height="8" transform="rotate(0,286,222)"/><rect x="290" y="218" width="8" height="8" transform="rotate(0,294,222)"/><path d="M 2 226v 8h 4a 4 4, 0, 0, 0, 0 -8" transform="rotate(90,6,230)"/><path d="M 42 226v 8h 8v -4a 4 4, 0, 0, 0, -4 -4" transform="rotate(180,46,230)"/><rect x="50" y="226" width="8" height="8" transform="rotate(0,54,230)"/><path d="M 58 226v 8h 4a 4 4, 0, 0, 0, 0 -8" transform="rotate(0,62,230)"/><path d="M 74 226v 8h 4a 4 4, 0, 0, 0, 0 -8" transform="rotate(-90,78,230)"/><circle cx="102" cy="230" r="4" transform="rotate(0,102,230)"/><path d="M 114 226v 8h 4a 4 4, 0, 0, 0, 0 -8" transform="rotate(-90,118,230)"/><path d="M 138 226v 8h 4a 4 4, 0, 0, 0, 0 -8" transform="rotate(90,142,230)"/><path d="M 178 226v 8h 8v -4a 4 4, 0, 0, 0, -4 -4" transform="rotate(180,182,230)"/><path d="M 186 226v 8h 8v -4a 4 4, 0, 0, 0, -4 -4" transform="rotate(0,190,230)"/><path d="M 202 226v 8h 4a 4 4, 0, 0, 0, 0 -8" transform="rotate(180,206,230)"/><rect x="210" y="226" width="8" height="8" transform="rotate(0,214,230)"/><rect x="218" y="226" width="8" height="8" transform="rotate(0,222,230)"/><rect x="226" y="226" width="8" height="8" transform="rotate(0,230,230)"/><rect x="234" y="226" width="8" height="8" transform="rotate(0,238,230)"/><rect x="242" y="226" width="8" height="8" transform="rotate(0,246,230)"/><rect x="250" y="226" width="8" height="8" transform="rotate(0,254,230)"/><rect x="258" y="226" width="8" height="8" transform="rotate(0,262,230)"/><rect x="266" y="226" width="8" height="8" transform="rotate(0,270,230)"/><rect x="274" y="226" width="8" height="8" transform="rotate(0,278,230)"/><rect x="282" y="226" width="8" height="8" transform="rotate(0,286,230)"/><path d="M 290 226v 8h 8v -4a 4 4, 0, 0, 0, -4 -4" transform="rotate(90,294,230)"/><path d="M 66 234v 8h 8v -4a 4 4, 0, 0, 0, -4 -4" transform="rotate(-90,70,238)"/><rect x="74" y="234" width="8" height="8" transform="rotate(0,78,238)"/><rect x="82" y="234" width="8" height="8" transform="rotate(0,86,238)"/><path d="M 90 234v 8h 8v -4a 4 4, 0, 0, 0, -4 -4" transform="rotate(0,94,238)"/><path d="M 106 234v 8h 8v -4a 4 4, 0, 0, 0, -4 -4" transform="rotate(-90,110,238)"/><rect x="114" y="234" width="8" height="8" transform="rotate(0,118,238)"/><path d="M 122 234v 8h 8v -4a 4 4, 0, 0, 0, -4 -4" transform="rotate(0,126,238)"/><path d="M 162 234v 8h 4a 4 4, 0, 0, 0, 0 -8" transform="rotate(180,166,238)"/><path d="M 170 234v 8h 8v -4a 4 4, 0, 0, 0, -4 -4" transform="rotate(0,174,238)"/><path d="M 186 234v 8h 4a 4 4, 0, 0, 0, 0 -8" transform="rotate(90,190,238)"/><path d="M 218 234v 8h 8v -4a 4 4, 0, 0, 0, -4 -4" transform="rotate(180,222,238)"/><rect x="226" y="234" width="8" height="8" transform="rotate(0,230,238)"/><rect x="258" y="234" width="8" height="8" transform="rotate(0,262,238)"/><rect x="282" y="234" width="8" height="8" transform="rotate(0,286,238)"/><rect x="66" y="242" width="8" height="8" transform="rotate(0,70,246)"/><path d="M 74 242v 8h 8v -4a 4 4, 0, 0, 0, -4 -4" transform="rotate(90,78,246)"/><rect x="90" y="242" width="8" height="8" transform="rotate(0,94,246)"/><path d="M 106 242v 8h 4a 4 4, 0, 0, 0, 0 -8" transform="rotate(90,110,246)"/><path d="M 122 242v 8h 8v -4a 4 4, 0, 0, 0, -4 -4" transform="rotate(180,126,246)"/><path d="M 130 242v 8h 8v -4a 4 4, 0, 0, 0, -4 -4" transform="rotate(0,134,246)"/><path d="M 154 242v 8h 4a 4 4, 0, 0, 0, 0 -8" transform="rotate(-90,158,246)"/><rect x="170" y="242" width="8" height="8" transform="rotate(0,174,246)"/><path d="M 202 242v 8h 4a 4 4, 0, 0, 0, 0 -8" transform="rotate(180,206,246)"/><path d="M 210 242v 8h 8v -4a 4 4, 0, 0, 0, -4 -4" transform="rotate(0,214,246)"/><rect x="226" y="242" width="8" height="8" transform="rotate(0,230,246)"/><circle cx="246" cy="246" r="4" transform="rotate(0,246,246)"/><rect x="258" y="242" width="8" height="8" transform="rotate(0,262,246)"/><path d="M 266 242v 8h 4a 4 4, 0, 0, 0, 0 -8" transform="rotate(0,270,246)"/><rect x="282" y="242" width="8" height="8" transform="rotate(0,286,246)"/><path d="M 290 242v 8h 8v -4a 4 4, 0, 0, 0, -4 -4" transform="rotate(0,294,246)"/><rect x="66" y="250" width="8" height="8" transform="rotate(0,70,254)"/><path d="M 90 250v 8h 4a 4 4, 0, 0, 0, 0 -8" transform="rotate(90,94,254)"/><rect x="130" y="250" width="8" height="8" transform="rotate(0,134,254)"/><path d="M 154 250v 8h 8v -4a 4 4, 0, 0, 0, -4 -4" transform="rotate(180,158,254)"/><rect x="162" y="250" width="8" height="8" transform="rotate(0,166,254)"/><rect x="170" y="250" width="8" height="8" transform="rotate(0,174,254)"/><path d="M 178 250v 8h 4a 4 4, 0, 0, 0, 0 -8" transform="rotate(0,182,254)"/><rect x="210" y="250" width="8" height="8" transform="rotate(0,214,254)"/><rect x="226" y="250" width="8" height="8" transform="rotate(0,230,254)"/><rect x="258" y="250" width="8" height="8" transform="rotate(0,262,254)"/><path d="M 282 250v 8h 8v -4a 4 4, 0, 0, 0, -4 -4" transform="rotate(180,286,254)"/><path d="M 290 250v 8h 8v -4a 4 4, 0, 0, 0, -4 -4" transform="rotate(90,294,254)"/><rect x="66" y="258" width="8" height="8" transform="rotate(0,70,262)"/><rect x="74" y="258" width="8" height="8" transform="rotate(0,78,262)"/><path d="M 82 258v 8h 8v -4a 4 4, 0, 0, 0, -4 -4" transform="rotate(0,86,262)"/><circle cx="102" cy="262" r="4" transform="rotate(0,102,262)"/><path d="M 122 258v 8h 4a 4 4, 0, 0, 0, 0 -8" transform="rotate(180,126,262)"/><path d="M 130 258v 8h 8v -4a 4 4, 0, 0, 0, -4 -4" transform="rotate(90,134,262)"/><path d="M 146 258v 8h 4a 4 4, 0, 0, 0, 0 -8" transform="rotate(-90,150,262)"/><path d="M 170 258v 8h 4a 4 4, 0, 0, 0, 0 -8" transform="rotate(90,174,262)"/><path d="M 202 258v 8h 4a 4 4, 0, 0, 0, 0 -8" transform="rotate(180,206,262)"/><rect x="210" y="258" width="8" height="8" transform="rotate(0,214,262)"/><rect x="218" y="258" width="8" height="8" transform="rotate(0,222,262)"/><rect x="226" y="258" width="8" height="8" transform="rotate(0,230,262)"/><rect x="234" y="258" width="8" height="8" transform="rotate(0,238,262)"/><rect x="242" y="258" width="8" height="8" transform="rotate(0,246,262)"/><rect x="250" y="258" width="8" height="8" transform="rotate(0,254,262)"/><rect x="258" y="258" width="8" height="8" transform="rotate(0,262,262)"/><circle cx="278" cy="262" r="4" transform="rotate(0,278,262)"/><rect x="66" y="266" width="8" height="8" transform="rotate(0,70,270)"/><path d="M 82 266v 8h 4a 4 4, 0, 0, 0, 0 -8" transform="rotate(90,86,270)"/><path d="M 106 266v 8h 8v -4a 4 4, 0, 0, 0, -4 -4" transform="rotate(-90,110,270)"/><path d="M 114 266v 8h 4a 4 4, 0, 0, 0, 0 -8" transform="rotate(0,118,270)"/><path d="M 138 266v 8h 8v -4a 4 4, 0, 0, 0, -4 -4" transform="rotate(-90,142,270)"/><path d="M 146 266v 8h 8v -4a 4 4, 0, 0, 0, -4 -4" transform="rotate(90,150,270)"/><circle cx="166" cy="270" r="4" transform="rotate(0,166,270)"/><path d="M 178 266v 8h 4a 4 4, 0, 0, 0, 0 -8" transform="rotate(-90,182,270)"/><circle cx="198" cy="270" r="4" transform="rotate(0,198,270)"/><rect x="226" y="266" width="8" height="8" transform="rotate(0,230,270)"/><path d="M 242 266v 8h 4a 4 4, 0, 0, 0, 0 -8" transform="rotate(90,246,270)"/><path d="M 258 266v 8h 8v -4a 4 4, 0, 0, 0, -4 -4" transform="rotate(180,262,270)"/><path d="M 266 266v 8h 4a 4 4, 0, 0, 0, 0 -8" transform="rotate(0,270,270)"/><circle cx="286" cy="270" r="4" transform="rotate(0,286,270)"/><rect x="66" y="274" width="8" height="8" transform="rotate(0,70,278)"/><path d="M 74 274v 8h 8v -4a 4 4, 0, 0, 0, -4 -4" transform="rotate(0,78,278)"/><path d="M 90 274v 8h 4a 4 4, 0, 0, 0, 0 -8" transform="rotate(-90,94,278)"/><rect x="106" y="274" width="8" height="8" transform="rotate(0,110,278)"/><rect x="138" y="274" width="8" height="8" transform="rotate(0,142,278)"/><path d="M 154 274v 8h 4a 4 4, 0, 0, 0, 0 -8" transform="rotate(-90,158,278)"/><path d="M 178 274v 8h 4a 4 4, 0, 0, 0, 0 -8" transform="rotate(90,182,278)"/><circle cx="206" cy="278" r="4" transform="rotate(0,206,278)"/><rect x="226" y="274" width="8" height="8" transform="rotate(0,230,278)"/><path d="M 234 274v 8h 4a 4 4, 0, 0, 0, 0 -8" transform="rotate(0,238,278)"/><path d="M 290 274v 8h 4a 4 4, 0, 0, 0, 0 -8" transform="rotate(-90,294,278)"/><path d="M 66 282v 8h 8v -4a 4 4, 0, 0, 0, -4 -4" transform="rotate(180,70,286)"/><rect x="74" y="282" width="8" height="8" transform="rotate(0,78,286)"/><rect x="90" y="282" width="8" height="8" transform="rotate(0,94,286)"/><path d="M 106 282v 8h 4a 4 4, 0, 0, 0, 0 -8" transform="rotate(90,110,286)"/><path d="M 130 282v 8h 8v -4a 4 4, 0, 0, 0, -4 -4" transform="rotate(-90,134,286)"/><rect x="138" y="282" width="8" height="8" transform="rotate(0,142,286)"/><rect x="146" y="282" width="8" height="8" transform="rotate(0,150,286)"/><rect x="154" y="282" width="8" height="8" transform="rotate(0,158,286)"/><rect x="162" y="282" width="8" height="8" transform="rotate(0,166,286)"/><path d="M 170 282v 8h 4a 4 4, 0, 0, 0, 0 -8" transform="rotate(0,174,286)"/><path d="M 194 282v 8h 4a 4 4, 0, 0, 0, 0 -8" transform="rotate(-90,198,286)"/><path d="M 218 282v 8h 8v -4a 4 4, 0, 0, 0, -4 -4" transform="rotate(-90,222,286)"/><path d="M 226 282v 8h 8v -4a 4 4, 0, 0, 0, -4 -4" transform="rotate(90,230,286)"/><rect x="290" y="282" width="8" height="8" transform="rotate(0,294,286)"/><path d="M 74 290v 8h 4a 4 4, 0, 0, 0, 0 -8" transform="rotate(90,78,294)"/><path d="M 90 290v 8h 4a 4 4, 0, 0, 0, 0 -8" transform="rotate(90,94,294)"/><circle cx="118" cy="294" r="4" transform="rotate(0,118,294)"/><path d="M 130 290v 8h 8v -4a 4 4, 0, 0, 0, -4 -4" transform="rotate(180,134,294)"/><path d="M 138 290v 8h 8v -4a 4 4, 0, 0, 0, -4 -4" transform="rotate(90,142,294)"/><path d="M 154 290v 8h 4a 4 4, 0, 0, 0, 0 -8" transform="rotate(90,158,294)"/><path d="M 194 290v 8h 8v -4a 4 4, 0, 0, 0, -4 -4" transform="rotate(180,198,294)"/><path d="M 202 290v 8h 4a 4 4, 0, 0, 0, 0 -8" transform="rotate(0,206,294)"/><path d="M 218 290v 8h 4a 4 4, 0, 0, 0, 0 -8" transform="rotate(90,222,294)"/><path d="M 250 290v 8h 4a 4 4, 0, 0, 0, 0 -8" transform="rotate(180,254,294)"/><path d="M 258 290v 8h 4a 4 4, 0, 0, 0, 0 -8" transform="rotate(0,262,294)"/><path d="M 274 290v 8h 4a 4 4, 0, 0, 0, 0 -8" transform="rotate(180,278,294)"/><rect x="282" y="290" width="8" height="8" transform="rotate(0,286,294)"/><path d="M 290 290v 8h 8v -4a 4 4, 0, 0, 0, -4 -4" transform="rotate(90,294,294)"/></clipPath><clipPath id="clip-path-corners-square-color-0-0-1"><path clip-rule="evenodd" d="M 2 22v 16a 20 20, 0, 0, 0, 20 20h 16a 20 20, 0, 0, 0, 20 -20v -16a 20 20, 0, 0, 0, -20 -20h -16a 20 20, 0, 0, 0, -20 20M 22 10h 16a 12 12, 0, 0, 1, 12 12v 16a 12 12, 0, 0, 1, -12 12h -16a 12 12, 0, 0, 1, -12 -12v -16a 12 12, 0, 0, 1, 12 -12" transform="rotate(0,30,30)"/><path d="M 18 18v 8h 8v -4a 4 4, 0, 0, 0, -4 -4" transform="rotate(-90,22,22)"/><rect x="26" y="18" width="8" height="8" transform="rotate(0,30,22)"/><path d="M 34 18v 8h 8v -4a 4 4, 0, 0, 0, -4 -4" transform="rotate(0,38,22)"/><rect x="18" y="26" width="8" height="8" transform="rotate(0,22,30)"/><rect x="26" y="26" width="8" height="8" transform="rotate(0,30,30)"/><rect x="34" y="26" width="8" height="8" transform="rotate(0,38,30)"/><path d="M 18 34v 8h 8v -4a 4 4, 0, 0, 0, -4 -4" transform="rotate(180,22,38)"/><rect x="26" y="34" width="8" height="8" transform="rotate(0,30,38)"/><path d="M 34 34v 8h 8v -4a 4 4, 0, 0, 0, -4 -4" transform="rotate(90,38,38)"/></clipPath><clipPath id="clip-path-corners-square-color-1-0-1"><path clip-rule="evenodd" d="M 242 22v 16a 20 20, 0, 0, 0, 20 20h 16a 20 20, 0, 0, 0, 20 -20v -16a 20 20, 0, 0, 0, -20 -20h -16a 20 20, 0, 0, 0, -20 20M 262 10h 16a 12 12, 0, 0, 1, 12 12v 16a 12 12, 0, 0, 1, -12 12h -16a 12 12, 0, 0, 1, -12 -12v -16a 12 12, 0, 0, 1, 12 -12" transform="rotate(90,270,30)"/><path d="M 258 18v 8h 8v -4a 4 4, 0, 0, 0, -4 -4" transform="rotate(-90,262,22)"/><rect x="266" y="18" width="8" height="8" transform="rotate(0,270,22)"/><path d="M 274 18v 8h 8v -4a 4 4, 0, 0, 0, -4 -4" transform="rotate(0,278,22)"/><rect x="258" y="26" width="8" height="8" transform="rotate(0,262,30)"/><rect x="266" y="26" width="8" height="8" transform="rotate(0,270,30)"/><rect x="274" y="26" width="8" height="8" transform="rotate(0,278,30)"/><path d="M 258 34v 8h 8v -4a 4 4, 0, 0, 0, -4 -4" transform="rotate(180,262,38)"/><rect x="266" y="34" width="8" height="8" transform="rotate(0,270,38)"/><path d="M 274 34v 8h 8v -4a 4 4, 0, 0, 0, -4 -4" transform="rotate(90,278,38)"/></clipPath><clipPath id="clip-path-corners-square-color-0-1-1"><path clip-rule="evenodd" d="M 2 262v 16a 20 20, 0, 0, 0, 20 20h 16a 20 20, 0, 0, 0, 20 -20v -16a 20 20, 0, 0, 0, -20 -20h -16a 20 20, 0, 0, 0, -20 20M 22 250h 16a 12 12, 0, 0, 1, 12 12v 16a 12 12, 0, 0, 1, -12 12h -16a 12 12, 0, 0, 1, -12 -12v -16a 12 12, 0, 0, 1, 12 -12" transform="rotate(-90,30,270)"/><path d="M 18 258v 8h 8v -4a 4 4, 0, 0, 0, -4 -4" transform="rotate(-90,22,262)"/><rect x="26" y="258" width="8" height="8" transform="rotate(0,30,262)"/><path d="M 34 258v 8h 8v -4a 4 4, 0, 0, 0, -4 -4" transform="rotate(0,38,262)"/><rect x="18" y="266" width="8" height="8" transform="rotate(0,22,270)"/><rect x="26" y="266" width="8" height="8" transform="rotate(0,30,270)"/><rect x="34" y="266" width="8" height="8" transform="rotate(0,38,270)"/><path d="M 18 274v 8h 8v -4a 4 4, 0, 0, 0, -4 -4" transform="rotate(180,22,278)"/><rect x="26" y="274" width="8" height="8" transform="rotate(0,30,278)"/><path d="M 34 274v 8h 8v -4a 4 4, 0, 0, 0, -4 -4" transform="rotate(90,38,278)"/></clipPath></defs><rect x="0" y="0" height="300" width="300" clip-path="url('#clip-path-background-color-1')" fill="#ffffffff"/><rect x="0" y="0" height="300" width="300" clip-path="url('#clip-path-dot-color-1')" fill="#2c3ceeff"/><rect x="2" y="2" height="56" width="56" clip-path="url('#clip-path-corners-square-color-0-0-1')" fill="#087b8dff"/><rect x="242" y="2" height="56" width="56" clip-path="url('#clip-path-corners-square-color-1-0-1')" fill="#087b8dff"/><rect x="2" y="242" height="56" width="56" clip-path="url('#clip-path-corners-square-color-0-1-1')" fill="#087b8dff"/></svg>