<?xml version="1.0" standalone="no"?>
<svg xmlns="http://www.w3.org/2000/svg" width="300" height="300" xmlns:xlink="http://www.w3.org/1999/xlink" viewBox="0 0 300 300"><defs><clipPath id="clip-path-background-color-0"><rect x="0" y="0" width="300" height="300"/></clipPath><clipPath id="clip-path-dot-color-0"><path d="M 118 1v 9h 9v -4.5a 4.5 4.5, 0, 0, 0, -4.5 -4.5" transform="rotate(-90,122.5,5.5)"/><path d="M 127 1v 9h 4.5a 4.5 4.5, 0, 0, 0, 0 -9" transform="rotate(0,131.5,5.5)"/><path d="M 145 1v 9h 4.5a 4.5 4.5, 0, 0, 0, 0 -9" transform="rotate(-90,149.5,5.5)"/><circle cx="167.5" cy="5.5" r="4.5" transform="rotate(0,167.5,5.5)"/><path d="M 181 1v 9h 4.5a 4.5 4.5, 0, 0, 0, 0 -9" transform="rotate(-90,185.5,5.5)"/><path d="M 199 1v 9h 4.5a 4.5 4.5, 0, 0, 0, 0 -9" transform="rotate(-90,203.5,5.5)"/><path d="M 73 10v 9h 4.5a 4.5 4.5, 0, 0, 0, 0 -9" transform="rotate(180,77.5,14.5)"/><path d="M 82 10v 9h 4.5a 4.5 4.5, 0, 0, 0, 0 -9" transform="rotate(0,86.5,14.5)"/><path d="M 100 10v 9h 9v -4.5a 4.5 4.5, 0, 0, 0, -4.5 -4.5" transform="rotate(-90,104.5,14.5)"/><rect x="109" y="10" width="9" height="9" transform="rotate(0,113.5,14.5)"/><path d="M 118 10v 9h 9v -4.5a 4.5 4.5, 0, 0, 0, -4.5 -4.5" transform="rotate(90,122.5,14.5)"/><path d="M 145 10v 9h 9v -4.5a 4.5 4.5, 0, 0, 0, -4.5 -4.5" transform="rotate(180,149.5,14.5)"/><path d="M 154 10v 9h 9v -4.5a 4.5 4.5, 0, 0, 0, -4.5 -4.5" transform="rotate(0,158.5,14.5)"/><path d="M 172 10v 9h 9v -4.5a 4.5 4.5, 0, 0, 0, -4.5 -4.5" transform="rotate(-90,176.5,14.5)"/><rect x="181" y="10" width="9" height="9" transform="rotate(0,185.5,14.5)"/><rect x="190" y="10" width="9" height="9" transform="rotate(0,194.5,14.5)"/><rect x="199" y="10" width="9" height="9" transform="rotate(0,203.5,14.5)"/><path d="M 217 10v 9h 4.5a 4.5 4.5, 0, 0, 0, 0 -9" transform="rotate(-90,221.5,14.5)"/><path d="M 91 19v 9h 9v -4.5a 4.5 4.5, 0, 0, 0, -4.5 -4.5" transform="rotate(-90,95.5,23.5)"/><path d="M 100 19v 9h 9v -4.5a 4.5 4.5, 0, 0, 0, -4.5 -4.5" transform="rotate(90,104.5,23.5)"/><path d="M 154 19v 9h 9v -4.5a 4.5 4.5, 0, 0, 0, -4.5 -4.5" transform="rotate(180,158.5,23.5)"/><rect x="163" y="19" width="9" height="9" transform="rotate(0,167.5,23.5)"/><path d="M 172 19v 9h 9v -4.5a 4.5 4.5, 0, 0, 0, -4.5 -4.5" transform="rotate(90,176.5,23.5)"/><path d="M 199 19v 9h 4.5a 4.5 4.5, 0, 0, 0, 0 -9" transform="rotate(90,203.5,23.5)"/><rect x="217" y="19" width="9" height="9" transform="rotate(0,221.5,23.5)"/><path d="M 73 28v 9h 4.5a 4.5 4.5, 0, 0, 0, 0 -9" transform="rotate(-90,77.5,32.5)"/><path d="M 91 28v 9h 4.5a 4.5 4.5, 0, 0, 0, 0 -9" transform="rotate(90,95.5,32.5)"/><circle cx="122.5" cy="32.5" r="4.5" transform="rotate(0,122.5,32.5)"/><path d="M 136 28v 9h 9v -4.5a 4.5 4.5, 0, 0, 0, -4.5 -4.5" transform="rotate(-90,140.5,32.5)"/><path d="M 145 28v 9h 9v -4.5a 4.5 4.5, 0, 0, 0, -4.5 -4.5" transform="rotate(0,149.5,32.5)"/><path d="M 208 28v 9h 9v -4.5a 4.5 4.5, 0, 0, 0, -4.5 -4.5" transform="rotate(-90,212.5,32.5)"/><rect x="217" y="28" width="9" height="9" transform="rotate(0,221.5,32.5)"/><path d="M 73 37v 9h 9v -4.5a 4.5 4.5, 0, 0, 0, -4.5 -4.5" transform="rotate(180,77.5,41.5)"/><path d="M 82 37v 9h 4.5a 4.5 4.5, 0, 0, 0, 0 -9" transform="rotate(0,86.5,41.5)"/><path d="M 100 37v 9h 4.5a 4.5 4.5, 0, 0, 0, 0 -9" transform="rotate(-90,104.5,41.5)"/><rect x="136" y="37" width="9" height="9" transform="rotate(0,140.5,41.5)"/><rect x="145" y="37" width="9" height="9" transform="rotate(0,149.5,41.5)"/><circle cx="167.5" cy="41.5" r="4.5" transform="rotate(0,167.5,41.5)"/><path d="M 181 37v 9h 4.5a 4.5 4.5, 0, 0, 0, 0 -9" transform="rotate(-90,185.5,41.5)"/><rect x="208" y="37" width="9" height="9" transform="rotate(0,212.5,41.5)"/><path d="M 217 37v 9h 9v -4.5a 4.5 4.5, 0, 0, 0, -4.5 -4.5" transform="rotate(90,221.5,41.5)"/><path d="M 100 46v 9h 9v -4.5a 4.5 4.5, 0, 0, 0, -4.5 -4.5" transform="rotate(180,104.5,50.5)"/><path d="M 109 46v 9h 9v -4.5a 4.5 4.5, 0, 0, 0, -4.5 -4.5" transform="rotate(0,113.5,50.5)"/><path d="M 127 46v 9h 9v -4.5a 4.5 4.5, 0, 0, 0, -4.5 -4.5" transform="rotate(-90,131.5,50.5)"/><rect x="136" y="46" width="9" height="9" transform="rotate(0,140.5,50.5)"/><rect x="145" y="46" width="9" height="9" transform="rotate(0,149.5,50.5)"/><rect x="181" y="46" width="9" height="9" transform="rotate(0,185.5,50.5)"/><path d="M 190 46v 9h 4.5a 4.5 4.5, 0, 0, 0, 0 -9" transform="rotate(0,194.5,50.5)"/><path d="M 208 46v 9h 4.5a 4.5 4.5, 0, 0, 0, 0 -9" transform="rotate(90,212.5,50.5)"/><path d="M 73 55v 9h 4.5a 4.5 4.5, 0, 0, 0, 0 -9" transform="rotate(-90,77.5,59.5)"/><circle cx="95.5" cy="59.5" r="4.5" transform="rotate(0,95.5,59.5)"/><rect x="109" y="55" width="9" height="9" transform="rotate(0,113.5,59.5)"/><rect x="127" y="55" width="9" height="9" transform="rotate(0,131.5,59.5)"/><rect x="145" y="55" width="9" height="9" transform="rotate(0,149.5,59.5)"/><circle cx="167.5" cy="59.5" r="4.5" transform="rotate(0,167.5,59.5)"/><rect x="181" y="55" width="9" height="9" transform="rotate(0,185.5,59.5)"/><path d="M 199 55v 9h 4.5a 4.5 4.5, 0, 0, 0, 0 -9" transform="rotate(-90,203.5,59.5)"/><path d="M 217 55v 9h 4.5a 4.5 4.5, 0, 0, 0, 0 -9" transform="rotate(-90,221.5,59.5)"/><rect x="73" y="64" width="9" height="9" transform="rotate(0,77.5,68.5)"/><path d="M 82 64v 9h 9v -4.5a 4.5 4.5, 0, 0, 0, -4.5 -4.5" transform="rotate(0,86.5,68.5)"/><path d="M 100 64v 9h 4.5a 4.5 4.5, 0, 0, 0, 0 -9" transform="rotate(180,104.5,68.5)"/><path d="M 109 64v 9h 9v -4.5a 4.5 4.5, 0, 0, 0, -4.5 -4.5" transform="rotate(90,113.5,68.5)"/><path d="M 127 64v 9h 4.5a 4.5 4.5, 0, 0, 0, 0 -9" transform="rotate(90,131.5,68.5)"/><rect x="145" y="64" width="9" height="9" transform="rotate(0,149.5,68.5)"/><path d="M 172 64v 9h 9v -4.5a 4.5 4.5, 0, 0, 0, -4.5 -4.5" transform="rotate(-90,176.5,68.5)"/><rect x="181" y="64" width="9" height="9" transform="rotate(0,185.5,68.5)"/><path d="M 199 64v 9h 4.5a 4.5 4.5, 0, 0, 0, 0 -9" transform="rotate(90,203.5,68.5)"/><rect x="217" y="64" width="9" height="9" transform="rotate(0,221.5,68.5)"/><circle cx="14.5" cy="77.5" r="4.5" transform="rotate(0,14.5,77.5)"/><path d="M 28 73v 9h 4.5a 4.5 4.5, 0, 0, 0, 0 -9" transform="rotate(180,32.5,77.5)"/><rect x="37" y="73" width="9" height="9" transform="rotate(0,41.5,77.5)"/><rect x="46" y="73" width="9" height="9" transform="rotate(0,50.5,77.5)"/><path d="M 55 73v 9h 4.5a 4.5 4.5, 0, 0, 0, 0 -9" transform="rotate(0,59.5,77.5)"/><rect x="73" y="73" width="9" height="9" transform="rotate(0,77.5,77.5)"/><rect x="82" y="73" width="9" height="9" transform="rotate(0,86.5,77.5)"/><circle cx="122.5" cy="77.5" r="4.5" transform="rotate(0,122.5,77.5)"/><path d="M 136 73v 9h 4.5a 4.5 4.5, 0, 0, 0, 0 -9" transform="rotate(180,140.5,77.5)"/><rect x="145" y="73" width="9" height="9" transform="rotate(0,149.5,77.5)"/><path d="M 154 73v 9h 4.5a 4.5 4.5, 0, 0, 0, 0 -9" transform="rotate(0,158.5,77.5)"/><rect x="172" y="73" width="9" height="9" transform="rotate(0,176.5,77.5)"/><rect x="181" y="73" width="9" height="9" transform="rotate(0,185.5,77.5)"/><path d="M 217 73v 9h 9v -4.5a 4.5 4.5, 0, 0, 0, -4.5 -4.5" transform="rotate(180,221.5,77.5)"/><rect x="226" y="73" width="9" height="9" transform="rotate(0,230.5,77.5)"/><path d="M 235 73v 9h 4.5a 4.5 4.5, 0, 0, 0, 0 -9" transform="rotate(0,239.5,77.5)"/><path d="M 253 73v 9h 9v -4.5a 4.5 4.5, 0, 0, 0, -4.5 -4.5" transform="rotate(-90,257.5,77.5)"/><path d="M 262 73v 9h 9v -4.5a 4.5 4.5, 0, 0, 0, -4.5 -4.5" transform="rotate(0,266.5,77.5)"/><path d="M 280 73v 9h 4.5a 4.5 4.5, 0, 0, 0, 0 -9" transform="rotate(-90,284.5,77.5)"/><rect x="37" y="82" width="9" height="9" transform="rotate(0,41.5,86.5)"/><path d="M 64 82v 9h 9v -4.5a 4.5 4.5, 0, 0, 0, -4.5 -4.5" transform="rotate(-90,68.5,86.5)"/><rect x="73" y="82" width="9" height="9" transform="rotate(0,77.5,86.5)"/><rect x="82" y="82" width="9" height="9" transform="rotate(0,86.5,86.5)"/><rect x="91" y="82" width="9" height="9" transform="rotate(0,95.5,86.5)"/><rect x="100" y="82" width="9" height="9" transform="rotate(0,104.5,86.5)"/><path d="M 109 82v 9h 4.5a 4.5 4.5, 0, 0, 0, 0 -9" transform="rotate(0,113.5,86.5)"/><path d="M 145 82v 9h 4.5a 4.5 4.5, 0, 0, 0, 0 -9" transform="rotate(90,149.5,86.5)"/><path d="M 172 82v 9h 9v -4.5a 4.5 4.5, 0, 0, 0, -4.5 -4.5" transform="rotate(180,176.5,86.5)"/><rect x="181" y="82" width="9" height="9" transform="rotate(0,185.5,86.5)"/><path d="M 208 82v 9h 4.5a 4.5 4.5, 0, 0, 0, 0 -9" transform="rotate(-90,212.5,86.5)"/><path d="M 244 82v 9h 4.5a 4.5 4.5, 0, 0, 0, 0 -9" transform="rotate(180,248.5,86.5)"/><rect x="253" y="82" width="9" height="9" transform="rotate(0,257.5,86.5)"/><rect x="262" y="82" width="9" height="9" transform="rotate(0,266.5,86.5)"/><rect x="271" y="82" width="9" height="9" transform="rotate(0,275.5,86.5)"/><rect x="280" y="82" width="9" height="9" transform="rotate(0,284.5,86.5)"/><path d="M 1 91v 9h 4.5a 4.5 4.5, 0, 0, 0, 0 -9" transform="rotate(180,5.5,95.5)"/><path d="M 10 91v 9h 4.5a 4.5 4.5, 0, 0, 0, 0 -9" transform="rotate(0,14.5,95.5)"/><path d="M 28 91v 9h 9v -4.5a 4.5 4.5, 0, 0, 0, -4.5 -4.5" transform="rotate(-90,32.5,95.5)"/><rect x="37" y="91" width="9" height="9" transform="rotate(0,41.5,95.5)"/><path d="M 55 91v 9h 4.5a 4.5 4.5, 0, 0, 0, 0 -9" transform="rotate(180,59.5,95.5)"/><rect x="64" y="91" width="9" height="9" transform="rotate(0,68.5,95.5)"/><path d="M 118 91v 9h 9v -4.5a 4.5 4.5, 0, 0, 0, -4.5 -4.5" transform="rotate(-90,122.5,95.5)"/><path d="M 127 91v 9h 4.5a 4.5 4.5, 0, 0, 0, 0 -9" transform="rotate(0,131.5,95.5)"/><path d="M 154 91v 9h 9v -4.5a 4.5 4.5, 0, 0, 0, -4.5 -4.5" transform="rotate(-90,158.5,95.5)"/><path d="M 163 91v 9h 4.5a 4.5 4.5, 0, 0, 0, 0 -9" transform="rotate(0,167.5,95.5)"/><path d="M 181 91v 9h 9v -4.5a 4.5 4.5, 0, 0, 0, -4.5 -4.5" transform="rotate(180,185.5,95.5)"/><path d="M 190 91v 9h 4.5a 4.5 4.5, 0, 0, 0, 0 -9" transform="rotate(0,194.5,95.5)"/><rect x="208" y="91" width="9" height="9" transform="rotate(0,212.5,95.5)"/><path d="M 217 91v 9h 4.5a 4.5 4.5, 0, 0, 0, 0 -9" transform="rotate(0,221.5,95.5)"/><circle cx="239.5" cy="95.5" r="4.5" transform="rotate(0,239.5,95.5)"/><path d="M 253 91v 9h 9v -4.5a 4.5 4.5, 0, 0, 0, -4.5 -4.5" transform="rotate(180,257.5,95.5)"/><rect x="262" y="91" width="9" height="9" transform="rotate(0,266.5,95.5)"/><rect x="271" y="91" width="9" height="9" transform="rotate(0,275.5,95.5)"/><rect x="280" y="91" width="9" height="9" transform="rotate(0,284.5,95.5)"/><path d="M 289 91v 9h 9v -4.5a 4.5 4.5, 0, 0, 0, -4.5 -4.5" transform="rotate(0,293.5,95.5)"/><rect x="28" y="100" width="9" height="9" transform="rotate(0,32.5,104.5)"/><rect x="37" y="100" width="9" height="9" transform="rotate(0,41.5,104.5)"/><path d="M 64 100v 9h 9v -4.5a 4.5 4.5, 0, 0, 0, -4.5 -4.5" transform="rotate(180,68.5,104.5)"/><rect x="73" y="100" width="9" height="9" transform="rotate(0,77.5,104.5)"/><rect x="82" y="100" width="9" height="9" transform="rotate(0,86.5,104.5)"/><rect x="91" y="100" width="9" height="9" transform="rotate(0,95.5,104.5)"/><rect x="100" y="100" width="9" height="9" transform="rotate(0,104.5,104.5)"/><rect x="109" y="100" width="9" height="9" transform="rotate(0,113.5,104.5)"/><rect x="118" y="100" width="9" height="9" transform="rotate(0,122.5,104.5)"/><path d="M 145 100v 9h 4.5a 4.5 4.5, 0, 0, 0, 0 -9" transform="rotate(180,149.5,104.5)"/><rect x="154" y="100" width="9" height="9" transform="rotate(0,158.5,104.5)"/><path d="M 208 100v 9h 4.5a 4.5 4.5, 0, 0, 0, 0 -9" transform="rotate(90,212.5,104.5)"/><circle cx="230.5" cy="104.5" r="4.5" transform="rotate(0,230.5,104.5)"/><circle cx="248.5" cy="104.5" r="4.5" transform="rotate(0,248.5,104.5)"/><path d="M 271 100v 9h 9v -4.5a 4.5 4.5, 0, 0, 0, -4.5 -4.5" transform="rotate(180,275.5,104.5)"/><rect x="280" y="100" width="9" height="9" transform="rotate(0,284.5,104.5)"/><path d="M 289 100v 9h 9v -4.5a 4.5 4.5, 0, 0, 0, -4.5 -4.5" transform="rotate(90,293.5,104.5)"/><path d="M 10 109v 9h 4.5a 4.5 4.5, 0, 0, 0, 0 -9" transform="rotate(180,14.5,113.5)"/><rect x="19" y="109" width="9" height="9" transform="rotate(0,23.5,113.5)"/><rect x="28" y="109" width="9" height="9" transform="rotate(0,32.5,113.5)"/><rect x="37" y="109" width="9" height="9" transform="rotate(0,41.5,113.5)"/><circle cx="59.5" cy="113.5" r="4.5" transform="rotate(0,59.5,113.5)"/><path d="M 100 109v 9h 9v -4.5a 4.5 4.5, 0, 0, 0, -4.5 -4.5" transform="rotate(180,104.5,113.5)"/><rect x="109" y="109" width="9" height="9" transform="rotate(0,113.5,113.5)"/><path d="M 118 109v 9h 9v -4.5a 4.5 4.5, 0, 0, 0, -4.5 -4.5" transform="rotate(90,122.5,113.5)"/><path d="M 136 109v 9h 4.5a 4.5 4.5, 0, 0, 0, 0 -9" transform="rotate(-90,140.5,113.5)"/><rect x="154" y="109" width="9" height="9" transform="rotate(0,158.5,113.5)"/><rect x="163" y="109" width="9" height="9" transform="rotate(0,167.5,113.5)"/><rect x="172" y="109" width="9" height="9" transform="rotate(0,176.5,113.5)"/><rect x="181" y="109" width="9" height="9" transform="rotate(0,185.5,113.5)"/><rect x="190" y="109" width="9" height="9" transform="rotate(0,194.5,113.5)"/><path d="M 199 109v 9h 9v -4.5a 4.5 4.5, 0, 0, 0, -4.5 -4.5" transform="rotate(0,203.5,113.5)"/><circle cx="239.5" cy="113.5" r="4.5" transform="rotate(0,239.5,113.5)"/><path d="M 19 118v 9h 9v -4.5a 4.5 4.5, 0, 0, 0, -4.5 -4.5" transform="rotate(180,23.5,122.5)"/><rect x="28" y="118" width="9" height="9" transform="rotate(0,32.5,122.5)"/><rect x="37" y="118" width="9" height="9" transform="rotate(0,41.5,122.5)"/><path d="M 64 118v 9h 4.5a 4.5 4.5, 0, 0, 0, 0 -9" transform="rotate(-90,68.5,122.5)"/><path d="M 82 118v 9h 9v -4.5a 4.5 4.5, 0, 0, 0, -4.5 -4.5" transform="rotate(-90,86.5,122.5)"/><path d="M 91 118v 9h 4.5a 4.5 4.5, 0, 0, 0, 0 -9" transform="rotate(0,95.5,122.5)"/><rect x="136" y="118" width="9" height="9" transform="rotate(0,140.5,122.5)"/><path d="M 154 118v 9h 4.5a 4.5 4.5, 0, 0, 0, 0 -9" transform="rotate(90,158.5,122.5)"/><path d="M 172 118v 9h 4.5a 4.5 4.5, 0, 0, 0, 0 -9" transform="rotate(90,176.5,122.5)"/><rect x="199" y="118" width="9" height="9" transform="rotate(0,203.5,122.5)"/><rect x="208" y="118" width="9" height="9" transform="rotate(0,212.5,122.5)"/><path d="M 217 118v 9h 4.5a 4.5 4.5, 0, 0, 0, 0 -9" transform="rotate(0,221.5,122.5)"/><circle cx="275.5" cy="122.5" r="4.5" transform="rotate(0,275.5,122.5)"/><path d="M 1 127v 9h 4.5a 4.5 4.5, 0, 0, 0, 0 -9" transform="rotate(180,5.5,131.5)"/><path d="M 10 127v 9h 9v -4.5a 4.5 4.5, 0, 0, 0, -4.5 -4.5" transform="rotate(0,14.5,131.5)"/><path d="M 37 127v 9h 4.5a 4.5 4.5, 0, 0, 0, 0 -9" transform="rotate(90,41.5,131.5)"/><path d="M 55 127v 9h 4.5a 4.5 4.5, 0, 0, 0, 0 -9" transform="rotate(180,59.5,131.5)"/><rect x="64" y="127" width="9" height="9" transform="rotate(0,68.5,131.5)"/><path d="M 82 127v 9h 4.5a 4.5 4.5, 0, 0, 0, 0 -9" transform="rotate(90,86.5,131.5)"/><path d="M 100 127v 9h 9v -4.5a 4.5 4.5, 0, 0, 0, -4.5 -4.5" transform="rotate(-90,104.5,131.5)"/><path d="M 109 127v 9h 9v -4.5a 4.5 4.5, 0, 0, 0, -4.5 -4.5" transform="rotate(0,113.5,131.5)"/><path d="M 127 127v 9h 4.5a 4.5 4.5, 0, 0, 0, 0 -9" transform="rotate(180,131.5,131.5)"/><path d="M 136 127v 9h 9v -4.5a 4.5 4.5, 0, 0, 0, -4.5 -4.5" transform="rotate(90,140.5,131.5)"/><path d="M 199 127v 9h 4.5a 4.5 4.5, 0, 0, 0, 0 -9" transform="rotate(90,203.5,131.5)"/><path d="M 235 127v 9h 4.5a 4.5 4.5, 0, 0, 0, 0 -9" transform="rotate(-90,239.5,131.5)"/><path d="M 262 127v 9h 4.5a 4.5 4.5, 0, 0, 0, 0 -9" transform="rotate(-90,266.5,131.5)"/><path d="M 10 136v 9h 9v -4.5a 4.5 4.5, 0, 0, 0, -4.5 -4.5" transform="rotate(180,14.5,140.5)"/><path d="M 19 136v 9h 9v -4.5a 4.5 4.5, 0, 0, 0, -4.5 -4.5" transform="rotate(0,23.5,140.5)"/><circle cx="50.5" cy="140.5" r="4.5" transform="rotate(0,50.5,140.5)"/><rect x="64" y="136" width="9" height="9" transform="rotate(0,68.5,140.5)"/><path d="M 91 136v 9h 9v -4.5a 4.5 4.5, 0, 0, 0, -4.5 -4.5" transform="rotate(-90,95.5,140.5)"/><rect x="100" y="136" width="9" height="9" transform="rotate(0,104.5,140.5)"/><path d="M 109 136v 9h 9v -4.5a 4.5 4.5, 0, 0, 0, -4.5 -4.5" transform="rotate(90,113.5,140.5)"/><path d="M 145 136v 9h 4.5a 4.5 4.5, 0, 0, 0, 0 -9" transform="rotate(180,149.5,140.5)"/><rect x="154" y="136" width="9" height="9" transform="rotate(0,158.5,140.5)"/><rect x="163" y="136" width="9" height="9" transform="rotate(0,167.5,140.5)"/><path d="M 172 136v 9h 9v -4.5a 4.5 4.5, 0, 0, 0, -4.5 -4.5" transform="rotate(0,176.5,140.5)"/><circle cx="212.5" cy="140.5" r="4.5" transform="rotate(0,212.5,140.5)"/><rect x="235" y="136" width="9" height="9" transform="rotate(0,239.5,140.5)"/><path d="M 244 136v 9h 9v -4.5a 4.5 4.5, 0, 0, 0, -4.5 -4.5" transform="rotate(0,248.5,140.5)"/><rect x="262" y="136" width="9" height="9" transform="rotate(0,266.5,140.5)"/><path d="M 271 136v 9h 4.5a 4.5 4.5, 0, 0, 0, 0 -9" transform="rotate(0,275.5,140.5)"/><circle cx="293.5" cy="140.5" r="4.5" transform="rotate(0,293.5,140.5)"/><path d="M 1 145v 9h 4.5a 4.5 4.5, 0, 0, 0, 0 -9" transform="rotate(-90,5.5,149.5)"/><path d="M 19 145v 9h 4.5a 4.5 4.5, 0, 0, 0, 0 -9" transform="rotate(90,23.5,149.5)"/><circle cx="41.5" cy="149.5" r="4.5" transform="rotate(0,41.5,149.5)"/><path d="M 55 145v 9h 4.5a 4.5 4.5, 0, 0, 0, 0 -9" transform="rotate(180,59.5,149.5)"/><rect x="64" y="145" width="9" height="9" transform="rotate(0,68.5,149.5)"/><rect x="73" y="145" width="9" height="9" transform="rotate(0,77.5,149.5)"/><rect x="82" y="145" width="9" height="9" transform="rotate(0,86.5,149.5)"/><path d="M 91 145v 9h 9v -4.5a 4.5 4.5, 0, 0, 0, -4.5 -4.5" transform="rotate(90,95.5,149.5)"/><circle cx="131.5" cy="149.5" r="4.5" transform="rotate(0,131.5,149.5)"/><rect x="163" y="145" width="9" height="9" transform="rotate(0,167.5,149.5)"/><rect x="172" y="145" width="9" height="9" transform="rotate(0,176.5,149.5)"/><circle cx="203.5" cy="149.5" r="4.5" transform="rotate(0,203.5,149.5)"/><path d="M 217 145v 9h 4.5a 4.5 4.5, 0, 0, 0, 0 -9" transform="rotate(180,221.5,149.5)"/><rect x="226" y="145" width="9" height="9" transform="rotate(0,230.5,149.5)"/><rect x="235" y="145" width="9" height="9" transform="rotate(0,239.5,149.5)"/><rect x="244" y="145" width="9" height="9" transform="rotate(0,248.5,149.5)"/><rect x="253" y="145" width="9" height="9" transform="rotate(0,257.5,149.5)"/><path d="M 262 145v 9h 9v -4.5a 4.5 4.5, 0, 0, 0, -4.5 -4.5" transform="rotate(90,266.5,149.5)"/><rect x="1" y="154" width="9" height="9" transform="rotate(0,5.5,158.5)"/><path d="M 10 154v 9h 9v -4.5a 4.5 4.5, 0, 0, 0, -4.5 -4.5" transform="rotate(0,14.5,158.5)"/><rect x="64" y="154" width="9" height="9" transform="rotate(0,68.5,158.5)"/><path d="M 100 154v 9h 4.5a 4.5 4.5, 0, 0, 0, 0 -9" transform="rotate(180,104.5,158.5)"/><rect x="109" y="154" width="9" height="9" transform="rotate(0,113.5,158.5)"/><path d="M 118 154v 9h 4.5a 4.5 4.5, 0, 0, 0, 0 -9" transform="rotate(0,122.5,158.5)"/><path d="M 136 154v 9h 9v -4.5a 4.5 4.5, 0, 0, 0, -4.5 -4.5" transform="rotate(-90,140.5,158.5)"/><rect x="145" y="154" width="9" height="9" transform="rotate(0,149.5,158.5)"/><rect x="154" y="154" width="9" height="9" transform="rotate(0,158.5,158.5)"/><rect x="163" y="154" width="9" height="9" transform="rotate(0,167.5,158.5)"/><rect x="172" y="154" width="9" height="9" transform="rotate(0,176.5,158.5)"/><circle cx="194.5" cy="158.5" r="4.5" transform="rotate(0,194.5,158.5)"/><path d="M 235 154v 9h 4.5a 4.5 4.5, 0, 0, 0, 0 -9" transform="rotate(90,239.5,158.5)"/><path d="M 253 154v 9h 4.5a 4.5 4.5, 0, 0, 0, 0 -9" transform="rotate(90,257.5,158.5)"/><path d="M 271 154v 9h 4.5a 4.5 4.5, 0, 0, 0, 0 -9" transform="rotate(-90,275.5,158.5)"/><path d="M 289 154v 9h 4.5a 4.5 4.5, 0, 0, 0, 0 -9" transform="rotate(-90,293.5,158.5)"/><rect x="1" y="163" width="9" height="9" transform="rotate(0,5.5,167.5)"/><rect x="10" y="163" width="9" height="9" transform="rotate(0,14.5,167.5)"/><rect x="19" y="163" width="9" height="9" transform="rotate(0,23.5,167.5)"/><rect x="28" y="163" width="9" height="9" transform="rotate(0,32.5,167.5)"/><rect x="37" y="163" width="9" height="9" transform="rotate(0,41.5,167.5)"/><rect x="46" y="163" width="9" height="9" transform="rotate(0,50.5,167.5)"/><rect x="55" y="163" width="9" height="9" transform="rotate(0,59.5,167.5)"/><path d="M 64 163v 9h 9v -4.5a 4.5 4.5, 0, 0, 0, -4.5 -4.5" transform="rotate(90,68.5,167.5)"/><path d="M 82 163v 9h 9v -4.5a 4.5 4.5, 0, 0, 0, -4.5 -4.5" transform="rotate(-90,86.5,167.5)"/><path d="M 91 163v 9h 9v -4.5a 4.5 4.5, 0, 0, 0, -4.5 -4.5" transform="rotate(0,95.5,167.5)"/><path d="M 109 163v 9h 4.5a 4.5 4.5, 0, 0, 0, 0 -9" transform="rotate(90,113.5,167.5)"/><path d="M 127 163v 9h 4.5a 4.5 4.5, 0, 0, 0, 0 -9" transform="rotate(180,131.5,167.5)"/><path d="M 136 163v 9h 9v -4.5a 4.5 4.5, 0, 0, 0, -4.5 -4.5" transform="rotate(90,140.5,167.5)"/><rect x="163" y="163" width="9" height="9" transform="rotate(0,167.5,167.5)"/><rect x="172" y="163" width="9" height="9" transform="rotate(0,176.5,167.5)"/><circle cx="212.5" cy="167.5" r="4.5" transform="rotate(0,212.5,167.5)"/><path d="M 226 163v 9h 4.5a 4.5 4.5, 0, 0, 0, 0 -9" transform="rotate(-90,230.5,167.5)"/><path d="M 262 163v 9h 9v -4.5a 4.5 4.5, 0, 0, 0, -4.5 -4.5" transform="rotate(-90,266.5,167.5)"/><rect x="271" y="163" width="9" height="9" transform="rotate(0,275.5,167.5)"/><rect x="280" y="163" width="9" height="9" transform="rotate(0,284.5,167.5)"/><path d="M 289 163v 9h 9v -4.5a 4.5 4.5, 0, 0, 0, -4.5 -4.5" transform="rotate(90,293.5,167.5)"/><rect x="1" y="172" width="9" height="9" transform="rotate(0,5.5,176.5)"/><path d="M 10 172v 9h 9v -4.5a 4.5 4.5, 0, 0, 0, -4.5 -4.5" transform="rotate(90,14.5,176.5)"/><path d="M 28 172v 9h 4.5a 4.5 4.5, 0, 0, 0, 0 -9" transform="rotate(90,32.5,176.5)"/><rect x="46" y="172" width="9" height="9" transform="rotate(0,50.5,176.5)"/><path d="M 73 172v 9h 9v -4.5a 4.5 4.5, 0, 0, 0, -4.5 -4.5" transform="rotate(-90,77.5,176.5)"/><rect x="82" y="172" width="9" height="9" transform="rotate(0,86.5,176.5)"/><path d="M 91 172v 9h 9v -4.5a 4.5 4.5, 0, 0, 0, -4.5 -4.5" transform="rotate(90,95.5,176.5)"/><path d="M 145 172v 9h 9v -4.5a 4.5 4.5, 0, 0, 0, -4.5 -4.5" transform="rotate(-90,149.5,176.5)"/><rect x="154" y="172" width="9" height="9" transform="rotate(0,158.5,176.5)"/><rect x="163" y="172" width="9" height="9" transform="rotate(0,167.5,176.5)"/><rect x="172" y="172" width="9" height="9" transform="rotate(0,176.5,176.5)"/><rect x="181" y="172" width="9" height="9" transform="rotate(0,185.5,176.5)"/><path d="M 190 172v 9h 9v -4.5a 4.5 4.5, 0, 0, 0, -4.5 -4.5" transform="rotate(0,194.5,176.5)"/><path d="M 217 172v 9h 4.5a 4.5 4.5, 0, 0, 0, 0 -9" transform="rotate(180,221.5,176.5)"/><rect x="226" y="172" width="9" height="9" transform="rotate(0,230.5,176.5)"/><rect x="235" y="172" width="9" height="9" transform="rotate(0,239.5,176.5)"/><rect x="244" y="172" width="9" height="9" transform="rotate(0,248.5,176.5)"/><rect x="253" y="172" width="9" height="9" transform="rotate(0,257.5,176.5)"/><rect x="262" y="172" width="9" height="9" transform="rotate(0,266.5,176.5)"/><rect x="271" y="172" width="9" height="9" transform="rotate(0,275.5,176.5)"/><rect x="280" y="172" width="9" height="9" transform="rotate(0,284.5,176.5)"/><rect x="1" y="181" width="9" height="9" transform="rotate(0,5.5,185.5)"/><path d="M 19 181v 9h 4.5a 4.5 4.5, 0, 0, 0, 0 -9" transform="rotate(-90,23.5,185.5)"/><path d="M 37 181v 9h 9v -4.5a 4.5 4.5, 0, 0, 0, -4.5 -4.5" transform="rotate(-90,41.5,185.5)"/><rect x="46" y="181" width="9" height="9" transform="rotate(0,50.5,185.5)"/><rect x="55" y="181" width="9" height="9" transform="rotate(0,59.5,185.5)"/><rect x="64" y="181" width="9" height="9" transform="rotate(0,68.5,185.5)"/><rect x="73" y="181" width="9" height="9" transform="rotate(0,77.5,185.5)"/><path d="M 109 181v 9h 4.5a 4.5 4.5, 0, 0, 0, 0 -9" transform="rotate(-90,113.5,185.5)"/><rect x="145" y="181" width="9" height="9" transform="rotate(0,149.5,185.5)"/><rect x="154" y="181" width="9" height="9" transform="rotate(0,158.5,185.5)"/><path d="M 172 181v 9h 9v -4.5a 4.5 4.5, 0, 0, 0, -4.5 -4.5" transform="rotate(180,176.5,185.5)"/><rect x="181" y="181" width="9" height="9" transform="rotate(0,185.5,185.5)"/><path d="M 190 181v 9h 9v -4.5a 4.5 4.5, 0, 0, 0, -4.5 -4.5" transform="rotate(90,194.5,185.5)"/><path d="M 244 181v 9h 4.5a 4.5 4.5, 0, 0, 0, 0 -9" transform="rotate(90,248.5,185.5)"/><path d="M 262 181v 9h 4.5a 4.5 4.5, 0, 0, 0, 0 -9" transform="rotate(90,266.5,185.5)"/><path d="M 280 181v 9h 4.5a 4.5 4.5, 0, 0, 0, 0 -9" transform="rotate(90,284.5,185.5)"/><rect x="1" y="190" width="9" height="9" transform="rotate(0,5.5,194.5)"/><path d="M 19 190v 9h 9v -4.5a 4.5 4.5, 0, 0, 0, -4.5 -4.5" transform="rotate(180,23.5,194.5)"/><rect x="28" y="190" width="9" height="9" transform="rotate(0,32.5,194.5)"/><path d="M 37 190v 9h 9v -4.5a 4.5 4.5, 0, 0, 0, -4.5 -4.5" transform="rotate(90,41.5,194.5)"/><rect x="73" y="190" width="9" height="9" transform="rotate(0,77.5,194.5)"/><rect x="82" y="190" width="9" height="9" transform="rotate(0,86.5,194.5)"/><path d="M 91 190v 9h 4.5a 4.5 4.5, 0, 0, 0, 0 -9" transform="rotate(0,95.5,194.5)"/><rect x="109" y="190" width="9" height="9" transform="rotate(0,113.5,194.5)"/><path d="M 136 190v 9h 9v -4.5a 4.5 4.5, 0, 0, 0, -4.5 -4.5" transform="rotate(-90,140.5,194.5)"/><rect x="145" y="190" width="9" height="9" transform="rotate(0,149.5,194.5)"/><rect x="154" y="190" width="9" height="9" transform="rotate(0,158.5,194.5)"/><path d="M 181 190v 9h 4.5a 4.5 4.5, 0, 0, 0, 0 -9" transform="rotate(90,185.5,194.5)"/><path d="M 199 190v 9h 4.5a 4.5 4.5, 0, 0, 0, 0 -9" transform="rotate(-90,203.5,194.5)"/><path d="M 226 190v 9h 9v -4.5a 4.5 4.5, 0, 0, 0, -4.5 -4.5" transform="rotate(-90,230.5,194.5)"/><path d="M 235 190v 9h 4.5a 4.5 4.5, 0, 0, 0, 0 -9" transform="rotate(0,239.5,194.5)"/><path d="M 253 190v 9h 4.5a 4.5 4.5, 0, 0, 0, 0 -9" transform="rotate(-90,257.5,194.5)"/><circle cx="275.5" cy="194.5" r="4.5" transform="rotate(0,275.5,194.5)"/><rect x="1" y="199" width="9" height="9" transform="rotate(0,5.5,203.5)"/><path d="M 28 199v 9h 4.5a 4.5 4.5, 0, 0, 0, 0 -9" transform="rotate(90,32.5,203.5)"/><circle cx="59.5" cy="203.5" r="4.5" transform="rotate(0,59.5,203.5)"/><rect x="73" y="199" width="9" height="9" transform="rotate(0,77.5,203.5)"/><path d="M 100 199v 9h 4.5a 4.5 4.5, 0, 0, 0, 0 -9" transform="rotate(180,104.5,203.5)"/><rect x="109" y="199" width="9" height="9" transform="rotate(0,113.5,203.5)"/><path d="M 127 199v 9h 9v -4.5a 4.5 4.5, 0, 0, 0, -4.5 -4.5" transform="rotate(-90,131.5,203.5)"/><path d="M 136 199v 9h 9v -4.5a 4.5 4.5, 0, 0, 0, -4.5 -4.5" transform="rotate(90,140.5,203.5)"/><path d="M 154 199v 9h 9v -4.5a 4.5 4.5, 0, 0, 0, -4.5 -4.5" transform="rotate(180,158.5,203.5)"/><path d="M 163 199v 9h 9v -4.5a 4.5 4.5, 0, 0, 0, -4.5 -4.5" transform="rotate(0,167.5,203.5)"/><path d="M 190 199v 9h 4.5a 4.5 4.5, 0, 0, 0, 0 -9" transform="rotate(180,194.5,203.5)"/><rect x="199" y="199" width="9" height="9" transform="rotate(0,203.5,203.5)"/><path d="M 208 199v 9h 4.5a 4.5 4.5, 0, 0, 0, 0 -9" transform="rotate(0,212.5,203.5)"/><rect x="226" y="199" width="9" height="9" transform="rotate(0,230.5,203.5)"/><path d="M 244 199v 9h 9v -4.5a 4.5 4.5, 0, 0, 0, -4.5 -4.5" transform="rotate(-90,248.5,203.5)"/><path d="M 253 199v 9h 9v -4.5a 4.5 4.5, 0, 0, 0, -4.5 -4.5" transform="rotate(90,257.5,203.5)"/><path d="M 280 199v 9h 4.5a 4.5 4.5, 0, 0, 0, 0 -9" transform="rotate(180,284.5,203.5)"/><path d="M 289 199v 9h 4.5a 4.5 4.5, 0, 0, 0, 0 -9" transform="rotate(0,293.5,203.5)"/><rect x="1" y="208" width="9" height="9" transform="rotate(0,5.5,212.5)"/><circle cx="41.5" cy="212.5" r="4.5" transform="rotate(0,41.5,212.5)"/><path d="M 73 208v 9h 9v -4.5a 4.5 4.5, 0, 0, 0, -4.5 -4.5" transform="rotate(180,77.5,212.5)"/><rect x="82" y="208" width="9" height="9" transform="rotate(0,86.5,212.5)"/><path d="M 91 208v 9h 9v -4.5a 4.5 4.5, 0, 0, 0, -4.5 -4.5" transform="rotate(0,95.5,212.5)"/><rect x="109" y="208" width="9" height="9" transform="rotate(0,113.5,212.5)"/><path d="M 127 208v 9h 4.5a 4.5 4.5, 0, 0, 0, 0 -9" transform="rotate(90,131.5,212.5)"/><path d="M 163 208v 9h 4.5a 4.5 4.5, 0, 0, 0, 0 -9" transform="rotate(90,167.5,212.5)"/><rect x="199" y="208" width="9" height="9" transform="rotate(0,203.5,212.5)"/><path d="M 217 208v 9h 9v -4.5a 4.5 4.5, 0, 0, 0, -4.5 -4.5" transform="rotate(-90,221.5,212.5)"/><rect x="226" y="208" width="9" height="9" transform="rotate(0,230.5,212.5)"/><rect x="235" y="208" width="9" height="9" transform="rotate(0,239.5,212.5)"/><rect x="244" y="208" width="9" height="9" transform="rotate(0,248.5,212.5)"/><circle cx="275.5" cy="212.5" r="4.5" transform="rotate(0,275.5,212.5)"/><path d="M 1 217v 9h 9v -4.5a 4.5 4.5, 0, 0, 0, -4.5 -4.5" transform="rotate(180,5.5,221.5)"/><rect x="10" y="217" width="9" height="9" transform="rotate(0,14.5,221.5)"/><path d="M 19 217v 9h 4.5a 4.5 4.5, 0, 0, 0, 0 -9" transform="rotate(0,23.5,221.5)"/><path d="M 46 217v 9h 4.5a 4.5 4.5, 0, 0, 0, 0 -9" transform="rotate(180,50.5,221.5)"/><rect x="55" y="217" width="9" height="9" transform="rotate(0,59.5,221.5)"/><path d="M 64 217v 9h 4.5a 4.5 4.5, 0, 0, 0, 0 -9" transform="rotate(0,68.5,221.5)"/><rect x="82" y="217" width="9" height="9" transform="rotate(0,86.5,221.5)"/><rect x="91" y="217" width="9" height="9" transform="rotate(0,95.5,221.5)"/><rect x="100" y="217" width="9" height="9" transform="rotate(0,104.5,221.5)"/><path d="M 109 217v 9h 9v -4.5a 4.5 4.5, 0, 0, 0, -4.5 -4.5" transform="rotate(90,113.5,221.5)"/><circle cx="176.5" cy="221.5" r="4.5" transform="rotate(0,176.5,221.5)"/><rect x="199" y="217" width="9" height="9" transform="rotate(0,203.5,221.5)"/><rect x="217" y="217" width="9" height="9" transform="rotate(0,221.5,221.5)"/><rect x="226" y="217" width="9" height="9" transform="rotate(0,230.5,221.5)"/><rect x="235" y="217" width="9" height="9" transform="rotate(0,239.5,221.5)"/><rect x="244" y="217" width="9" height="9" transform="rotate(0,248.5,221.5)"/><rect x="253" y="217" width="9" height="9" transform="rotate(0,257.5,221.5)"/><path d="M 262 217v 9h 4.5a 4.5 4.5, 0, 0, 0, 0 -9" transform="rotate(0,266.5,221.5)"/><circle cx="293.5" cy="221.5" r="4.5" transform="rotate(0,293.5,221.5)"/><path d="M 73 226v 9h 4.5a 4.5 4.5, 0, 0, 0, 0 -9" transform="rotate(180,77.5,230.5)"/><rect x="82" y="226" width="9" height="9" transform="rotate(0,86.5,230.5)"/><path d="M 91 226v 9h 9v -4.5a 4.5 4.5, 0, 0, 0, -4.5 -4.5" transform="rotate(90,95.5,230.5)"/><path d="M 118 226v 9h 4.5a 4.5 4.5, 0, 0, 0, 0 -9" transform="rotate(-90,122.5,230.5)"/><path d="M 181 226v 9h 4.5a 4.5 4.5, 0, 0, 0, 0 -9" transform="rotate(-90,185.5,230.5)"/><rect x="199" y="226" width="9" height="9" transform="rotate(0,203.5,230.5)"/><rect x="217" y="226" width="9" height="9" transform="rotate(0,221.5,230.5)"/><rect x="253" y="226" width="9" height="9" transform="rotate(0,257.5,230.5)"/><path d="M 271 226v 9h 4.5a 4.5 4.5, 0, 0, 0, 0 -9" transform="rotate(-90,275.5,230.5)"/><rect x="82" y="235" width="9" height="9" transform="rotate(0,86.5,239.5)"/><path d="M 109 235v 9h 4.5a 4.5 4.5, 0, 0, 0, 0 -9" transform="rotate(180,113.5,239.5)"/><rect x="118" y="235" width="9" height="9" transform="rotate(0,122.5,239.5)"/><path d="M 127 235v 9h 9v -4.5a 4.5 4.5, 0, 0, 0, -4.5 -4.5" transform="rotate(0,131.5,239.5)"/><path d="M 145 235v 9h 9v -4.5a 4.5 4.5, 0, 0, 0, -4.5 -4.5" transform="rotate(-90,149.5,239.5)"/><rect x="154" y="235" width="9" height="9" transform="rotate(0,158.5,239.5)"/><rect x="163" y="235" width="9" height="9" transform="rotate(0,167.5,239.5)"/><rect x="172" y="235" width="9" height="9" transform="rotate(0,176.5,239.5)"/><rect x="181" y="235" width="9" height="9" transform="rotate(0,185.5,239.5)"/><rect x="190" y="235" width="9" height="9" transform="rotate(0,194.5,239.5)"/><rect x="199" y="235" width="9" height="9" transform="rotate(0,203.5,239.5)"/><rect x="208" y="235" width="9" height="9" transform="rotate(0,212.5,239.5)"/><rect x="217" y="235" width="9" height="9" transform="rotate(0,221.5,239.5)"/><circle cx="239.5" cy="239.5" r="4.5" transform="rotate(0,239.5,239.5)"/><rect x="253" y="235" width="9" height="9" transform="rotate(0,257.5,239.5)"/><rect x="271" y="235" width="9" height="9" transform="rotate(0,275.5,239.5)"/><path d="M 73 244v 9h 9v -4.5a 4.5 4.5, 0, 0, 0, -4.5 -4.5" transform="rotate(-90,77.5,248.5)"/><rect x="82" y="244" width="9" height="9" transform="rotate(0,86.5,248.5)"/><path d="M 91 244v 9h 4.5a 4.5 4.5, 0, 0, 0, 0 -9" transform="rotate(0,95.5,248.5)"/><rect x="127" y="244" width="9" height="9" transform="rotate(0,131.5,248.5)"/><rect x="145" y="244" width="9" height="9" transform="rotate(0,149.5,248.5)"/><rect x="154" y="244" width="9" height="9" transform="rotate(0,158.5,248.5)"/><path d="M 172 244v 9h 4.5a 4.5 4.5, 0, 0, 0, 0 -9" transform="rotate(90,176.5,248.5)"/><rect x="208" y="244" width="9" height="9" transform="rotate(0,212.5,248.5)"/><rect x="217" y="244" width="9" height="9" transform="rotate(0,221.5,248.5)"/><rect x="253" y="244" width="9" height="9" transform="rotate(0,257.5,248.5)"/><path d="M 271 244v 9h 9v -4.5a 4.5 4.5, 0, 0, 0, -4.5 -4.5" transform="rotate(180,275.5,248.5)"/><rect x="280" y="244" width="9" height="9" transform="rotate(0,284.5,248.5)"/><path d="M 289 244v 9h 9v -4.5a 4.5 4.5, 0, 0, 0, -4.5 -4.5" transform="rotate(0,293.5,248.5)"/><rect x="73" y="253" width="9" height="9" transform="rotate(0,77.5,257.5)"/><path d="M 82 253v 9h 9v -4.5a 4.5 4.5, 0, 0, 0, -4.5 -4.5" transform="rotate(90,86.5,257.5)"/><path d="M 100 253v 9h 4.5a 4.5 4.5, 0, 0, 0, 0 -9" transform="rotate(-90,104.5,257.5)"/><path d="M 118 253v 9h 4.5a 4.5 4.5, 0, 0, 0, 0 -9" transform="rotate(180,122.5,257.5)"/><rect x="127" y="253" width="9" height="9" transform="rotate(0,131.5,257.5)"/><rect x="136" y="253" width="9" height="9" transform="rotate(0,140.5,257.5)"/><rect x="145" y="253" width="9" height="9" transform="rotate(0,149.5,257.5)"/><rect x="154" y="253" width="9" height="9" transform="rotate(0,158.5,257.5)"/><path d="M 181 253v 9h 9v -4.5a 4.5 4.5, 0, 0, 0, -4.5 -4.5" transform="rotate(-90,185.5,257.5)"/><path d="M 190 253v 9h 9v -4.5a 4.5 4.5, 0, 0, 0, -4.5 -4.5" transform="rotate(0,194.5,257.5)"/><path d="M 208 253v 9h 9v -4.5a 4.5 4.5, 0, 0, 0, -4.5 -4.5" transform="rotate(180,212.5,257.5)"/><rect x="217" y="253" width="9" height="9" transform="rotate(0,221.5,257.5)"/><rect x="226" y="253" width="9" height="9" transform="rotate(0,230.5,257.5)"/><rect x="235" y="253" width="9" height="9" transform="rotate(0,239.5,257.5)"/><rect x="244" y="253" width="9" height="9" transform="rotate(0,248.5,257.5)"/><path d="M 253 253v 9h 9v -4.5a 4.5 4.5, 0, 0, 0, -4.5 -4.5" transform="rotate(90,257.5,257.5)"/><rect x="289" y="253" width="9" height="9" transform="rotate(0,293.5,257.5)"/><path d="M 73 262v 9h 4.5a 4.5 4.5, 0, 0, 0, 0 -9" transform="rotate(90,77.5,266.5)"/><path d="M 100 262v 9h 4.5a 4.5 4.5, 0, 0, 0, 0 -9" transform="rotate(90,104.5,266.5)"/><path d="M 145 262v 9h 9v -4.5a 4.5 4.5, 0, 0, 0, -4.5 -4.5" transform="rotate(180,149.5,266.5)"/><rect x="154" y="262" width="9" height="9" transform="rotate(0,158.5,266.5)"/><path d="M 163 262v 9h 9v -4.5a 4.5 4.5, 0, 0, 0, -4.5 -4.5" transform="rotate(0,167.5,266.5)"/><rect x="181" y="262" width="9" height="9" transform="rotate(0,185.5,266.5)"/><path d="M 190 262v 9h 9v -4.5a 4.5 4.5, 0, 0, 0, -4.5 -4.5" transform="rotate(90,194.5,266.5)"/><rect x="226" y="262" width="9" height="9" transform="rotate(0,230.5,266.5)"/><path d="M 262 262v 9h 4.5a 4.5 4.5, 0, 0, 0, 0 -9" transform="rotate(180,266.5,266.5)"/><path d="M 271 262v 9h 9v -4.5a 4.5 4.5, 0, 0, 0, -4.5 -4.5" transform="rotate(0,275.5,266.5)"/><rect x="289" y="262" width="9" height="9" transform="rotate(0,293.5,266.5)"/><circle cx="86.5" cy="275.5" r="4.5" transform="rotate(0,86.5,275.5)"/><circle cx="113.5" cy="275.5" r="4.5" transform="rotate(0,113.5,275.5)"/><path d="M 127 271v 9h 4.5a 4.5 4.5, 0, 0, 0, 0 -9" transform="rotate(-90,131.5,275.5)"/><path d="M 154 271v 9h 9v -4.5a 4.5 4.5, 0, 0, 0, -4.5 -4.5" transform="rotate(180,158.5,275.5)"/><path d="M 163 271v 9h 9v -4.5a 4.5 4.5, 0, 0, 0, -4.5 -4.5" transform="rotate(90,167.5,275.5)"/><path d="M 181 271v 9h 4.5a 4.5 4.5, 0, 0, 0, 0 -9" transform="rotate(90,185.5,275.5)"/><path d="M 199 271v 9h 4.5a 4.5 4.5, 0, 0, 0, 0 -9" transform="rotate(180,203.5,275.5)"/><rect x="208" y="271" width="9" height="9" transform="rotate(0,212.5,275.5)"/><rect x="217" y="271" width="9" height="9" transform="rotate(0,221.5,275.5)"/><path d="M 226 271v 9h 9v -4.5a 4.5 4.5, 0, 0, 0, -4.5 -4.5" transform="rotate(90,230.5,275.5)"/><path d="M 244 271v 9h 4.5a 4.5 4.5, 0, 0, 0, 0 -9" transform="rotate(180,248.5,275.5)"/><path d="M 253 271v 9h 9v -4.5a 4.5 4.5, 0, 0, 0, -4.5 -4.5" transform="rotate(0,257.5,275.5)"/><rect x="271" y="271" width="9" height="9" transform="rotate(0,275.5,275.5)"/><rect x="280" y="271" width="9" height="9" transform="rotate(0,284.5,275.5)"/><rect x="289" y="271" width="9" height="9" transform="rotate(0,293.5,275.5)"/><circle cx="77.5" cy="284.5" r="4.5" transform="rotate(0,77.5,284.5)"/><circle cx="95.5" cy="284.5" r="4.5" transform="rotate(0,95.5,284.5)"/><path d="M 118 280v 9h 4.5a 4.5 4.5, 0, 0, 0, 0 -9" transform="rotate(180,122.5,284.5)"/><rect x="127" y="280" width="9" height="9" transform="rotate(0,131.5,284.5)"/><path d="M 136 280v 9h 9v -4.5a 4.5 4.5, 0, 0, 0, -4.5 -4.5" transform="rotate(0,140.5,284.5)"/><path d="M 253 280v 9h 9v -4.5a 4.5 4.5, 0, 0, 0, -4.5 -4.5" transform="rotate(180,257.5,284.5)"/><rect x="262" y="280" width="9" height="9" transform="rotate(0,266.5,284.5)"/><rect x="271" y="280" width="9" height="9" transform="rotate(0,275.5,284.5)"/><rect x="280" y="280" width="9" height="9" transform="rotate(0,284.5,284.5)"/><path d="M 289 280v 9h 9v -4.5a 4.5 4.5, 0, 0, 0, -4.5 -4.5" transform="rotate(90,293.5,284.5)"/><circle cx="113.5" cy="293.5" r="4.5" transform="rotate(0,113.5,293.5)"/><path d="M 136 289v 9h 9v -4.5a 4.5 4.5, 0, 0, 0, -4.5 -4.5" transform="rotate(180,140.5,293.5)"/><path d="M 145 289v 9h 4.5a 4.5 4.5, 0, 0, 0, 0 -9" transform="rotate(0,149.5,293.5)"/><circle cx="167.5" cy="293.5" r="4.5" transform="rotate(0,167.5,293.5)"/><circle cx="185.5" cy="293.5" r="4.5" transform="rotate(0,185.5,293.5)"/><path d="M 199 289v 9h 4.5a 4.5 4.5, 0, 0, 0, 0 -9" transform="rotate(180,203.5,293.5)"/><rect x="208" y="289" width="9" height="9" transform="rotate(0,212.5,293.5)"/><path d="M 217 289v 9h 4.5a 4.5 4.5, 0, 0, 0, 0 -9" transform="rotate(0,221.5,293.5)"/><path d="M 235 289v 9h 4.5a 4.5 4.5, 0, 0, 0, 0 -9" transform="rotate(180,239.5,293.5)"/><path d="M 244 289v 9h 4.5a 4.5 4.5, 0, 0, 0, 0 -9" transform="rotate(0,248.5,293.5)"/></clipPath><clipPath id="clip-path-corners-square-color-0-0-0"><path clip-rule="evenodd" d="M 1 23.5v 18a 22.5 22.5, 0, 0, 0, 22.5 22.5h 18a 22.5 22.5, 0, 0, 0, 22.5 -22.5v -18a 22.5 22.5, 0, 0, 0, -22.5 -22.5h -18a 22.5 22.5, 0, 0, 0, -22.5 22.5M 23.5 10h 18a 13.5 13.5, 0, 0, 1, 13.5 13.5v 18a 13.5 13.5, 0, 0, 1, -13.5 13.5h -18a 13.5 13.5, 0, 0, 1, -13.5 -13.5v -18a 13.5 13.5, 0, 0, 1, 13.5 -13.5" transform="rotate(0,32.5,32.5)"/><path d="M 19 19v 9h 9v -4.5a 4.5 4.5, 0, 0, 0, -4.5 -4.5" transform="rotate(-90,23.5,23.5)"/><rect x="28" y="19" width="9" height="9" transform="rotate(0,32.5,23.5)"/><path d="M 37 19v 9h 9v -4.5a 4.5 4.5, 0, 0, 0, -4.5 -4.5" transform="rotate(0,41.5,23.5)"/><rect x="19" y="28" width="9" height="9" transform="rotate(0,23.5,32.5)"/><rect x="28" y="28" width="9" height="9" transform="rotate(0,32.5,32.5)"/><rect x="37" y="28" width="9" height="9" transform="rotate(0,41.5,32.5)"/><path d="M 19 37v 9h 9v -4.5a 4.5 4.5, 0, 0, 0, -4.5 -4.5" transform="rotate(180,23.5,41.5)"/><rect x="28" y="37" width="9" height="9" transform="rotate(0,32.5,41.5)"/><path d="M 37 37v 9h 9v -4.5a 4.5 4.5, 0, 0, 0, -4.5 -4.5" transform="rotate(90,41.5,41.5)"/></clipPath><clipPath id="clip-path-corners-square-color-1-0-0"><path clip-rule="evenodd" d="M 235 23.5v 18a 22.5 22.5, 0, 0, 0, 22.5 22.5h 18a 22.5 22.5, 0, 0, 0, 22.5 -22.5v -18a 22.5 22.5, 0, 0, 0, -22.5 -22.5h -18a 22.5 22.5, 0, 0, 0, -22.5 22.5M 257.5 10h 18a 13.5 13.5, 0, 0, 1, 13.5 13.5v 18a 13.5 13.5, 0, 0, 1, -13.5 13.5h -18a 13.5 13.5, 0, 0, 1, -13.5 -13.5v -18a 13.5 13.5, 0, 0, 1, 13.5 -13.5" transform="rotate(90,266.5,32.5)"/><path d="M 253 19v 9h 9v -4.5a 4.5 4.5, 0, 0, 0, -4.5 -4.5" transform="rotate(-90,257.5,23.5)"/><rect x="262" y="19" width="9" height="9" transform="rotate(0,266.5,23.5)"/><path d="M 271 19v 9h 9v -4.5a 4.5 4.5, 0, 0, 0, -4.5 -4.5" transform="rotate(0,275.5,23.5)"/><rect x="253" y="28" width="9" height="9" transform="rotate(0,257.5,32.5)"/><rect x="262" y="28" width="9" height="9" transform="rotate(0,266.5,32.5)"/><rect x="271" y="28" width="9" height="9" transform="rotate(0,275.5,32.5)"/><path d="M 253 37v 9h 9v -4.5a 4.5 4.5, 0, 0, 0, -4.5 -4.5" transform="rotate(180,257.5,41.5)"/><rect x="262" y="37" width="9" height="9" transform="rotate(0,266.5,41.5)"/><path d="M 271 37v 9h 9v -4.5a 4.5 4.5, 0, 0, 0, -4.5 -4.5" transform="rotate(90,275.5,41.5)"/></clipPath><clipPath id="clip-path-corners-square-color-0-1-0"><path clip-rule="evenodd" d="M 1 257.5v 18a 22.5 22.5, 0, 0, 0, 22.5 22.5h 18a 22.5 22.5, 0, 0, 0, 22.5 -22.5v -18a 22.5 22.5, 0, 0, 0, -22.5 -22.5h -18a 22.5 22.5, 0, 0, 0, -22.5 22.5M 23.5 244h 18a 13.5 13.5, 0, 0, 1, 13.5 13.5v 18a 13.5 13.5, 0, 0, 1, -13.5 13.5h -18a 13.5 13.5, 0, 0, 1, -13.5 -13.5v -18a 13.5 13.5, 0, 0, 1, 13.5 -13.5" transform="rotate(-90,32.5,266.5)"/><path d="M 19 253v 9h 9v -4.5a 4.5 4.5, 0, 0, 0, -4.5 -4.5" transform="rotate(-90,23.5,257.5)"/><rect x="28" y="253" width="9" height="9" transform="rotate(0,32.5,257.5)"/><path d="M 37 253v 9h 9v -4.5a 4.5 4.5, 0, 0, 0, -4.5 -4.5" transform="rotate(0,41.5,257.5)"/><rect x="19" y="262" width="9" height="9" transform="rotate(0,23.5,266.5)"/><rect x="28" y="262" width="9" height="9" transform="rotate(0,32.5,266.5)"/><rect x="37" y="262" width="9" height="9" transform="rotate(0,41.5,266.5)"/><path d="M 19 271v 9h 9v -4.5a 4.5 4.5, 0, 0, 0, -4.5 -4.5" transform="rotate(180,23.5,275.5)"/><rect x="28" y="271" width="9" height="9" transform="rotate(0,32.5,275.5)"/><path d="M 37 271v 9h 9v -4.5a 4.5 4.5, 0, 0, 0, -4.5 -4.5" transform="rotate(90,41.5,275.5)"/></clipPath></defs><rect x="0" y="0" height="300" width="300" clip-path="url('#clip-path-background-color-0')" fill="#ffffffff"/><rect x="0" y="0" height="300" width="300" clip-path="url('#clip-path-dot-color-0')" fill="#046a81ff"/><rect x="1" y="1" height="63" width="63" clip-path="url('#clip-path-corners-square-color-0-0-0')" fill="#087b8dff"/><rect x="235" y="1" height="63" width="63" clip-path="url('#clip-path-corners-square-color-1-0-0')" fill="#087b8dff"/><rect x="1" y="235" height="63" width="63" clip-path="url('#clip-path-corners-square-color-0-1-0')" fill="#087b8dff"/></svg>