<?xml version="1.0" standalone="no"?>
<svg xmlns="http://www.w3.org/2000/svg" width="300" height="300" xmlns:xlink="http://www.w3.org/1999/xlink" viewBox="0 0 300 300"><defs><clipPath id="clip-path-background-color-0"><rect x="0" y="0" width="300" height="300"/></clipPath><clipPath id="clip-path-dot-color-0"><path d="M 66 2v 8h 4a 4 4, 0, 0, 0, 0 -8" transform="rotate(180,70,6)"/><rect x="74" y="2" width="8" height="8" transform="rotate(0,78,6)"/><path d="M 82 2v 8h 8v -4a 4 4, 0, 0, 0, -4 -4" transform="rotate(0,86,6)"/><circle cx="102" cy="6" r="4" transform="rotate(0,102,6)"/><path d="M 114 2v 8h 4a 4 4, 0, 0, 0, 0 -8" transform="rotate(180,118,6)"/><path d="M 122 2v 8h 4a 4 4, 0, 0, 0, 0 -8" transform="rotate(0,126,6)"/><path d="M 138 2v 8h 4a 4 4, 0, 0, 0, 0 -8" transform="rotate(-90,142,6)"/><circle cx="166" cy="6" r="4" transform="rotate(0,166,6)"/><circle cx="182" cy="6" r="4" transform="rotate(0,182,6)"/><circle cx="198" cy="6" r="4" transform="rotate(0,198,6)"/><circle cx="230" cy="6" r="4" transform="rotate(0,230,6)"/><path d="M 74 10v 8h 8v -4a 4 4, 0, 0, 0, -4 -4" transform="rotate(180,78,14)"/><rect x="82" y="10" width="8" height="8" transform="rotate(0,86,14)"/><path d="M 138 10v 8h 4a 4 4, 0, 0, 0, 0 -8" transform="rotate(90,142,14)"/><circle cx="158" cy="14" r="4" transform="rotate(0,158,14)"/><circle cx="206" cy="14" r="4" transform="rotate(0,206,14)"/><circle cx="222" cy="14" r="4" transform="rotate(0,222,14)"/><rect x="82" y="18" width="8" height="8" transform="rotate(0,86,22)"/><path d="M 90 18v 8h 8v -4a 4 4, 0, 0, 0, -4 -4" transform="rotate(0,94,22)"/><circle cx="118" cy="22" r="4" transform="rotate(0,118,22)"/><path d="M 162 18v 8h 8v -4a 4 4, 0, 0, 0, -4 -4" transform="rotate(-90,166,22)"/><rect x="170" y="18" width="8" height="8" transform="rotate(0,174,22)"/><path d="M 178 18v 8h 4a 4 4, 0, 0, 0, 0 -8" transform="rotate(0,182,22)"/><circle cx="198" cy="22" r="4" transform="rotate(0,198,22)"/><circle cx="214" cy="22" r="4" transform="rotate(0,214,22)"/><circle cx="230" cy="22" r="4" transform="rotate(0,230,22)"/><path d="M 74 26v 8h 4a 4 4, 0, 0, 0, 0 -8" transform="rotate(180,78,30)"/><rect x="82" y="26" width="8" height="8" transform="rotate(0,86,30)"/><rect x="90" y="26" width="8" height="8" transform="rotate(0,94,30)"/><rect x="98" y="26" width="8" height="8" transform="rotate(0,102,30)"/><path d="M 106 26v 8h 4a 4 4, 0, 0, 0, 0 -8" transform="rotate(0,110,30)"/><path d="M 122 26v 8h 4a 4 4, 0, 0, 0, 0 -8" transform="rotate(-90,126,30)"/><path d="M 162 26v 8h 4a 4 4, 0, 0, 0, 0 -8" transform="rotate(90,166,30)"/><path d="M 202 26v 8h 4a 4 4, 0, 0, 0, 0 -8" transform="rotate(-90,206,30)"/><path d="M 66 34v 8h 4a 4 4, 0, 0, 0, 0 -8" transform="rotate(-90,70,38)"/><path d="M 82 34v 8h 4a 4 4, 0, 0, 0, 0 -8" transform="rotate(90,86,38)"/><path d="M 114 34v 8h 8v -4a 4 4, 0, 0, 0, -4 -4" transform="rotate(-90,118,38)"/><rect x="122" y="34" width="8" height="8" transform="rotate(0,126,38)"/><path d="M 130 34v 8h 8v -4a 4 4, 0, 0, 0, -4 -4" transform="rotate(0,134,38)"/><path d="M 146 34v 8h 4a 4 4, 0, 0, 0, 0 -8" transform="rotate(-90,150,38)"/><path d="M 178 34v 8h 8v -4a 4 4, 0, 0, 0, -4 -4" transform="rotate(-90,182,38)"/><path d="M 186 34v 8h 4a 4 4, 0, 0, 0, 0 -8" transform="rotate(0,190,38)"/><path d="M 202 34v 8h 4a 4 4, 0, 0, 0, 0 -8" transform="rotate(90,206,38)"/><rect x="66" y="42" width="8" height="8" transform="rotate(0,70,46)"/><path d="M 74 42v 8h 4a 4 4, 0, 0, 0, 0 -8" transform="rotate(0,78,46)"/><path d="M 98 42v 8h 4a 4 4, 0, 0, 0, 0 -8" transform="rotate(-90,102,46)"/><rect x="114" y="42" width="8" height="8" transform="rotate(0,118,46)"/><rect x="130" y="42" width="8" height="8" transform="rotate(0,134,46)"/><rect x="146" y="42" width="8" height="8" transform="rotate(0,150,46)"/><rect x="154" y="42" width="8" height="8" transform="rotate(0,158,46)"/><path d="M 162 42v 8h 8v -4a 4 4, 0, 0, 0, -4 -4" transform="rotate(0,166,46)"/><rect x="178" y="42" width="8" height="8" transform="rotate(0,182,46)"/><path d="M 218 42v 8h 4a 4 4, 0, 0, 0, 0 -8" transform="rotate(180,222,46)"/><path d="M 226 42v 8h 8v -4a 4 4, 0, 0, 0, -4 -4" transform="rotate(0,230,46)"/><path d="M 66 50v 8h 4a 4 4, 0, 0, 0, 0 -8" transform="rotate(90,70,54)"/><path d="M 82 50v 8h 4a 4 4, 0, 0, 0, 0 -8" transform="rotate(-90,86,54)"/><path d="M 98 50v 8h 4a 4 4, 0, 0, 0, 0 -8" transform="rotate(90,102,54)"/><path d="M 114 50v 8h 4a 4 4, 0, 0, 0, 0 -8" transform="rotate(90,118,54)"/><path d="M 130 50v 8h 4a 4 4, 0, 0, 0, 0 -8" transform="rotate(90,134,54)"/><rect x="146" y="50" width="8" height="8" transform="rotate(0,150,54)"/><rect x="162" y="50" width="8" height="8" transform="rotate(0,166,54)"/><path d="M 178 50v 8h 4a 4 4, 0, 0, 0, 0 -8" transform="rotate(90,182,54)"/><circle cx="198" cy="54" r="4" transform="rotate(0,198,54)"/><path d="M 210 50v 8h 4a 4 4, 0, 0, 0, 0 -8" transform="rotate(-90,214,54)"/><rect x="226" y="50" width="8" height="8" transform="rotate(0,230,54)"/><path d="M 74 58v 8h 4a 4 4, 0, 0, 0, 0 -8" transform="rotate(180,78,62)"/><path d="M 82 58v 8h 8v -4a 4 4, 0, 0, 0, -4 -4" transform="rotate(90,86,62)"/><path d="M 138 58v 8h 4a 4 4, 0, 0, 0, 0 -8" transform="rotate(180,142,62)"/><rect x="146" y="58" width="8" height="8" transform="rotate(0,150,62)"/><path d="M 162 58v 8h 8v -4a 4 4, 0, 0, 0, -4 -4" transform="rotate(180,166,62)"/><path d="M 170 58v 8h 4a 4 4, 0, 0, 0, 0 -8" transform="rotate(0,174,62)"/><path d="M 186 58v 8h 4a 4 4, 0, 0, 0, 0 -8" transform="rotate(-90,190,62)"/><path d="M 210 58v 8h 4a 4 4, 0, 0, 0, 0 -8" transform="rotate(90,214,62)"/><path d="M 226 58v 8h 4a 4 4, 0, 0, 0, 0 -8" transform="rotate(90,230,62)"/><path d="M 10 66v 8h 4a 4 4, 0, 0, 0, 0 -8" transform="rotate(180,14,70)"/><rect x="18" y="66" width="8" height="8" transform="rotate(0,22,70)"/><rect x="26" y="66" width="8" height="8" transform="rotate(0,30,70)"/><rect x="34" y="66" width="8" height="8" transform="rotate(0,38,70)"/><rect x="42" y="66" width="8" height="8" transform="rotate(0,46,70)"/><rect x="50" y="66" width="8" height="8" transform="rotate(0,54,70)"/><path d="M 58 66v 8h 8v -4a 4 4, 0, 0, 0, -4 -4" transform="rotate(0,62,70)"/><path d="M 90 66v 8h 8v -4a 4 4, 0, 0, 0, -4 -4" transform="rotate(-90,94,70)"/><rect x="98" y="66" width="8" height="8" transform="rotate(0,102,70)"/><path d="M 106 66v 8h 4a 4 4, 0, 0, 0, 0 -8" transform="rotate(0,110,70)"/><path d="M 146 66v 8h 4a 4 4, 0, 0, 0, 0 -8" transform="rotate(90,150,70)"/><path d="M 178 66v 8h 4a 4 4, 0, 0, 0, 0 -8" transform="rotate(180,182,70)"/><rect x="186" y="66" width="8" height="8" transform="rotate(0,190,70)"/><rect x="194" y="66" width="8" height="8" transform="rotate(0,198,70)"/><path d="M 202 66v 8h 8v -4a 4 4, 0, 0, 0, -4 -4" transform="rotate(0,206,70)"/><path d="M 250 66v 8h 8v -4a 4 4, 0, 0, 0, -4 -4" transform="rotate(-90,254,70)"/><path d="M 258 66v 8h 4a 4 4, 0, 0, 0, 0 -8" transform="rotate(0,262,70)"/><circle cx="294" cy="70" r="4" transform="rotate(0,294,70)"/><path d="M 2 74v 8h 4a 4 4, 0, 0, 0, 0 -8" transform="rotate(-90,6,78)"/><rect x="18" y="74" width="8" height="8" transform="rotate(0,22,78)"/><rect x="42" y="74" width="8" height="8" transform="rotate(0,46,78)"/><path d="M 58 74v 8h 8v -4a 4 4, 0, 0, 0, -4 -4" transform="rotate(180,62,78)"/><rect x="66" y="74" width="8" height="8" transform="rotate(0,70,78)"/><rect x="74" y="74" width="8" height="8" transform="rotate(0,78,78)"/><rect x="82" y="74" width="8" height="8" transform="rotate(0,86,78)"/><rect x="90" y="74" width="8" height="8" transform="rotate(0,94,78)"/><path d="M 98 74v 8h 8v -4a 4 4, 0, 0, 0, -4 -4" transform="rotate(90,102,78)"/><path d="M 114 74v 8h 4a 4 4, 0, 0, 0, 0 -8" transform="rotate(-90,118,78)"/><circle cx="142" cy="78" r="4" transform="rotate(0,142,78)"/><path d="M 170 74v 8h 4a 4 4, 0, 0, 0, 0 -8" transform="rotate(-90,174,78)"/><path d="M 186 74v 8h 8v -4a 4 4, 0, 0, 0, -4 -4" transform="rotate(180,190,78)"/><rect x="194" y="74" width="8" height="8" transform="rotate(0,198,78)"/><rect x="202" y="74" width="8" height="8" transform="rotate(0,206,78)"/><path d="M 210 74v 8h 8v -4a 4 4, 0, 0, 0, -4 -4" transform="rotate(0,214,78)"/><path d="M 226 74v 8h 4a 4 4, 0, 0, 0, 0 -8" transform="rotate(180,230,78)"/><path d="M 234 74v 8h 4a 4 4, 0, 0, 0, 0 -8" transform="rotate(0,238,78)"/><rect x="250" y="74" width="8" height="8" transform="rotate(0,254,78)"/><circle cx="270" cy="78" r="4" transform="rotate(0,270,78)"/><path d="M 282 74v 8h 4a 4 4, 0, 0, 0, 0 -8" transform="rotate(-90,286,78)"/><path d="M 2 82v 8h 8v -4a 4 4, 0, 0, 0, -4 -4" transform="rotate(180,6,86)"/><rect x="10" y="82" width="8" height="8" transform="rotate(0,14,86)"/><path d="M 18 82v 8h 8v -4a 4 4, 0, 0, 0, -4 -4" transform="rotate(90,22,86)"/><rect x="42" y="82" width="8" height="8" transform="rotate(0,46,86)"/><path d="M 50 82v 8h 4a 4 4, 0, 0, 0, 0 -8" transform="rotate(0,54,86)"/><rect x="114" y="82" width="8" height="8" transform="rotate(0,118,86)"/><circle cx="134" cy="86" r="4" transform="rotate(0,134,86)"/><path d="M 146 82v 8h 4a 4 4, 0, 0, 0, 0 -8" transform="rotate(180,150,86)"/><path d="M 154 82v 8h 4a 4 4, 0, 0, 0, 0 -8" transform="rotate(0,158,86)"/><rect x="170" y="82" width="8" height="8" transform="rotate(0,174,86)"/><path d="M 202 82v 8h 8v -4a 4 4, 0, 0, 0, -4 -4" transform="rotate(180,206,86)"/><rect x="210" y="82" width="8" height="8" transform="rotate(0,214,86)"/><path d="M 218 82v 8h 4a 4 4, 0, 0, 0, 0 -8" transform="rotate(0,222,86)"/><path d="M 242 82v 8h 8v -4a 4 4, 0, 0, 0, -4 -4" transform="rotate(-90,246,86)"/><rect x="250" y="82" width="8" height="8" transform="rotate(0,254,86)"/><path d="M 258 82v 8h 8v -4a 4 4, 0, 0, 0, -4 -4" transform="rotate(0,262,86)"/><path d="M 274 82v 8h 4a 4 4, 0, 0, 0, 0 -8" transform="rotate(180,278,86)"/><rect x="282" y="82" width="8" height="8" transform="rotate(0,286,86)"/><path d="M 290 82v 8h 4a 4 4, 0, 0, 0, 0 -8" transform="rotate(0,294,86)"/><rect x="42" y="90" width="8" height="8" transform="rotate(0,46,94)"/><path d="M 58 90v 8h 8v -4a 4 4, 0, 0, 0, -4 -4" transform="rotate(-90,62,94)"/><path d="M 66 90v 8h 4a 4 4, 0, 0, 0, 0 -8" transform="rotate(0,70,94)"/><path d="M 114 90v 8h 8v -4a 4 4, 0, 0, 0, -4 -4" transform="rotate(180,118,94)"/><path d="M 122 90v 8h 4a 4 4, 0, 0, 0, 0 -8" transform="rotate(0,126,94)"/><path d="M 162 90v 8h 4a 4 4, 0, 0, 0, 0 -8" transform="rotate(180,166,94)"/><rect x="170" y="90" width="8" height="8" transform="rotate(0,174,94)"/><path d="M 178 90v 8h 8v -4a 4 4, 0, 0, 0, -4 -4" transform="rotate(0,182,94)"/><path d="M 194 90v 8h 4a 4 4, 0, 0, 0, 0 -8" transform="rotate(-90,198,94)"/><rect x="210" y="90" width="8" height="8" transform="rotate(0,214,94)"/><path d="M 226 90v 8h 4a 4 4, 0, 0, 0, 0 -8" transform="rotate(-90,230,94)"/><rect x="242" y="90" width="8" height="8" transform="rotate(0,246,94)"/><rect x="250" y="90" width="8" height="8" transform="rotate(0,254,94)"/><rect x="258" y="90" width="8" height="8" transform="rotate(0,262,94)"/><path d="M 2 98v 8h 4a 4 4, 0, 0, 0, 0 -8" transform="rotate(180,6,102)"/><path d="M 10 98v 8h 8v -4a 4 4, 0, 0, 0, -4 -4" transform="rotate(0,14,102)"/><path d="M 26 98v 8h 4a 4 4, 0, 0, 0, 0 -8" transform="rotate(180,30,102)"/><rect x="34" y="98" width="8" height="8" transform="rotate(0,38,102)"/><rect x="42" y="98" width="8" height="8" transform="rotate(0,46,102)"/><rect x="50" y="98" width="8" height="8" transform="rotate(0,54,102)"/><path d="M 58 98v 8h 8v -4a 4 4, 0, 0, 0, -4 -4" transform="rotate(90,62,102)"/><path d="M 74 98v 8h 8v -4a 4 4, 0, 0, 0, -4 -4" transform="rotate(-90,78,102)"/><path d="M 82 98v 8h 8v -4a 4 4, 0, 0, 0, -4 -4" transform="rotate(0,86,102)"/><path d="M 98 98v 8h 4a 4 4, 0, 0, 0, 0 -8" transform="rotate(180,102,102)"/><path d="M 106 98v 8h 8v -4a 4 4, 0, 0, 0, -4 -4" transform="rotate(0,110,102)"/><path d="M 130 98v 8h 4a 4 4, 0, 0, 0, 0 -8" transform="rotate(180,134,102)"/><rect x="138" y="98" width="8" height="8" transform="rotate(0,142,102)"/><path d="M 146 98v 8h 4a 4 4, 0, 0, 0, 0 -8" transform="rotate(0,150,102)"/><rect x="178" y="98" width="8" height="8" transform="rotate(0,182,102)"/><path d="M 194 98v 8h 8v -4a 4 4, 0, 0, 0, -4 -4" transform="rotate(180,198,102)"/><rect x="202" y="98" width="8" height="8" transform="rotate(0,206,102)"/><path d="M 210 98v 8h 8v -4a 4 4, 0, 0, 0, -4 -4" transform="rotate(90,214,102)"/><rect x="226" y="98" width="8" height="8" transform="rotate(0,230,102)"/><rect x="234" y="98" width="8" height="8" transform="rotate(0,238,102)"/><path d="M 242 98v 8h 8v -4a 4 4, 0, 0, 0, -4 -4" transform="rotate(90,246,102)"/><path d="M 258 98v 8h 8v -4a 4 4, 0, 0, 0, -4 -4" transform="rotate(180,262,102)"/><rect x="266" y="98" width="8" height="8" transform="rotate(0,270,102)"/><rect x="274" y="98" width="8" height="8" transform="rotate(0,278,102)"/><rect x="282" y="98" width="8" height="8" transform="rotate(0,286,102)"/><path d="M 290 98v 8h 4a 4 4, 0, 0, 0, 0 -8" transform="rotate(0,294,102)"/><rect x="10" y="106" width="8" height="8" transform="rotate(0,14,110)"/><rect x="34" y="106" width="8" height="8" transform="rotate(0,38,110)"/><rect x="42" y="106" width="8" height="8" transform="rotate(0,46,110)"/><path d="M 66 106v 8h 4a 4 4, 0, 0, 0, 0 -8" transform="rotate(180,70,110)"/><rect x="74" y="106" width="8" height="8" transform="rotate(0,78,110)"/><rect x="82" y="106" width="8" height="8" transform="rotate(0,86,110)"/><path d="M 90 106v 8h 8v -4a 4 4, 0, 0, 0, -4 -4" transform="rotate(0,94,110)"/><rect x="106" y="106" width="8" height="8" transform="rotate(0,110,110)"/><circle cx="126" cy="110" r="4" transform="rotate(0,126,110)"/><rect x="138" y="106" width="8" height="8" transform="rotate(0,142,110)"/><path d="M 162 106v 8h 4a 4 4, 0, 0, 0, 0 -8" transform="rotate(-90,166,110)"/><rect x="178" y="106" width="8" height="8" transform="rotate(0,182,110)"/><path d="M 186 106v 8h 4a 4 4, 0, 0, 0, 0 -8" transform="rotate(0,190,110)"/><path d="M 202 106v 8h 4a 4 4, 0, 0, 0, 0 -8" transform="rotate(90,206,110)"/><path d="M 226 106v 8h 8v -4a 4 4, 0, 0, 0, -4 -4" transform="rotate(180,230,110)"/><path d="M 234 106v 8h 8v -4a 4 4, 0, 0, 0, -4 -4" transform="rotate(90,238,110)"/><circle cx="254" cy="110" r="4" transform="rotate(0,254,110)"/><rect x="266" y="106" width="8" height="8" transform="rotate(0,270,110)"/><rect x="274" y="106" width="8" height="8" transform="rotate(0,278,110)"/><path d="M 282 106v 8h 8v -4a 4 4, 0, 0, 0, -4 -4" transform="rotate(90,286,110)"/><rect x="10" y="114" width="8" height="8" transform="rotate(0,14,118)"/><path d="M 34 114v 8h 8v -4a 4 4, 0, 0, 0, -4 -4" transform="rotate(180,38,118)"/><rect x="42" y="114" width="8" height="8" transform="rotate(0,46,118)"/><rect x="50" y="114" width="8" height="8" transform="rotate(0,54,118)"/><path d="M 58 114v 8h 4a 4 4, 0, 0, 0, 0 -8" transform="rotate(0,62,118)"/><rect x="90" y="114" width="8" height="8" transform="rotate(0,94,118)"/><rect x="98" y="114" width="8" height="8" transform="rotate(0,102,118)"/><rect x="106" y="114" width="8" height="8" transform="rotate(0,110,118)"/><path d="M 114 114v 8h 8v -4a 4 4, 0, 0, 0, -4 -4" transform="rotate(0,118,118)"/><path d="M 138 114v 8h 8v -4a 4 4, 0, 0, 0, -4 -4" transform="rotate(180,142,118)"/><rect x="146" y="114" width="8" height="8" transform="rotate(0,150,118)"/><rect x="154" y="114" width="8" height="8" transform="rotate(0,158,118)"/><path d="M 162 114v 8h 8v -4a 4 4, 0, 0, 0, -4 -4" transform="rotate(90,166,118)"/><path d="M 178 114v 8h 4a 4 4, 0, 0, 0, 0 -8" transform="rotate(90,182,118)"/><path d="M 218 114v 8h 4a 4 4, 0, 0, 0, 0 -8" transform="rotate(-90,222,118)"/><path d="M 242 114v 8h 4a 4 4, 0, 0, 0, 0 -8" transform="rotate(-90,246,118)"/><path d="M 258 114v 8h 8v -4a 4 4, 0, 0, 0, -4 -4" transform="rotate(-90,262,118)"/><path d="M 266 114v 8h 8v -4a 4 4, 0, 0, 0, -4 -4" transform="rotate(90,270,118)"/><path d="M 290 114v 8h 4a 4 4, 0, 0, 0, 0 -8" transform="rotate(-90,294,118)"/><path d="M 2 122v 8h 4a 4 4, 0, 0, 0, 0 -8" transform="rotate(180,6,126)"/><rect x="10" y="122" width="8" height="8" transform="rotate(0,14,126)"/><rect x="18" y="122" width="8" height="8" transform="rotate(0,22,126)"/><path d="M 26 122v 8h 4a 4 4, 0, 0, 0, 0 -8" transform="rotate(0,30,126)"/><path d="M 82 122v 8h 8v -4a 4 4, 0, 0, 0, -4 -4" transform="rotate(-90,86,126)"/><rect x="90" y="122" width="8" height="8" transform="rotate(0,94,126)"/><rect x="106" y="122" width="8" height="8" transform="rotate(0,110,126)"/><rect x="114" y="122" width="8" height="8" transform="rotate(0,118,126)"/><circle cx="134" cy="126" r="4" transform="rotate(0,134,126)"/><path d="M 146 122v 8h 8v -4a 4 4, 0, 0, 0, -4 -4" transform="rotate(180,150,126)"/><path d="M 154 122v 8h 8v -4a 4 4, 0, 0, 0, -4 -4" transform="rotate(90,158,126)"/><path d="M 186 122v 8h 4a 4 4, 0, 0, 0, 0 -8" transform="rotate(180,190,126)"/><path d="M 194 122v 8h 8v -4a 4 4, 0, 0, 0, -4 -4" transform="rotate(0,198,126)"/><path d="M 210 122v 8h 8v -4a 4 4, 0, 0, 0, -4 -4" transform="rotate(-90,214,126)"/><rect x="218" y="122" width="8" height="8" transform="rotate(0,222,126)"/><rect x="226" y="122" width="8" height="8" transform="rotate(0,230,126)"/><rect x="234" y="122" width="8" height="8" transform="rotate(0,238,126)"/><rect x="242" y="122" width="8" height="8" transform="rotate(0,246,126)"/><rect x="250" y="122" width="8" height="8" transform="rotate(0,254,126)"/><rect x="258" y="122" width="8" height="8" transform="rotate(0,262,126)"/><path d="M 290 122v 8h 4a 4 4, 0, 0, 0, 0 -8" transform="rotate(90,294,126)"/><path d="M 18 130v 8h 4a 4 4, 0, 0, 0, 0 -8" transform="rotate(90,22,134)"/><path d="M 34 130v 8h 4a 4 4, 0, 0, 0, 0 -8" transform="rotate(180,38,134)"/><rect x="42" y="130" width="8" height="8" transform="rotate(0,46,134)"/><rect x="50" y="130" width="8" height="8" transform="rotate(0,54,134)"/><rect x="58" y="130" width="8" height="8" transform="rotate(0,62,134)"/><path d="M 66 130v 8h 4a 4 4, 0, 0, 0, 0 -8" transform="rotate(0,70,134)"/><path d="M 82 130v 8h 8v -4a 4 4, 0, 0, 0, -4 -4" transform="rotate(180,86,134)"/><rect x="90" y="130" width="8" height="8" transform="rotate(0,94,134)"/><rect x="106" y="130" width="8" height="8" transform="rotate(0,110,134)"/><path d="M 114 130v 8h 8v -4a 4 4, 0, 0, 0, -4 -4" transform="rotate(90,118,134)"/><path d="M 138 130v 8h 4a 4 4, 0, 0, 0, 0 -8" transform="rotate(-90,142,134)"/><path d="M 162 130v 8h 4a 4 4, 0, 0, 0, 0 -8" transform="rotate(180,166,134)"/><rect x="170" y="130" width="8" height="8" transform="rotate(0,174,134)"/><path d="M 178 130v 8h 4a 4 4, 0, 0, 0, 0 -8" transform="rotate(0,182,134)"/><path d="M 194 130v 8h 8v -4a 4 4, 0, 0, 0, -4 -4" transform="rotate(180,198,134)"/><rect x="202" y="130" width="8" height="8" transform="rotate(0,206,134)"/><path d="M 210 130v 8h 8v -4a 4 4, 0, 0, 0, -4 -4" transform="rotate(90,214,134)"/><path d="M 242 130v 8h 8v -4a 4 4, 0, 0, 0, -4 -4" transform="rotate(180,246,134)"/><rect x="250" y="130" width="8" height="8" transform="rotate(0,254,134)"/><path d="M 258 130v 8h 8v -4a 4 4, 0, 0, 0, -4 -4" transform="rotate(90,262,134)"/><path d="M 274 130v 8h 4a 4 4, 0, 0, 0, 0 -8" transform="rotate(-90,278,134)"/><circle cx="30" cy="142" r="4" transform="rotate(0,30,142)"/><path d="M 58 138v 8h 4a 4 4, 0, 0, 0, 0 -8" transform="rotate(90,62,142)"/><circle cx="78" cy="142" r="4" transform="rotate(0,78,142)"/><rect x="90" y="138" width="8" height="8" transform="rotate(0,94,142)"/><rect x="106" y="138" width="8" height="8" transform="rotate(0,110,142)"/><path d="M 130 138v 8h 4a 4 4, 0, 0, 0, 0 -8" transform="rotate(180,134,142)"/><rect x="138" y="138" width="8" height="8" transform="rotate(0,142,142)"/><path d="M 146 138v 8h 4a 4 4, 0, 0, 0, 0 -8" transform="rotate(0,150,142)"/><path d="M 170 138v 8h 4a 4 4, 0, 0, 0, 0 -8" transform="rotate(90,174,142)"/><rect x="202" y="138" width="8" height="8" transform="rotate(0,206,142)"/><path d="M 234 138v 8h 4a 4 4, 0, 0, 0, 0 -8" transform="rotate(-90,238,142)"/><path d="M 266 138v 8h 8v -4a 4 4, 0, 0, 0, -4 -4" transform="rotate(-90,270,142)"/><path d="M 274 138v 8h 8v -4a 4 4, 0, 0, 0, -4 -4" transform="rotate(90,278,142)"/><circle cx="6" cy="150" r="4" transform="rotate(0,6,150)"/><path d="M 18 146v 8h 4a 4 4, 0, 0, 0, 0 -8" transform="rotate(-90,22,150)"/><circle cx="38" cy="150" r="4" transform="rotate(0,38,150)"/><circle cx="54" cy="150" r="4" transform="rotate(0,54,150)"/><circle cx="70" cy="150" r="4" transform="rotate(0,70,150)"/><rect x="90" y="146" width="8" height="8" transform="rotate(0,94,150)"/><rect x="98" y="146" width="8" height="8" transform="rotate(0,102,150)"/><rect x="106" y="146" width="8" height="8" transform="rotate(0,110,150)"/><circle cx="126" cy="150" r="4" transform="rotate(0,126,150)"/><rect x="138" y="146" width="8" height="8" transform="rotate(0,142,150)"/><circle cx="158" cy="150" r="4" transform="rotate(0,158,150)"/><path d="M 186 146v 8h 8v -4a 4 4, 0, 0, 0, -4 -4" transform="rotate(-90,190,150)"/><rect x="194" y="146" width="8" height="8" transform="rotate(0,198,150)"/><rect x="202" y="146" width="8" height="8" transform="rotate(0,206,150)"/><rect x="210" y="146" width="8" height="8" transform="rotate(0,214,150)"/><path d="M 218 146v 8h 8v -4a 4 4, 0, 0, 0, -4 -4" transform="rotate(0,222,150)"/><path d="M 234 146v 8h 4a 4 4, 0, 0, 0, 0 -8" transform="rotate(90,238,150)"/><path d="M 250 146v 8h 8v -4a 4 4, 0, 0, 0, -4 -4" transform="rotate(-90,254,150)"/><rect x="258" y="146" width="8" height="8" transform="rotate(0,262,150)"/><rect x="266" y="146" width="8" height="8" transform="rotate(0,270,150)"/><path d="M 282 146v 8h 8v -4a 4 4, 0, 0, 0, -4 -4" transform="rotate(-90,286,150)"/><path d="M 290 146v 8h 4a 4 4, 0, 0, 0, 0 -8" transform="rotate(0,294,150)"/><rect x="18" y="154" width="8" height="8" transform="rotate(0,22,158)"/><circle cx="46" cy="158" r="4" transform="rotate(0,46,158)"/><path d="M 82 154v 8h 8v -4a 4 4, 0, 0, 0, -4 -4" transform="rotate(-90,86,158)"/><path d="M 90 154v 8h 8v -4a 4 4, 0, 0, 0, -4 -4" transform="rotate(90,94,158)"/><rect x="106" y="154" width="8" height="8" transform="rotate(0,110,158)"/><path d="M 130 154v 8h 4a 4 4, 0, 0, 0, 0 -8" transform="rotate(180,134,158)"/><rect x="138" y="154" width="8" height="8" transform="rotate(0,142,158)"/><path d="M 146 154v 8h 8v -4a 4 4, 0, 0, 0, -4 -4" transform="rotate(0,150,158)"/><path d="M 162 154v 8h 4a 4 4, 0, 0, 0, 0 -8" transform="rotate(180,166,158)"/><path d="M 170 154v 8h 4a 4 4, 0, 0, 0, 0 -8" transform="rotate(0,174,158)"/><rect x="186" y="154" width="8" height="8" transform="rotate(0,190,158)"/><rect x="218" y="154" width="8" height="8" transform="rotate(0,222,158)"/><rect x="250" y="154" width="8" height="8" transform="rotate(0,254,158)"/><rect x="266" y="154" width="8" height="8" transform="rotate(0,270,158)"/><rect x="282" y="154" width="8" height="8" transform="rotate(0,286,158)"/><path d="M 2 162v 8h 8v -4a 4 4, 0, 0, 0, -4 -4" transform="rotate(-90,6,166)"/><rect x="10" y="162" width="8" height="8" transform="rotate(0,14,166)"/><rect x="18" y="162" width="8" height="8" transform="rotate(0,22,166)"/><rect x="26" y="162" width="8" height="8" transform="rotate(0,30,166)"/><path d="M 34 162v 8h 4a 4 4, 0, 0, 0, 0 -8" transform="rotate(0,38,166)"/><circle cx="54" cy="166" r="4" transform="rotate(0,54,166)"/><path d="M 82 162v 8h 4a 4 4, 0, 0, 0, 0 -8" transform="rotate(90,86,166)"/><path d="M 106 162v 8h 4a 4 4, 0, 0, 0, 0 -8" transform="rotate(90,110,166)"/><rect x="146" y="162" width="8" height="8" transform="rotate(0,150,166)"/><path d="M 154 162v 8h 4a 4 4, 0, 0, 0, 0 -8" transform="rotate(0,158,166)"/><path d="M 178 162v 8h 8v -4a 4 4, 0, 0, 0, -4 -4" transform="rotate(-90,182,166)"/><rect x="186" y="162" width="8" height="8" transform="rotate(0,190,166)"/><rect x="194" y="162" width="8" height="8" transform="rotate(0,198,166)"/><rect x="202" y="162" width="8" height="8" transform="rotate(0,206,166)"/><rect x="210" y="162" width="8" height="8" transform="rotate(0,214,166)"/><path d="M 218 162v 8h 8v -4a 4 4, 0, 0, 0, -4 -4" transform="rotate(90,222,166)"/><path d="M 234 162v 8h 4a 4 4, 0, 0, 0, 0 -8" transform="rotate(180,238,166)"/><rect x="242" y="162" width="8" height="8" transform="rotate(0,246,166)"/><rect x="250" y="162" width="8" height="8" transform="rotate(0,254,166)"/><rect x="258" y="162" width="8" height="8" transform="rotate(0,262,166)"/><rect x="266" y="162" width="8" height="8" transform="rotate(0,270,166)"/><rect x="274" y="162" width="8" height="8" transform="rotate(0,278,166)"/><rect x="282" y="162" width="8" height="8" transform="rotate(0,286,166)"/><path d="M 290 162v 8h 4a 4 4, 0, 0, 0, 0 -8" transform="rotate(0,294,166)"/><rect x="2" y="170" width="8" height="8" transform="rotate(0,6,174)"/><rect x="18" y="170" width="8" height="8" transform="rotate(0,22,174)"/><path d="M 42 170v 8h 4a 4 4, 0, 0, 0, 0 -8" transform="rotate(-90,46,174)"/><path d="M 58 170v 8h 8v -4a 4 4, 0, 0, 0, -4 -4" transform="rotate(-90,62,174)"/><path d="M 66 170v 8h 4a 4 4, 0, 0, 0, 0 -8" transform="rotate(0,70,174)"/><circle cx="94" cy="174" r="4" transform="rotate(0,94,174)"/><circle cx="118" cy="174" r="4" transform="rotate(0,118,174)"/><path d="M 130 170v 8h 8v -4a 4 4, 0, 0, 0, -4 -4" transform="rotate(-90,134,174)"/><rect x="138" y="170" width="8" height="8" transform="rotate(0,142,174)"/><path d="M 146 170v 8h 8v -4a 4 4, 0, 0, 0, -4 -4" transform="rotate(90,150,174)"/><path d="M 162 170v 8h 4a 4 4, 0, 0, 0, 0 -8" transform="rotate(180,166,174)"/><rect x="170" y="170" width="8" height="8" transform="rotate(0,174,174)"/><rect x="178" y="170" width="8" height="8" transform="rotate(0,182,174)"/><rect x="186" y="170" width="8" height="8" transform="rotate(0,190,174)"/><path d="M 194 170v 8h 8v -4a 4 4, 0, 0, 0, -4 -4" transform="rotate(90,198,174)"/><path d="M 250 170v 8h 4a 4 4, 0, 0, 0, 0 -8" transform="rotate(90,254,174)"/><rect x="2" y="178" width="8" height="8" transform="rotate(0,6,182)"/><rect x="18" y="178" width="8" height="8" transform="rotate(0,22,182)"/><rect x="26" y="178" width="8" height="8" transform="rotate(0,30,182)"/><rect x="34" y="178" width="8" height="8" transform="rotate(0,38,182)"/><rect x="42" y="178" width="8" height="8" transform="rotate(0,46,182)"/><rect x="50" y="178" width="8" height="8" transform="rotate(0,54,182)"/><path d="M 58 178v 8h 8v -4a 4 4, 0, 0, 0, -4 -4" transform="rotate(90,62,182)"/><circle cx="78" cy="182" r="4" transform="rotate(0,78,182)"/><path d="M 98 178v 8h 4a 4 4, 0, 0, 0, 0 -8" transform="rotate(180,102,182)"/><path d="M 106 178v 8h 4a 4 4, 0, 0, 0, 0 -8" transform="rotate(0,110,182)"/><path d="M 122 178v 8h 8v -4a 4 4, 0, 0, 0, -4 -4" transform="rotate(-90,126,182)"/><path d="M 130 178v 8h 8v -4a 4 4, 0, 0, 0, -4 -4" transform="rotate(90,134,182)"/><rect x="170" y="178" width="8" height="8" transform="rotate(0,174,182)"/><path d="M 178 178v 8h 8v -4a 4 4, 0, 0, 0, -4 -4" transform="rotate(90,182,182)"/><path d="M 210 178v 8h 4a 4 4, 0, 0, 0, 0 -8" transform="rotate(180,214,182)"/><path d="M 218 178v 8h 4a 4 4, 0, 0, 0, 0 -8" transform="rotate(0,222,182)"/><path d="M 242 178v 8h 4a 4 4, 0, 0, 0, 0 -8" transform="rotate(-90,246,182)"/><circle cx="270" cy="182" r="4" transform="rotate(0,270,182)"/><path d="M 282 178v 8h 8v -4a 4 4, 0, 0, 0, -4 -4" transform="rotate(-90,286,182)"/><path d="M 290 178v 8h 4a 4 4, 0, 0, 0, 0 -8" transform="rotate(0,294,182)"/><rect x="2" y="186" width="8" height="8" transform="rotate(0,6,190)"/><rect x="18" y="186" width="8" height="8" transform="rotate(0,22,190)"/><circle cx="94" cy="190" r="4" transform="rotate(0,94,190)"/><rect x="122" y="186" width="8" height="8" transform="rotate(0,126,190)"/><path d="M 170 186v 8h 4a 4 4, 0, 0, 0, 0 -8" transform="rotate(90,174,190)"/><path d="M 186 186v 8h 4a 4 4, 0, 0, 0, 0 -8" transform="rotate(180,190,190)"/><path d="M 194 186v 8h 4a 4 4, 0, 0, 0, 0 -8" transform="rotate(0,198,190)"/><path d="M 234 186v 8h 8v -4a 4 4, 0, 0, 0, -4 -4" transform="rotate(-90,238,190)"/><rect x="242" y="186" width="8" height="8" transform="rotate(0,246,190)"/><path d="M 250 186v 8h 4a 4 4, 0, 0, 0, 0 -8" transform="rotate(0,254,190)"/><path d="M 282 186v 8h 4a 4 4, 0, 0, 0, 0 -8" transform="rotate(90,286,190)"/><rect x="2" y="194" width="8" height="8" transform="rotate(0,6,198)"/><rect x="10" y="194" width="8" height="8" transform="rotate(0,14,198)"/><path d="M 18 194v 8h 8v -4a 4 4, 0, 0, 0, -4 -4" transform="rotate(90,22,198)"/><circle cx="38" cy="198" r="4" transform="rotate(0,38,198)"/><circle cx="54" cy="198" r="4" transform="rotate(0,54,198)"/><circle cx="78" cy="198" r="4" transform="rotate(0,78,198)"/><path d="M 98 194v 8h 4a 4 4, 0, 0, 0, 0 -8" transform="rotate(-90,102,198)"/><path d="M 122 194v 8h 4a 4 4, 0, 0, 0, 0 -8" transform="rotate(90,126,198)"/><path d="M 138 194v 8h 4a 4 4, 0, 0, 0, 0 -8" transform="rotate(180,142,198)"/><path d="M 146 194v 8h 8v -4a 4 4, 0, 0, 0, -4 -4" transform="rotate(0,150,198)"/><path d="M 162 194v 8h 4a 4 4, 0, 0, 0, 0 -8" transform="rotate(-90,166,198)"/><circle cx="182" cy="198" r="4" transform="rotate(0,182,198)"/><circle cx="214" cy="198" r="4" transform="rotate(0,214,198)"/><path d="M 234 194v 8h 8v -4a 4 4, 0, 0, 0, -4 -4" transform="rotate(180,238,198)"/><path d="M 242 194v 8h 8v -4a 4 4, 0, 0, 0, -4 -4" transform="rotate(90,246,198)"/><circle cx="262" cy="198" r="4" transform="rotate(0,262,198)"/><circle cx="278" cy="198" r="4" transform="rotate(0,278,198)"/><circle cx="294" cy="198" r="4" transform="rotate(0,294,198)"/><rect x="2" y="202" width="8" height="8" transform="rotate(0,6,206)"/><path d="M 10 202v 8h 8v -4a 4 4, 0, 0, 0, -4 -4" transform="rotate(90,14,206)"/><circle cx="30" cy="206" r="4" transform="rotate(0,30,206)"/><path d="M 42 202v 8h 4a 4 4, 0, 0, 0, 0 -8" transform="rotate(-90,46,206)"/><circle cx="62" cy="206" r="4" transform="rotate(0,62,206)"/><path d="M 98 202v 8h 8v -4a 4 4, 0, 0, 0, -4 -4" transform="rotate(180,102,206)"/><path d="M 106 202v 8h 4a 4 4, 0, 0, 0, 0 -8" transform="rotate(0,110,206)"/><path d="M 130 202v 8h 4a 4 4, 0, 0, 0, 0 -8" transform="rotate(-90,134,206)"/><path d="M 146 202v 8h 8v -4a 4 4, 0, 0, 0, -4 -4" transform="rotate(180,150,206)"/><rect x="154" y="202" width="8" height="8" transform="rotate(0,158,206)"/><rect x="162" y="202" width="8" height="8" transform="rotate(0,166,206)"/><path d="M 170 202v 8h 4a 4 4, 0, 0, 0, 0 -8" transform="rotate(0,174,206)"/><path d="M 186 202v 8h 4a 4 4, 0, 0, 0, 0 -8" transform="rotate(180,190,206)"/><path d="M 194 202v 8h 4a 4 4, 0, 0, 0, 0 -8" transform="rotate(0,198,206)"/><path d="M 226 202v 8h 4a 4 4, 0, 0, 0, 0 -8" transform="rotate(-90,230,206)"/><circle cx="270" cy="206" r="4" transform="rotate(0,270,206)"/><path d="M 282 202v 8h 4a 4 4, 0, 0, 0, 0 -8" transform="rotate(-90,286,206)"/><rect x="2" y="210" width="8" height="8" transform="rotate(0,6,214)"/><circle cx="22" cy="214" r="4" transform="rotate(0,22,214)"/><path d="M 34 210v 8h 8v -4a 4 4, 0, 0, 0, -4 -4" transform="rotate(-90,38,214)"/><rect x="42" y="210" width="8" height="8" transform="rotate(0,46,214)"/><path d="M 50 210v 8h 4a 4 4, 0, 0, 0, 0 -8" transform="rotate(0,54,214)"/><path d="M 74 210v 8h 4a 4 4, 0, 0, 0, 0 -8" transform="rotate(-90,78,214)"/><circle cx="94" cy="214" r="4" transform="rotate(0,94,214)"/><path d="M 122 210v 8h 8v -4a 4 4, 0, 0, 0, -4 -4" transform="rotate(-90,126,214)"/><rect x="130" y="210" width="8" height="8" transform="rotate(0,134,214)"/><path d="M 138 210v 8h 8v -4a 4 4, 0, 0, 0, -4 -4" transform="rotate(0,142,214)"/><path d="M 154 210v 8h 4a 4 4, 0, 0, 0, 0 -8" transform="rotate(90,158,214)"/><circle cx="206" cy="214" r="4" transform="rotate(0,206,214)"/><path d="M 218 210v 8h 8v -4a 4 4, 0, 0, 0, -4 -4" transform="rotate(-90,222,214)"/><rect x="226" y="210" width="8" height="8" transform="rotate(0,230,214)"/><circle cx="246" cy="214" r="4" transform="rotate(0,246,214)"/><path d="M 258 210v 8h 4a 4 4, 0, 0, 0, 0 -8" transform="rotate(-90,262,214)"/><rect x="282" y="210" width="8" height="8" transform="rotate(0,286,214)"/><path d="M 290 210v 8h 8v -4a 4 4, 0, 0, 0, -4 -4" transform="rotate(0,294,214)"/><rect x="2" y="218" width="8" height="8" transform="rotate(0,6,222)"/><path d="M 26 218v 8h 4a 4 4, 0, 0, 0, 0 -8" transform="rotate(180,30,222)"/><rect x="34" y="218" width="8" height="8" transform="rotate(0,38,222)"/><rect x="42" y="218" width="8" height="8" transform="rotate(0,46,222)"/><path d="M 58 218v 8h 4a 4 4, 0, 0, 0, 0 -8" transform="rotate(180,62,222)"/><rect x="66" y="218" width="8" height="8" transform="rotate(0,70,222)"/><path d="M 74 218v 8h 8v -4a 4 4, 0, 0, 0, -4 -4" transform="rotate(90,78,222)"/><path d="M 122 218v 8h 8v -4a 4 4, 0, 0, 0, -4 -4" transform="rotate(180,126,222)"/><rect x="130" y="218" width="8" height="8" transform="rotate(0,134,222)"/><rect x="138" y="218" width="8" height="8" transform="rotate(0,142,222)"/><path d="M 146 218v 8h 4a 4 4, 0, 0, 0, 0 -8" transform="rotate(0,150,222)"/><circle cx="174" cy="222" r="4" transform="rotate(0,174,222)"/><path d="M 186 218v 8h 4a 4 4, 0, 0, 0, 0 -8" transform="rotate(180,190,222)"/><path d="M 194 218v 8h 4a 4 4, 0, 0, 0, 0 -8" transform="rotate(0,198,222)"/><path d="M 218 218v 8h 8v -4a 4 4, 0, 0, 0, -4 -4" transform="rotate(180,222,222)"/><rect x="226" y="218" width="8" height="8" transform="rotate(0,230,222)"/><path d="M 234 218v 8h 8v -4a 4 4, 0, 0, 0, -4 -4" transform="rotate(0,238,222)"/><path d="M 250 218v 8h 8v -4a 4 4, 0, 0, 0, -4 -4" transform="rotate(-90,254,222)"/><rect x="258" y="218" width="8" height="8" transform="rotate(0,262,222)"/><rect x="282" y="218" width="8" height="8" transform="rotate(0,286,222)"/><rect x="290" y="218" width="8" height="8" transform="rotate(0,294,222)"/><path d="M 2 226v 8h 4a 4 4, 0, 0, 0, 0 -8" transform="rotate(90,6,230)"/><circle cx="22" cy="230" r="4" transform="rotate(0,22,230)"/><path d="M 34 226v 8h 8v -4a 4 4, 0, 0, 0, -4 -4" transform="rotate(180,38,230)"/><rect x="42" y="226" width="8" height="8" transform="rotate(0,46,230)"/><path d="M 50 226v 8h 4a 4 4, 0, 0, 0, 0 -8" transform="rotate(0,54,230)"/><circle cx="86" cy="230" r="4" transform="rotate(0,86,230)"/><rect x="130" y="226" width="8" height="8" transform="rotate(0,134,230)"/><path d="M 202 226v 8h 8v -4a 4 4, 0, 0, 0, -4 -4" transform="rotate(-90,206,230)"/><path d="M 210 226v 8h 8v -4a 4 4, 0, 0, 0, -4 -4" transform="rotate(0,214,230)"/><rect x="226" y="226" width="8" height="8" transform="rotate(0,230,230)"/><rect x="234" y="226" width="8" height="8" transform="rotate(0,238,230)"/><rect x="242" y="226" width="8" height="8" transform="rotate(0,246,230)"/><rect x="250" y="226" width="8" height="8" transform="rotate(0,254,230)"/><rect x="258" y="226" width="8" height="8" transform="rotate(0,262,230)"/><rect x="266" y="226" width="8" height="8" transform="rotate(0,270,230)"/><rect x="274" y="226" width="8" height="8" transform="rotate(0,278,230)"/><rect x="282" y="226" width="8" height="8" transform="rotate(0,286,230)"/><path d="M 290 226v 8h 8v -4a 4 4, 0, 0, 0, -4 -4" transform="rotate(90,294,230)"/><path d="M 66 234v 8h 4a 4 4, 0, 0, 0, 0 -8" transform="rotate(-90,70,238)"/><path d="M 98 234v 8h 8v -4a 4 4, 0, 0, 0, -4 -4" transform="rotate(-90,102,238)"/><rect x="106" y="234" width="8" height="8" transform="rotate(0,110,238)"/><rect x="114" y="234" width="8" height="8" transform="rotate(0,118,238)"/><rect x="122" y="234" width="8" height="8" transform="rotate(0,126,238)"/><rect x="130" y="234" width="8" height="8" transform="rotate(0,134,238)"/><path d="M 162 234v 8h 4a 4 4, 0, 0, 0, 0 -8" transform="rotate(180,166,238)"/><path d="M 170 234v 8h 8v -4a 4 4, 0, 0, 0, -4 -4" transform="rotate(0,174,238)"/><circle cx="190" cy="238" r="4" transform="rotate(0,190,238)"/><rect x="202" y="234" width="8" height="8" transform="rotate(0,206,238)"/><rect x="210" y="234" width="8" height="8" transform="rotate(0,214,238)"/><rect x="218" y="234" width="8" height="8" transform="rotate(0,222,238)"/><rect x="226" y="234" width="8" height="8" transform="rotate(0,230,238)"/><rect x="258" y="234" width="8" height="8" transform="rotate(0,262,238)"/><path d="M 282 234v 8h 4a 4 4, 0, 0, 0, 0 -8" transform="rotate(90,286,238)"/><rect x="66" y="242" width="8" height="8" transform="rotate(0,70,246)"/><rect x="74" y="242" width="8" height="8" transform="rotate(0,78,246)"/><rect x="82" y="242" width="8" height="8" transform="rotate(0,86,246)"/><rect x="90" y="242" width="8" height="8" transform="rotate(0,94,246)"/><path d="M 98 242v 8h 8v -4a 4 4, 0, 0, 0, -4 -4" transform="rotate(90,102,246)"/><path d="M 130 242v 8h 4a 4 4, 0, 0, 0, 0 -8" transform="rotate(90,134,246)"/><circle cx="158" cy="246" r="4" transform="rotate(0,158,246)"/><rect x="170" y="242" width="8" height="8" transform="rotate(0,174,246)"/><path d="M 194 242v 8h 8v -4a 4 4, 0, 0, 0, -4 -4" transform="rotate(-90,198,246)"/><rect x="202" y="242" width="8" height="8" transform="rotate(0,206,246)"/><path d="M 210 242v 8h 8v -4a 4 4, 0, 0, 0, -4 -4" transform="rotate(90,214,246)"/><rect x="226" y="242" width="8" height="8" transform="rotate(0,230,246)"/><circle cx="246" cy="246" r="4" transform="rotate(0,246,246)"/><rect x="258" y="242" width="8" height="8" transform="rotate(0,262,246)"/><path d="M 266 242v 8h 4a 4 4, 0, 0, 0, 0 -8" transform="rotate(0,270,246)"/><path d="M 290 242v 8h 4a 4 4, 0, 0, 0, 0 -8" transform="rotate(-90,294,246)"/><rect x="66" y="250" width="8" height="8" transform="rotate(0,70,254)"/><rect x="74" y="250" width="8" height="8" transform="rotate(0,78,254)"/><rect x="82" y="250" width="8" height="8" transform="rotate(0,86,254)"/><path d="M 90 250v 8h 8v -4a 4 4, 0, 0, 0, -4 -4" transform="rotate(90,94,254)"/><path d="M 122 250v 8h 4a 4 4, 0, 0, 0, 0 -8" transform="rotate(-90,126,254)"/><path d="M 162 250v 8h 4a 4 4, 0, 0, 0, 0 -8" transform="rotate(180,166,254)"/><rect x="170" y="250" width="8" height="8" transform="rotate(0,174,254)"/><path d="M 178 250v 8h 4a 4 4, 0, 0, 0, 0 -8" transform="rotate(0,182,254)"/><rect x="194" y="250" width="8" height="8" transform="rotate(0,198,254)"/><rect x="226" y="250" width="8" height="8" transform="rotate(0,230,254)"/><rect x="258" y="250" width="8" height="8" transform="rotate(0,262,254)"/><path d="M 282 250v 8h 4a 4 4, 0, 0, 0, 0 -8" transform="rotate(180,286,254)"/><rect x="290" y="250" width="8" height="8" transform="rotate(0,294,254)"/><rect x="66" y="258" width="8" height="8" transform="rotate(0,70,262)"/><path d="M 98 258v 8h 4a 4 4, 0, 0, 0, 0 -8" transform="rotate(-90,102,262)"/><path d="M 114 258v 8h 4a 4 4, 0, 0, 0, 0 -8" transform="rotate(180,118,262)"/><path d="M 122 258v 8h 8v -4a 4 4, 0, 0, 0, -4 -4" transform="rotate(90,126,262)"/><circle cx="142" cy="262" r="4" transform="rotate(0,142,262)"/><path d="M 170 258v 8h 4a 4 4, 0, 0, 0, 0 -8" transform="rotate(90,174,262)"/><rect x="194" y="258" width="8" height="8" transform="rotate(0,198,262)"/><rect x="202" y="258" width="8" height="8" transform="rotate(0,206,262)"/><rect x="210" y="258" width="8" height="8" transform="rotate(0,214,262)"/><rect x="218" y="258" width="8" height="8" transform="rotate(0,222,262)"/><rect x="226" y="258" width="8" height="8" transform="rotate(0,230,262)"/><rect x="234" y="258" width="8" height="8" transform="rotate(0,238,262)"/><rect x="242" y="258" width="8" height="8" transform="rotate(0,246,262)"/><rect x="250" y="258" width="8" height="8" transform="rotate(0,254,262)"/><rect x="258" y="258" width="8" height="8" transform="rotate(0,262,262)"/><path d="M 274 258v 8h 4a 4 4, 0, 0, 0, 0 -8" transform="rotate(-90,278,262)"/><path d="M 290 258v 8h 4a 4 4, 0, 0, 0, 0 -8" transform="rotate(90,294,262)"/><rect x="66" y="266" width="8" height="8" transform="rotate(0,70,270)"/><rect x="74" y="266" width="8" height="8" transform="rotate(0,78,270)"/><path d="M 82 266v 8h 8v -4a 4 4, 0, 0, 0, -4 -4" transform="rotate(0,86,270)"/><rect x="98" y="266" width="8" height="8" transform="rotate(0,102,270)"/><circle cx="166" cy="270" r="4" transform="rotate(0,166,270)"/><path d="M 178 266v 8h 4a 4 4, 0, 0, 0, 0 -8" transform="rotate(-90,182,270)"/><rect x="194" y="266" width="8" height="8" transform="rotate(0,198,270)"/><path d="M 202 266v 8h 8v -4a 4 4, 0, 0, 0, -4 -4" transform="rotate(90,206,270)"/><path d="M 242 266v 8h 4a 4 4, 0, 0, 0, 0 -8" transform="rotate(90,246,270)"/><path d="M 258 266v 8h 4a 4 4, 0, 0, 0, 0 -8" transform="rotate(90,262,270)"/><path d="M 274 266v 8h 8v -4a 4 4, 0, 0, 0, -4 -4" transform="rotate(180,278,270)"/><path d="M 282 266v 8h 4a 4 4, 0, 0, 0, 0 -8" transform="rotate(0,286,270)"/><rect x="66" y="274" width="8" height="8" transform="rotate(0,70,278)"/><path d="M 82 274v 8h 4a 4 4, 0, 0, 0, 0 -8" transform="rotate(90,86,278)"/><path d="M 98 274v 8h 4a 4 4, 0, 0, 0, 0 -8" transform="rotate(90,102,278)"/><path d="M 114 274v 8h 4a 4 4, 0, 0, 0, 0 -8" transform="rotate(180,118,278)"/><path d="M 122 274v 8h 4a 4 4, 0, 0, 0, 0 -8" transform="rotate(0,126,278)"/><path d="M 138 274v 8h 8v -4a 4 4, 0, 0, 0, -4 -4" transform="rotate(-90,142,278)"/><rect x="146" y="274" width="8" height="8" transform="rotate(0,150,278)"/><path d="M 154 274v 8h 8v -4a 4 4, 0, 0, 0, -4 -4" transform="rotate(0,158,278)"/><rect x="178" y="274" width="8" height="8" transform="rotate(0,182,278)"/><path d="M 194 274v 8h 4a 4 4, 0, 0, 0, 0 -8" transform="rotate(90,198,278)"/><path d="M 210 274v 8h 4a 4 4, 0, 0, 0, 0 -8" transform="rotate(-90,214,278)"/><circle cx="238" cy="278" r="4" transform="rotate(0,238,278)"/><path d="M 250 274v 8h 4a 4 4, 0, 0, 0, 0 -8" transform="rotate(-90,254,278)"/><path d="M 290 274v 8h 4a 4 4, 0, 0, 0, 0 -8" transform="rotate(-90,294,278)"/><path d="M 66 282v 8h 8v -4a 4 4, 0, 0, 0, -4 -4" transform="rotate(180,70,286)"/><path d="M 74 282v 8h 4a 4 4, 0, 0, 0, 0 -8" transform="rotate(0,78,286)"/><circle cx="94" cy="286" r="4" transform="rotate(0,94,286)"/><circle cx="110" cy="286" r="4" transform="rotate(0,110,286)"/><path d="M 130 282v 8h 8v -4a 4 4, 0, 0, 0, -4 -4" transform="rotate(-90,134,286)"/><rect x="138" y="282" width="8" height="8" transform="rotate(0,142,286)"/><rect x="146" y="282" width="8" height="8" transform="rotate(0,150,286)"/><rect x="154" y="282" width="8" height="8" transform="rotate(0,158,286)"/><rect x="162" y="282" width="8" height="8" transform="rotate(0,166,286)"/><rect x="170" y="282" width="8" height="8" transform="rotate(0,174,286)"/><rect x="178" y="282" width="8" height="8" transform="rotate(0,182,286)"/><path d="M 186 282v 8h 4a 4 4, 0, 0, 0, 0 -8" transform="rotate(0,190,286)"/><rect x="210" y="282" width="8" height="8" transform="rotate(0,214,286)"/><circle cx="230" cy="286" r="4" transform="rotate(0,230,286)"/><path d="M 242 282v 8h 8v -4a 4 4, 0, 0, 0, -4 -4" transform="rotate(-90,246,286)"/><rect x="250" y="282" width="8" height="8" transform="rotate(0,254,286)"/><circle cx="270" cy="286" r="4" transform="rotate(0,270,286)"/><rect x="290" y="282" width="8" height="8" transform="rotate(0,294,286)"/><path d="M 114 290v 8h 4a 4 4, 0, 0, 0, 0 -8" transform="rotate(180,118,294)"/><rect x="122" y="290" width="8" height="8" transform="rotate(0,126,294)"/><path d="M 130 290v 8h 8v -4a 4 4, 0, 0, 0, -4 -4" transform="rotate(90,134,294)"/><path d="M 154 290v 8h 8v -4a 4 4, 0, 0, 0, -4 -4" transform="rotate(180,158,294)"/><path d="M 162 290v 8h 8v -4a 4 4, 0, 0, 0, -4 -4" transform="rotate(90,166,294)"/><path d="M 178 290v 8h 4a 4 4, 0, 0, 0, 0 -8" transform="rotate(90,182,294)"/><path d="M 202 290v 8h 4a 4 4, 0, 0, 0, 0 -8" transform="rotate(180,206,294)"/><rect x="210" y="290" width="8" height="8" transform="rotate(0,214,294)"/><path d="M 218 290v 8h 4a 4 4, 0, 0, 0, 0 -8" transform="rotate(0,222,294)"/><path d="M 242 290v 8h 8v -4a 4 4, 0, 0, 0, -4 -4" transform="rotate(180,246,294)"/><path d="M 250 290v 8h 8v -4a 4 4, 0, 0, 0, -4 -4" transform="rotate(90,254,294)"/><path d="M 274 290v 8h 4a 4 4, 0, 0, 0, 0 -8" transform="rotate(180,278,294)"/><rect x="282" y="290" width="8" height="8" transform="rotate(0,286,294)"/><path d="M 290 290v 8h 8v -4a 4 4, 0, 0, 0, -4 -4" transform="rotate(90,294,294)"/></clipPath><clipPath id="clip-path-corners-square-color-0-0-0"><path clip-rule="evenodd" d="M 2 22v 16a 20 20, 0, 0, 0, 20 20h 16a 20 20, 0, 0, 0, 20 -20v -16a 20 20, 0, 0, 0, -20 -20h -16a 20 20, 0, 0, 0, -20 20M 22 10h 16a 12 12, 0, 0, 1, 12 12v 16a 12 12, 0, 0, 1, -12 12h -16a 12 12, 0, 0, 1, -12 -12v -16a 12 12, 0, 0, 1, 12 -12" transform="rotate(0,30,30)"/><path d="M 18 18v 8h 8v -4a 4 4, 0, 0, 0, -4 -4" transform="rotate(-90,22,22)"/><rect x="26" y="18" width="8" height="8" transform="rotate(0,30,22)"/><path d="M 34 18v 8h 8v -4a 4 4, 0, 0, 0, -4 -4" transform="rotate(0,38,22)"/><rect x="18" y="26" width="8" height="8" transform="rotate(0,22,30)"/><rect x="26" y="26" width="8" height="8" transform="rotate(0,30,30)"/><rect x="34" y="26" width="8" height="8" transform="rotate(0,38,30)"/><path d="M 18 34v 8h 8v -4a 4 4, 0, 0, 0, -4 -4" transform="rotate(180,22,38)"/><rect x="26" y="34" width="8" height="8" transform="rotate(0,30,38)"/><path d="M 34 34v 8h 8v -4a 4 4, 0, 0, 0, -4 -4" transform="rotate(90,38,38)"/></clipPath><clipPath id="clip-path-corners-square-color-1-0-0"><path clip-rule="evenodd" d="M 242 22v 16a 20 20, 0, 0, 0, 20 20h 16a 20 20, 0, 0, 0, 20 -20v -16a 20 20, 0, 0, 0, -20 -20h -16a 20 20, 0, 0, 0, -20 20M 262 10h 16a 12 12, 0, 0, 1, 12 12v 16a 12 12, 0, 0, 1, -12 12h -16a 12 12, 0, 0, 1, -12 -12v -16a 12 12, 0, 0, 1, 12 -12" transform="rotate(90,270,30)"/><path d="M 258 18v 8h 8v -4a 4 4, 0, 0, 0, -4 -4" transform="rotate(-90,262,22)"/><rect x="266" y="18" width="8" height="8" transform="rotate(0,270,22)"/><path d="M 274 18v 8h 8v -4a 4 4, 0, 0, 0, -4 -4" transform="rotate(0,278,22)"/><rect x="258" y="26" width="8" height="8" transform="rotate(0,262,30)"/><rect x="266" y="26" width="8" height="8" transform="rotate(0,270,30)"/><rect x="274" y="26" width="8" height="8" transform="rotate(0,278,30)"/><path d="M 258 34v 8h 8v -4a 4 4, 0, 0, 0, -4 -4" transform="rotate(180,262,38)"/><rect x="266" y="34" width="8" height="8" transform="rotate(0,270,38)"/><path d="M 274 34v 8h 8v -4a 4 4, 0, 0, 0, -4 -4" transform="rotate(90,278,38)"/></clipPath><clipPath id="clip-path-corners-square-color-0-1-0"><path clip-rule="evenodd" d="M 2 262v 16a 20 20, 0, 0, 0, 20 20h 16a 20 20, 0, 0, 0, 20 -20v -16a 20 20, 0, 0, 0, -20 -20h -16a 20 20, 0, 0, 0, -20 20M 22 250h 16a 12 12, 0, 0, 1, 12 12v 16a 12 12, 0, 0, 1, -12 12h -16a 12 12, 0, 0, 1, -12 -12v -16a 12 12, 0, 0, 1, 12 -12" transform="rotate(-90,30,270)"/><path d="M 18 258v 8h 8v -4a 4 4, 0, 0, 0, -4 -4" transform="rotate(-90,22,262)"/><rect x="26" y="258" width="8" height="8" transform="rotate(0,30,262)"/><path d="M 34 258v 8h 8v -4a 4 4, 0, 0, 0, -4 -4" transform="rotate(0,38,262)"/><rect x="18" y="266" width="8" height="8" transform="rotate(0,22,270)"/><rect x="26" y="266" width="8" height="8" transform="rotate(0,30,270)"/><rect x="34" y="266" width="8" height="8" transform="rotate(0,38,270)"/><path d="M 18 274v 8h 8v -4a 4 4, 0, 0, 0, -4 -4" transform="rotate(180,22,278)"/><rect x="26" y="274" width="8" height="8" transform="rotate(0,30,278)"/><path d="M 34 274v 8h 8v -4a 4 4, 0, 0, 0, -4 -4" transform="rotate(90,38,278)"/></clipPath></defs><rect x="0" y="0" height="300" width="300" clip-path="url('#clip-path-background-color-0')" fill="#ffffffff"/><rect x="0" y="0" height="300" width="300" clip-path="url('#clip-path-dot-color-0')" fill="#046a81ff"/><rect x="2" y="2" height="56" width="56" clip-path="url('#clip-path-corners-square-color-0-0-0')" fill="#087b8dff"/><rect x="242" y="2" height="56" width="56" clip-path="url('#clip-path-corners-square-color-1-0-0')" fill="#087b8dff"/><rect x="2" y="242" height="56" width="56" clip-path="url('#clip-path-corners-square-color-0-1-0')" fill="#087b8dff"/></svg>