<?xml version="1.0" standalone="no"?>
<svg xmlns="http://www.w3.org/2000/svg" width="300" height="300" xmlns:xlink="http://www.w3.org/1999/xlink" viewBox="0 0 300 300"><defs><clipPath id="clip-path-background-color-0"><rect x="0" y="0" width="300" height="300"/></clipPath><clipPath id="clip-path-dot-color-0"><circle cx="95.5" cy="5.5" r="4.5" transform="rotate(0,95.5,5.5)"/><path d="M 118 1v 9h 4.5a 4.5 4.5, 0, 0, 0, 0 -9" transform="rotate(180,122.5,5.5)"/><rect x="127" y="1" width="9" height="9" transform="rotate(0,131.5,5.5)"/><rect x="136" y="1" width="9" height="9" transform="rotate(0,140.5,5.5)"/><rect x="145" y="1" width="9" height="9" transform="rotate(0,149.5,5.5)"/><path d="M 154 1v 9h 9v -4.5a 4.5 4.5, 0, 0, 0, -4.5 -4.5" transform="rotate(0,158.5,5.5)"/><circle cx="185.5" cy="5.5" r="4.5" transform="rotate(0,185.5,5.5)"/><path d="M 199 1v 9h 9v -4.5a 4.5 4.5, 0, 0, 0, -4.5 -4.5" transform="rotate(-90,203.5,5.5)"/><rect x="208" y="1" width="9" height="9" transform="rotate(0,212.5,5.5)"/><path d="M 217 1v 9h 9v -4.5a 4.5 4.5, 0, 0, 0, -4.5 -4.5" transform="rotate(0,221.5,5.5)"/><path d="M 109 10v 9h 4.5a 4.5 4.5, 0, 0, 0, 0 -9" transform="rotate(-90,113.5,14.5)"/><rect x="127" y="10" width="9" height="9" transform="rotate(0,131.5,14.5)"/><rect x="145" y="10" width="9" height="9" transform="rotate(0,149.5,14.5)"/><path d="M 154 10v 9h 9v -4.5a 4.5 4.5, 0, 0, 0, -4.5 -4.5" transform="rotate(90,158.5,14.5)"/><circle cx="176.5" cy="14.5" r="4.5" transform="rotate(0,176.5,14.5)"/><path d="M 199 10v 9h 4.5a 4.5 4.5, 0, 0, 0, 0 -9" transform="rotate(90,203.5,14.5)"/><rect x="217" y="10" width="9" height="9" transform="rotate(0,221.5,14.5)"/><path d="M 73 19v 9h 4.5a 4.5 4.5, 0, 0, 0, 0 -9" transform="rotate(180,77.5,23.5)"/><path d="M 82 19v 9h 4.5a 4.5 4.5, 0, 0, 0, 0 -9" transform="rotate(0,86.5,23.5)"/><path d="M 100 19v 9h 4.5a 4.5 4.5, 0, 0, 0, 0 -9" transform="rotate(180,104.5,23.5)"/><path d="M 109 19v 9h 9v -4.5a 4.5 4.5, 0, 0, 0, -4.5 -4.5" transform="rotate(90,113.5,23.5)"/><path d="M 127 19v 9h 9v -4.5a 4.5 4.5, 0, 0, 0, -4.5 -4.5" transform="rotate(180,131.5,23.5)"/><rect x="136" y="19" width="9" height="9" transform="rotate(0,140.5,23.5)"/><rect x="145" y="19" width="9" height="9" transform="rotate(0,149.5,23.5)"/><circle cx="194.5" cy="23.5" r="4.5" transform="rotate(0,194.5,23.5)"/><rect x="217" y="19" width="9" height="9" transform="rotate(0,221.5,23.5)"/><path d="M 91 28v 9h 4.5a 4.5 4.5, 0, 0, 0, 0 -9" transform="rotate(-90,95.5,32.5)"/><circle cx="122.5" cy="32.5" r="4.5" transform="rotate(0,122.5,32.5)"/><path d="M 145 28v 9h 9v -4.5a 4.5 4.5, 0, 0, 0, -4.5 -4.5" transform="rotate(180,149.5,32.5)"/><rect x="154" y="28" width="9" height="9" transform="rotate(0,158.5,32.5)"/><path d="M 163 28v 9h 9v -4.5a 4.5 4.5, 0, 0, 0, -4.5 -4.5" transform="rotate(0,167.5,32.5)"/><path d="M 181 28v 9h 4.5a 4.5 4.5, 0, 0, 0, 0 -9" transform="rotate(-90,185.5,32.5)"/><path d="M 199 28v 9h 9v -4.5a 4.5 4.5, 0, 0, 0, -4.5 -4.5" transform="rotate(-90,203.5,32.5)"/><rect x="208" y="28" width="9" height="9" transform="rotate(0,212.5,32.5)"/><path d="M 217 28v 9h 9v -4.5a 4.5 4.5, 0, 0, 0, -4.5 -4.5" transform="rotate(90,221.5,32.5)"/><path d="M 73 37v 9h 4.5a 4.5 4.5, 0, 0, 0, 0 -9" transform="rotate(-90,77.5,41.5)"/><path d="M 91 37v 9h 9v -4.5a 4.5 4.5, 0, 0, 0, -4.5 -4.5" transform="rotate(180,95.5,41.5)"/><rect x="100" y="37" width="9" height="9" transform="rotate(0,104.5,41.5)"/><path d="M 109 37v 9h 4.5a 4.5 4.5, 0, 0, 0, 0 -9" transform="rotate(0,113.5,41.5)"/><rect x="163" y="37" width="9" height="9" transform="rotate(0,167.5,41.5)"/><rect x="172" y="37" width="9" height="9" transform="rotate(0,176.5,41.5)"/><rect x="181" y="37" width="9" height="9" transform="rotate(0,185.5,41.5)"/><rect x="190" y="37" width="9" height="9" transform="rotate(0,194.5,41.5)"/><path d="M 199 37v 9h 9v -4.5a 4.5 4.5, 0, 0, 0, -4.5 -4.5" transform="rotate(90,203.5,41.5)"/><rect x="73" y="46" width="9" height="9" transform="rotate(0,77.5,50.5)"/><path d="M 82 46v 9h 4.5a 4.5 4.5, 0, 0, 0, 0 -9" transform="rotate(0,86.5,50.5)"/><path d="M 118 46v 9h 4.5a 4.5 4.5, 0, 0, 0, 0 -9" transform="rotate(180,122.5,50.5)"/><path d="M 127 46v 9h 9v -4.5a 4.5 4.5, 0, 0, 0, -4.5 -4.5" transform="rotate(0,131.5,50.5)"/><path d="M 145 46v 9h 4.5a 4.5 4.5, 0, 0, 0, 0 -9" transform="rotate(-90,149.5,50.5)"/><rect x="163" y="46" width="9" height="9" transform="rotate(0,167.5,50.5)"/><path d="M 172 46v 9h 9v -4.5a 4.5 4.5, 0, 0, 0, -4.5 -4.5" transform="rotate(90,176.5,50.5)"/><path d="M 217 46v 9h 4.5a 4.5 4.5, 0, 0, 0, 0 -9" transform="rotate(-90,221.5,50.5)"/><path d="M 73 55v 9h 4.5a 4.5 4.5, 0, 0, 0, 0 -9" transform="rotate(90,77.5,59.5)"/><path d="M 91 55v 9h 4.5a 4.5 4.5, 0, 0, 0, 0 -9" transform="rotate(-90,95.5,59.5)"/><circle cx="113.5" cy="59.5" r="4.5" transform="rotate(0,113.5,59.5)"/><path d="M 127 55v 9h 4.5a 4.5 4.5, 0, 0, 0, 0 -9" transform="rotate(90,131.5,59.5)"/><path d="M 145 55v 9h 4.5a 4.5 4.5, 0, 0, 0, 0 -9" transform="rotate(90,149.5,59.5)"/><path d="M 163 55v 9h 4.5a 4.5 4.5, 0, 0, 0, 0 -9" transform="rotate(90,167.5,59.5)"/><circle cx="185.5" cy="59.5" r="4.5" transform="rotate(0,185.5,59.5)"/><path d="M 199 55v 9h 4.5a 4.5 4.5, 0, 0, 0, 0 -9" transform="rotate(-90,203.5,59.5)"/><rect x="217" y="55" width="9" height="9" transform="rotate(0,221.5,59.5)"/><path d="M 82 64v 9h 4.5a 4.5 4.5, 0, 0, 0, 0 -9" transform="rotate(180,86.5,68.5)"/><path d="M 91 64v 9h 9v -4.5a 4.5 4.5, 0, 0, 0, -4.5 -4.5" transform="rotate(90,95.5,68.5)"/><path d="M 154 64v 9h 4.5a 4.5 4.5, 0, 0, 0, 0 -9" transform="rotate(-90,158.5,68.5)"/><path d="M 190 64v 9h 9v -4.5a 4.5 4.5, 0, 0, 0, -4.5 -4.5" transform="rotate(-90,194.5,68.5)"/><rect x="199" y="64" width="9" height="9" transform="rotate(0,203.5,68.5)"/><rect x="208" y="64" width="9" height="9" transform="rotate(0,212.5,68.5)"/><path d="M 217 64v 9h 9v -4.5a 4.5 4.5, 0, 0, 0, -4.5 -4.5" transform="rotate(90,221.5,68.5)"/><circle cx="14.5" cy="77.5" r="4.5" transform="rotate(0,14.5,77.5)"/><path d="M 37 73v 9h 4.5a 4.5 4.5, 0, 0, 0, 0 -9" transform="rotate(-90,41.5,77.5)"/><circle cx="59.5" cy="77.5" r="4.5" transform="rotate(0,59.5,77.5)"/><path d="M 73 73v 9h 4.5a 4.5 4.5, 0, 0, 0, 0 -9" transform="rotate(-90,77.5,77.5)"/><circle cx="113.5" cy="77.5" r="4.5" transform="rotate(0,113.5,77.5)"/><path d="M 127 73v 9h 4.5a 4.5 4.5, 0, 0, 0, 0 -9" transform="rotate(-90,131.5,77.5)"/><path d="M 145 73v 9h 4.5a 4.5 4.5, 0, 0, 0, 0 -9" transform="rotate(180,149.5,77.5)"/><rect x="154" y="73" width="9" height="9" transform="rotate(0,158.5,77.5)"/><rect x="163" y="73" width="9" height="9" transform="rotate(0,167.5,77.5)"/><path d="M 172 73v 9h 4.5a 4.5 4.5, 0, 0, 0, 0 -9" transform="rotate(0,176.5,77.5)"/><path d="M 190 73v 9h 4.5a 4.5 4.5, 0, 0, 0, 0 -9" transform="rotate(90,194.5,77.5)"/><rect x="208" y="73" width="9" height="9" transform="rotate(0,212.5,77.5)"/><circle cx="230.5" cy="77.5" r="4.5" transform="rotate(0,230.5,77.5)"/><path d="M 244 73v 9h 4.5a 4.5 4.5, 0, 0, 0, 0 -9" transform="rotate(180,248.5,77.5)"/><path d="M 253 73v 9h 4.5a 4.5 4.5, 0, 0, 0, 0 -9" transform="rotate(0,257.5,77.5)"/><path d="M 271 73v 9h 4.5a 4.5 4.5, 0, 0, 0, 0 -9" transform="rotate(-90,275.5,77.5)"/><rect x="37" y="82" width="9" height="9" transform="rotate(0,41.5,86.5)"/><path d="M 64 82v 9h 9v -4.5a 4.5 4.5, 0, 0, 0, -4.5 -4.5" transform="rotate(-90,68.5,86.5)"/><rect x="73" y="82" width="9" height="9" transform="rotate(0,77.5,86.5)"/><path d="M 100 82v 9h 4.5a 4.5 4.5, 0, 0, 0, 0 -9" transform="rotate(-90,104.5,86.5)"/><path d="M 127 82v 9h 4.5a 4.5 4.5, 0, 0, 0, 0 -9" transform="rotate(90,131.5,86.5)"/><path d="M 181 82v 9h 4.5a 4.5 4.5, 0, 0, 0, 0 -9" transform="rotate(-90,185.5,86.5)"/><rect x="208" y="82" width="9" height="9" transform="rotate(0,212.5,86.5)"/><path d="M 217 82v 9h 9v -4.5a 4.5 4.5, 0, 0, 0, -4.5 -4.5" transform="rotate(0,221.5,86.5)"/><path d="M 262 82v 9h 9v -4.5a 4.5 4.5, 0, 0, 0, -4.5 -4.5" transform="rotate(-90,266.5,86.5)"/><path d="M 271 82v 9h 9v -4.5a 4.5 4.5, 0, 0, 0, -4.5 -4.5" transform="rotate(90,275.5,86.5)"/><circle cx="5.5" cy="95.5" r="4.5" transform="rotate(0,5.5,95.5)"/><path d="M 19 91v 9h 4.5a 4.5 4.5, 0, 0, 0, 0 -9" transform="rotate(-90,23.5,95.5)"/><path d="M 37 91v 9h 4.5a 4.5 4.5, 0, 0, 0, 0 -9" transform="rotate(90,41.5,95.5)"/><path d="M 55 91v 9h 4.5a 4.5 4.5, 0, 0, 0, 0 -9" transform="rotate(180,59.5,95.5)"/><rect x="64" y="91" width="9" height="9" transform="rotate(0,68.5,95.5)"/><path d="M 73 91v 9h 9v -4.5a 4.5 4.5, 0, 0, 0, -4.5 -4.5" transform="rotate(90,77.5,95.5)"/><path d="M 100 91v 9h 4.5a 4.5 4.5, 0, 0, 0, 0 -9" transform="rotate(90,104.5,95.5)"/><path d="M 145 91v 9h 4.5a 4.5 4.5, 0, 0, 0, 0 -9" transform="rotate(180,149.5,95.5)"/><path d="M 154 91v 9h 9v -4.5a 4.5 4.5, 0, 0, 0, -4.5 -4.5" transform="rotate(0,158.5,95.5)"/><rect x="181" y="91" width="9" height="9" transform="rotate(0,185.5,95.5)"/><rect x="190" y="91" width="9" height="9" transform="rotate(0,194.5,95.5)"/><rect x="199" y="91" width="9" height="9" transform="rotate(0,203.5,95.5)"/><rect x="208" y="91" width="9" height="9" transform="rotate(0,212.5,95.5)"/><rect x="217" y="91" width="9" height="9" transform="rotate(0,221.5,95.5)"/><rect x="226" y="91" width="9" height="9" transform="rotate(0,230.5,95.5)"/><path d="M 235 91v 9h 9v -4.5a 4.5 4.5, 0, 0, 0, -4.5 -4.5" transform="rotate(0,239.5,95.5)"/><path d="M 262 91v 9h 4.5a 4.5 4.5, 0, 0, 0, 0 -9" transform="rotate(90,266.5,95.5)"/><path d="M 280 91v 9h 4.5a 4.5 4.5, 0, 0, 0, 0 -9" transform="rotate(-90,284.5,95.5)"/><path d="M 10 100v 9h 4.5a 4.5 4.5, 0, 0, 0, 0 -9" transform="rotate(180,14.5,104.5)"/><rect x="19" y="100" width="9" height="9" transform="rotate(0,23.5,104.5)"/><path d="M 28 100v 9h 4.5a 4.5 4.5, 0, 0, 0, 0 -9" transform="rotate(0,32.5,104.5)"/><path d="M 127 100v 9h 4.5a 4.5 4.5, 0, 0, 0, 0 -9" transform="rotate(-90,131.5,104.5)"/><path d="M 154 100v 9h 9v -4.5a 4.5 4.5, 0, 0, 0, -4.5 -4.5" transform="rotate(180,158.5,104.5)"/><rect x="163" y="100" width="9" height="9" transform="rotate(0,167.5,104.5)"/><rect x="172" y="100" width="9" height="9" transform="rotate(0,176.5,104.5)"/><rect x="181" y="100" width="9" height="9" transform="rotate(0,185.5,104.5)"/><rect x="190" y="100" width="9" height="9" transform="rotate(0,194.5,104.5)"/><rect x="199" y="100" width="9" height="9" transform="rotate(0,203.5,104.5)"/><path d="M 208 100v 9h 9v -4.5a 4.5 4.5, 0, 0, 0, -4.5 -4.5" transform="rotate(90,212.5,104.5)"/><rect x="235" y="100" width="9" height="9" transform="rotate(0,239.5,104.5)"/><rect x="280" y="100" width="9" height="9" transform="rotate(0,284.5,104.5)"/><path d="M 1 109v 9h 4.5a 4.5 4.5, 0, 0, 0, 0 -9" transform="rotate(-90,5.5,113.5)"/><rect x="19" y="109" width="9" height="9" transform="rotate(0,23.5,113.5)"/><path d="M 55 109v 9h 4.5a 4.5 4.5, 0, 0, 0, 0 -9" transform="rotate(180,59.5,113.5)"/><path d="M 64 109v 9h 4.5a 4.5 4.5, 0, 0, 0, 0 -9" transform="rotate(0,68.5,113.5)"/><circle cx="86.5" cy="113.5" r="4.5" transform="rotate(0,86.5,113.5)"/><path d="M 118 109v 9h 9v -4.5a 4.5 4.5, 0, 0, 0, -4.5 -4.5" transform="rotate(-90,122.5,113.5)"/><rect x="127" y="109" width="9" height="9" transform="rotate(0,131.5,113.5)"/><path d="M 136 109v 9h 4.5a 4.5 4.5, 0, 0, 0, 0 -9" transform="rotate(0,140.5,113.5)"/><path d="M 163 109v 9h 9v -4.5a 4.5 4.5, 0, 0, 0, -4.5 -4.5" transform="rotate(180,167.5,113.5)"/><rect x="172" y="109" width="9" height="9" transform="rotate(0,176.5,113.5)"/><path d="M 181 109v 9h 9v -4.5a 4.5 4.5, 0, 0, 0, -4.5 -4.5" transform="rotate(90,185.5,113.5)"/><path d="M 217 109v 9h 4.5a 4.5 4.5, 0, 0, 0, 0 -9" transform="rotate(180,221.5,113.5)"/><rect x="226" y="109" width="9" height="9" transform="rotate(0,230.5,113.5)"/><path d="M 235 109v 9h 9v -4.5a 4.5 4.5, 0, 0, 0, -4.5 -4.5" transform="rotate(90,239.5,113.5)"/><path d="M 253 109v 9h 4.5a 4.5 4.5, 0, 0, 0, 0 -9" transform="rotate(180,257.5,113.5)"/><path d="M 262 109v 9h 4.5a 4.5 4.5, 0, 0, 0, 0 -9" transform="rotate(0,266.5,113.5)"/><path d="M 280 109v 9h 9v -4.5a 4.5 4.5, 0, 0, 0, -4.5 -4.5" transform="rotate(180,284.5,113.5)"/><path d="M 289 109v 9h 4.5a 4.5 4.5, 0, 0, 0, 0 -9" transform="rotate(0,293.5,113.5)"/><rect x="1" y="118" width="9" height="9" transform="rotate(0,5.5,122.5)"/><rect x="10" y="118" width="9" height="9" transform="rotate(0,14.5,122.5)"/><rect x="19" y="118" width="9" height="9" transform="rotate(0,23.5,122.5)"/><rect x="28" y="118" width="9" height="9" transform="rotate(0,32.5,122.5)"/><path d="M 37 118v 9h 9v -4.5a 4.5 4.5, 0, 0, 0, -4.5 -4.5" transform="rotate(0,41.5,122.5)"/><path d="M 91 118v 9h 4.5a 4.5 4.5, 0, 0, 0, 0 -9" transform="rotate(-90,95.5,122.5)"/><path d="M 118 118v 9h 4.5a 4.5 4.5, 0, 0, 0, 0 -9" transform="rotate(90,122.5,122.5)"/><circle cx="158.5" cy="122.5" r="4.5" transform="rotate(0,158.5,122.5)"/><rect x="172" y="118" width="9" height="9" transform="rotate(0,176.5,122.5)"/><circle cx="194.5" cy="122.5" r="4.5" transform="rotate(0,194.5,122.5)"/><path d="M 226 118v 9h 4.5a 4.5 4.5, 0, 0, 0, 0 -9" transform="rotate(90,230.5,122.5)"/><circle cx="248.5" cy="122.5" r="4.5" transform="rotate(0,248.5,122.5)"/><path d="M 271 118v 9h 4.5a 4.5 4.5, 0, 0, 0, 0 -9" transform="rotate(-90,275.5,122.5)"/><path d="M 1 127v 9h 9v -4.5a 4.5 4.5, 0, 0, 0, -4.5 -4.5" transform="rotate(180,5.5,131.5)"/><rect x="10" y="127" width="9" height="9" transform="rotate(0,14.5,131.5)"/><rect x="19" y="127" width="9" height="9" transform="rotate(0,23.5,131.5)"/><rect x="28" y="127" width="9" height="9" transform="rotate(0,32.5,131.5)"/><rect x="37" y="127" width="9" height="9" transform="rotate(0,41.5,131.5)"/><rect x="46" y="127" width="9" height="9" transform="rotate(0,50.5,131.5)"/><path d="M 55 127v 9h 4.5a 4.5 4.5, 0, 0, 0, 0 -9" transform="rotate(0,59.5,131.5)"/><rect x="91" y="127" width="9" height="9" transform="rotate(0,95.5,131.5)"/><path d="M 136 127v 9h 4.5a 4.5 4.5, 0, 0, 0, 0 -9" transform="rotate(-90,140.5,131.5)"/><path d="M 163 127v 9h 4.5a 4.5 4.5, 0, 0, 0, 0 -9" transform="rotate(180,167.5,131.5)"/><rect x="172" y="127" width="9" height="9" transform="rotate(0,176.5,131.5)"/><path d="M 208 127v 9h 4.5a 4.5 4.5, 0, 0, 0, 0 -9" transform="rotate(-90,212.5,131.5)"/><path d="M 253 127v 9h 9v -4.5a 4.5 4.5, 0, 0, 0, -4.5 -4.5" transform="rotate(-90,257.5,131.5)"/><rect x="262" y="127" width="9" height="9" transform="rotate(0,266.5,131.5)"/><rect x="271" y="127" width="9" height="9" transform="rotate(0,275.5,131.5)"/><path d="M 280 127v 9h 4.5a 4.5 4.5, 0, 0, 0, 0 -9" transform="rotate(0,284.5,131.5)"/><rect x="10" y="136" width="9" height="9" transform="rotate(0,14.5,140.5)"/><path d="M 19 136v 9h 9v -4.5a 4.5 4.5, 0, 0, 0, -4.5 -4.5" transform="rotate(90,23.5,140.5)"/><rect x="37" y="136" width="9" height="9" transform="rotate(0,41.5,140.5)"/><path d="M 64 136v 9h 9v -4.5a 4.5 4.5, 0, 0, 0, -4.5 -4.5" transform="rotate(-90,68.5,140.5)"/><rect x="73" y="136" width="9" height="9" transform="rotate(0,77.5,140.5)"/><rect x="82" y="136" width="9" height="9" transform="rotate(0,86.5,140.5)"/><rect x="91" y="136" width="9" height="9" transform="rotate(0,95.5,140.5)"/><path d="M 100 136v 9h 9v -4.5a 4.5 4.5, 0, 0, 0, -4.5 -4.5" transform="rotate(0,104.5,140.5)"/><rect x="136" y="136" width="9" height="9" transform="rotate(0,140.5,140.5)"/><rect x="145" y="136" width="9" height="9" transform="rotate(0,149.5,140.5)"/><path d="M 154 136v 9h 9v -4.5a 4.5 4.5, 0, 0, 0, -4.5 -4.5" transform="rotate(0,158.5,140.5)"/><path d="M 172 136v 9h 9v -4.5a 4.5 4.5, 0, 0, 0, -4.5 -4.5" transform="rotate(180,176.5,140.5)"/><rect x="181" y="136" width="9" height="9" transform="rotate(0,185.5,140.5)"/><rect x="190" y="136" width="9" height="9" transform="rotate(0,194.5,140.5)"/><rect x="199" y="136" width="9" height="9" transform="rotate(0,203.5,140.5)"/><rect x="208" y="136" width="9" height="9" transform="rotate(0,212.5,140.5)"/><rect x="217" y="136" width="9" height="9" transform="rotate(0,221.5,140.5)"/><path d="M 226 136v 9h 9v -4.5a 4.5 4.5, 0, 0, 0, -4.5 -4.5" transform="rotate(0,230.5,140.5)"/><path d="M 244 136v 9h 4.5a 4.5 4.5, 0, 0, 0, 0 -9" transform="rotate(180,248.5,140.5)"/><rect x="253" y="136" width="9" height="9" transform="rotate(0,257.5,140.5)"/><path d="M 262 136v 9h 9v -4.5a 4.5 4.5, 0, 0, 0, -4.5 -4.5" transform="rotate(90,266.5,140.5)"/><path d="M 10 145v 9h 4.5a 4.5 4.5, 0, 0, 0, 0 -9" transform="rotate(90,14.5,149.5)"/><path d="M 28 145v 9h 4.5a 4.5 4.5, 0, 0, 0, 0 -9" transform="rotate(180,32.5,149.5)"/><rect x="37" y="145" width="9" height="9" transform="rotate(0,41.5,149.5)"/><rect x="46" y="145" width="9" height="9" transform="rotate(0,50.5,149.5)"/><rect x="55" y="145" width="9" height="9" transform="rotate(0,59.5,149.5)"/><rect x="64" y="145" width="9" height="9" transform="rotate(0,68.5,149.5)"/><rect x="73" y="145" width="9" height="9" transform="rotate(0,77.5,149.5)"/><path d="M 82 145v 9h 9v -4.5a 4.5 4.5, 0, 0, 0, -4.5 -4.5" transform="rotate(90,86.5,149.5)"/><path d="M 100 145v 9h 4.5a 4.5 4.5, 0, 0, 0, 0 -9" transform="rotate(90,104.5,149.5)"/><circle cx="122.5" cy="149.5" r="4.5" transform="rotate(0,122.5,149.5)"/><path d="M 136 145v 9h 9v -4.5a 4.5 4.5, 0, 0, 0, -4.5 -4.5" transform="rotate(180,140.5,149.5)"/><rect x="145" y="145" width="9" height="9" transform="rotate(0,149.5,149.5)"/><rect x="154" y="145" width="9" height="9" transform="rotate(0,158.5,149.5)"/><rect x="190" y="145" width="9" height="9" transform="rotate(0,194.5,149.5)"/><rect x="208" y="145" width="9" height="9" transform="rotate(0,212.5,149.5)"/><path d="M 226 145v 9h 9v -4.5a 4.5 4.5, 0, 0, 0, -4.5 -4.5" transform="rotate(180,230.5,149.5)"/><path d="M 235 145v 9h 4.5a 4.5 4.5, 0, 0, 0, 0 -9" transform="rotate(0,239.5,149.5)"/><path d="M 253 145v 9h 4.5a 4.5 4.5, 0, 0, 0, 0 -9" transform="rotate(90,257.5,149.5)"/><circle cx="284.5" cy="149.5" r="4.5" transform="rotate(0,284.5,149.5)"/><path d="M 1 154v 9h 4.5a 4.5 4.5, 0, 0, 0, 0 -9" transform="rotate(-90,5.5,158.5)"/><path d="M 19 154v 9h 4.5a 4.5 4.5, 0, 0, 0, 0 -9" transform="rotate(-90,23.5,158.5)"/><rect x="37" y="154" width="9" height="9" transform="rotate(0,41.5,158.5)"/><rect x="46" y="154" width="9" height="9" transform="rotate(0,50.5,158.5)"/><path d="M 64 154v 9h 4.5a 4.5 4.5, 0, 0, 0, 0 -9" transform="rotate(90,68.5,158.5)"/><path d="M 91 154v 9h 4.5a 4.5 4.5, 0, 0, 0, 0 -9" transform="rotate(-90,95.5,158.5)"/><path d="M 127 154v 9h 4.5a 4.5 4.5, 0, 0, 0, 0 -9" transform="rotate(-90,131.5,158.5)"/><rect x="154" y="154" width="9" height="9" transform="rotate(0,158.5,158.5)"/><path d="M 181 154v 9h 4.5a 4.5 4.5, 0, 0, 0, 0 -9" transform="rotate(180,185.5,158.5)"/><rect x="190" y="154" width="9" height="9" transform="rotate(0,194.5,158.5)"/><rect x="199" y="154" width="9" height="9" transform="rotate(0,203.5,158.5)"/><rect x="208" y="154" width="9" height="9" transform="rotate(0,212.5,158.5)"/><path d="M 217 154v 9h 4.5a 4.5 4.5, 0, 0, 0, 0 -9" transform="rotate(0,221.5,158.5)"/><path d="M 262 154v 9h 9v -4.5a 4.5 4.5, 0, 0, 0, -4.5 -4.5" transform="rotate(-90,266.5,158.5)"/><path d="M 271 154v 9h 4.5a 4.5 4.5, 0, 0, 0, 0 -9" transform="rotate(0,275.5,158.5)"/><rect x="1" y="163" width="9" height="9" transform="rotate(0,5.5,167.5)"/><rect x="19" y="163" width="9" height="9" transform="rotate(0,23.5,167.5)"/><rect x="28" y="163" width="9" height="9" transform="rotate(0,32.5,167.5)"/><rect x="37" y="163" width="9" height="9" transform="rotate(0,41.5,167.5)"/><rect x="46" y="163" width="9" height="9" transform="rotate(0,50.5,167.5)"/><path d="M 55 163v 9h 4.5a 4.5 4.5, 0, 0, 0, 0 -9" transform="rotate(0,59.5,167.5)"/><rect x="91" y="163" width="9" height="9" transform="rotate(0,95.5,167.5)"/><rect x="100" y="163" width="9" height="9" transform="rotate(0,104.5,167.5)"/><path d="M 109 163v 9h 4.5a 4.5 4.5, 0, 0, 0, 0 -9" transform="rotate(0,113.5,167.5)"/><rect x="127" y="163" width="9" height="9" transform="rotate(0,131.5,167.5)"/><path d="M 145 163v 9h 4.5a 4.5 4.5, 0, 0, 0, 0 -9" transform="rotate(180,149.5,167.5)"/><path d="M 154 163v 9h 9v -4.5a 4.5 4.5, 0, 0, 0, -4.5 -4.5" transform="rotate(90,158.5,167.5)"/><path d="M 208 163v 9h 4.5a 4.5 4.5, 0, 0, 0, 0 -9" transform="rotate(90,212.5,167.5)"/><path d="M 226 163v 9h 9v -4.5a 4.5 4.5, 0, 0, 0, -4.5 -4.5" transform="rotate(-90,230.5,167.5)"/><path d="M 235 163v 9h 9v -4.5a 4.5 4.5, 0, 0, 0, -4.5 -4.5" transform="rotate(0,239.5,167.5)"/><path d="M 262 163v 9h 4.5a 4.5 4.5, 0, 0, 0, 0 -9" transform="rotate(90,266.5,167.5)"/><path d="M 280 163v 9h 4.5a 4.5 4.5, 0, 0, 0, 0 -9" transform="rotate(-90,284.5,167.5)"/><rect x="1" y="172" width="9" height="9" transform="rotate(0,5.5,176.5)"/><rect x="10" y="172" width="9" height="9" transform="rotate(0,14.5,176.5)"/><rect x="19" y="172" width="9" height="9" transform="rotate(0,23.5,176.5)"/><path d="M 28 172v 9h 9v -4.5a 4.5 4.5, 0, 0, 0, -4.5 -4.5" transform="rotate(90,32.5,176.5)"/><rect x="46" y="172" width="9" height="9" transform="rotate(0,50.5,176.5)"/><path d="M 64 172v 9h 9v -4.5a 4.5 4.5, 0, 0, 0, -4.5 -4.5" transform="rotate(-90,68.5,176.5)"/><rect x="73" y="172" width="9" height="9" transform="rotate(0,77.5,176.5)"/><rect x="82" y="172" width="9" height="9" transform="rotate(0,86.5,176.5)"/><path d="M 91 172v 9h 9v -4.5a 4.5 4.5, 0, 0, 0, -4.5 -4.5" transform="rotate(90,95.5,176.5)"/><path d="M 118 172v 9h 9v -4.5a 4.5 4.5, 0, 0, 0, -4.5 -4.5" transform="rotate(-90,122.5,176.5)"/><rect x="127" y="172" width="9" height="9" transform="rotate(0,131.5,176.5)"/><circle cx="176.5" cy="176.5" r="4.5" transform="rotate(0,176.5,176.5)"/><path d="M 199 172v 9h 4.5a 4.5 4.5, 0, 0, 0, 0 -9" transform="rotate(-90,203.5,176.5)"/><path d="M 217 172v 9h 9v -4.5a 4.5 4.5, 0, 0, 0, -4.5 -4.5" transform="rotate(-90,221.5,176.5)"/><rect x="226" y="172" width="9" height="9" transform="rotate(0,230.5,176.5)"/><rect x="235" y="172" width="9" height="9" transform="rotate(0,239.5,176.5)"/><path d="M 280 172v 9h 9v -4.5a 4.5 4.5, 0, 0, 0, -4.5 -4.5" transform="rotate(180,284.5,176.5)"/><path d="M 289 172v 9h 4.5a 4.5 4.5, 0, 0, 0, 0 -9" transform="rotate(0,293.5,176.5)"/><rect x="1" y="181" width="9" height="9" transform="rotate(0,5.5,185.5)"/><rect x="10" y="181" width="9" height="9" transform="rotate(0,14.5,185.5)"/><rect x="19" y="181" width="9" height="9" transform="rotate(0,23.5,185.5)"/><path d="M 46 181v 9h 9v -4.5a 4.5 4.5, 0, 0, 0, -4.5 -4.5" transform="rotate(180,50.5,185.5)"/><rect x="55" y="181" width="9" height="9" transform="rotate(0,59.5,185.5)"/><path d="M 64 181v 9h 9v -4.5a 4.5 4.5, 0, 0, 0, -4.5 -4.5" transform="rotate(90,68.5,185.5)"/><path d="M 118 181v 9h 9v -4.5a 4.5 4.5, 0, 0, 0, -4.5 -4.5" transform="rotate(180,122.5,185.5)"/><rect x="127" y="181" width="9" height="9" transform="rotate(0,131.5,185.5)"/><path d="M 136 181v 9h 9v -4.5a 4.5 4.5, 0, 0, 0, -4.5 -4.5" transform="rotate(0,140.5,185.5)"/><circle cx="167.5" cy="185.5" r="4.5" transform="rotate(0,167.5,185.5)"/><path d="M 199 181v 9h 9v -4.5a 4.5 4.5, 0, 0, 0, -4.5 -4.5" transform="rotate(180,203.5,185.5)"/><rect x="208" y="181" width="9" height="9" transform="rotate(0,212.5,185.5)"/><path d="M 217 181v 9h 9v -4.5a 4.5 4.5, 0, 0, 0, -4.5 -4.5" transform="rotate(90,221.5,185.5)"/><rect x="235" y="181" width="9" height="9" transform="rotate(0,239.5,185.5)"/><path d="M 253 181v 9h 4.5a 4.5 4.5, 0, 0, 0, 0 -9" transform="rotate(180,257.5,185.5)"/><path d="M 262 181v 9h 9v -4.5a 4.5 4.5, 0, 0, 0, -4.5 -4.5" transform="rotate(0,266.5,185.5)"/><path d="M 1 190v 9h 4.5a 4.5 4.5, 0, 0, 0, 0 -9" transform="rotate(90,5.5,194.5)"/><rect x="19" y="190" width="9" height="9" transform="rotate(0,23.5,194.5)"/><path d="M 73 190v 9h 9v -4.5a 4.5 4.5, 0, 0, 0, -4.5 -4.5" transform="rotate(-90,77.5,194.5)"/><path d="M 82 190v 9h 4.5a 4.5 4.5, 0, 0, 0, 0 -9" transform="rotate(0,86.5,194.5)"/><path d="M 127 190v 9h 9v -4.5a 4.5 4.5, 0, 0, 0, -4.5 -4.5" transform="rotate(180,131.5,194.5)"/><path d="M 136 190v 9h 9v -4.5a 4.5 4.5, 0, 0, 0, -4.5 -4.5" transform="rotate(90,140.5,194.5)"/><path d="M 172 190v 9h 4.5a 4.5 4.5, 0, 0, 0, 0 -9" transform="rotate(180,176.5,194.5)"/><path d="M 181 190v 9h 9v -4.5a 4.5 4.5, 0, 0, 0, -4.5 -4.5" transform="rotate(0,185.5,194.5)"/><rect x="208" y="190" width="9" height="9" transform="rotate(0,212.5,194.5)"/><rect x="235" y="190" width="9" height="9" transform="rotate(0,239.5,194.5)"/><path d="M 244 190v 9h 4.5a 4.5 4.5, 0, 0, 0, 0 -9" transform="rotate(0,248.5,194.5)"/><path d="M 262 190v 9h 4.5a 4.5 4.5, 0, 0, 0, 0 -9" transform="rotate(90,266.5,194.5)"/><path d="M 280 190v 9h 4.5a 4.5 4.5, 0, 0, 0, 0 -9" transform="rotate(-90,284.5,194.5)"/><path d="M 19 199v 9h 4.5a 4.5 4.5, 0, 0, 0, 0 -9" transform="rotate(90,23.5,203.5)"/><path d="M 37 199v 9h 9v -4.5a 4.5 4.5, 0, 0, 0, -4.5 -4.5" transform="rotate(-90,41.5,203.5)"/><rect x="46" y="199" width="9" height="9" transform="rotate(0,50.5,203.5)"/><path d="M 55 199v 9h 4.5a 4.5 4.5, 0, 0, 0, 0 -9" transform="rotate(0,59.5,203.5)"/><rect x="73" y="199" width="9" height="9" transform="rotate(0,77.5,203.5)"/><path d="M 91 199v 9h 9v -4.5a 4.5 4.5, 0, 0, 0, -4.5 -4.5" transform="rotate(-90,95.5,203.5)"/><path d="M 100 199v 9h 9v -4.5a 4.5 4.5, 0, 0, 0, -4.5 -4.5" transform="rotate(0,104.5,203.5)"/><circle cx="122.5" cy="203.5" r="4.5" transform="rotate(0,122.5,203.5)"/><path d="M 154 199v 9h 9v -4.5a 4.5 4.5, 0, 0, 0, -4.5 -4.5" transform="rotate(-90,158.5,203.5)"/><path d="M 163 199v 9h 9v -4.5a 4.5 4.5, 0, 0, 0, -4.5 -4.5" transform="rotate(0,167.5,203.5)"/><path d="M 181 199v 9h 9v -4.5a 4.5 4.5, 0, 0, 0, -4.5 -4.5" transform="rotate(180,185.5,203.5)"/><rect x="190" y="199" width="9" height="9" transform="rotate(0,194.5,203.5)"/><rect x="199" y="199" width="9" height="9" transform="rotate(0,203.5,203.5)"/><rect x="208" y="199" width="9" height="9" transform="rotate(0,212.5,203.5)"/><path d="M 217 199v 9h 9v -4.5a 4.5 4.5, 0, 0, 0, -4.5 -4.5" transform="rotate(0,221.5,203.5)"/><path d="M 235 199v 9h 4.5a 4.5 4.5, 0, 0, 0, 0 -9" transform="rotate(90,239.5,203.5)"/><path d="M 271 199v 9h 4.5a 4.5 4.5, 0, 0, 0, 0 -9" transform="rotate(180,275.5,203.5)"/><path d="M 280 199v 9h 9v -4.5a 4.5 4.5, 0, 0, 0, -4.5 -4.5" transform="rotate(90,284.5,203.5)"/><path d="M 37 208v 9h 4.5a 4.5 4.5, 0, 0, 0, 0 -9" transform="rotate(90,41.5,212.5)"/><path d="M 64 208v 9h 4.5a 4.5 4.5, 0, 0, 0, 0 -9" transform="rotate(180,68.5,212.5)"/><rect x="73" y="208" width="9" height="9" transform="rotate(0,77.5,212.5)"/><rect x="82" y="208" width="9" height="9" transform="rotate(0,86.5,212.5)"/><rect x="91" y="208" width="9" height="9" transform="rotate(0,95.5,212.5)"/><rect x="100" y="208" width="9" height="9" transform="rotate(0,104.5,212.5)"/><path d="M 127 208v 9h 4.5a 4.5 4.5, 0, 0, 0, 0 -9" transform="rotate(-90,131.5,212.5)"/><path d="M 145 208v 9h 9v -4.5a 4.5 4.5, 0, 0, 0, -4.5 -4.5" transform="rotate(-90,149.5,212.5)"/><rect x="154" y="208" width="9" height="9" transform="rotate(0,158.5,212.5)"/><path d="M 163 208v 9h 9v -4.5a 4.5 4.5, 0, 0, 0, -4.5 -4.5" transform="rotate(90,167.5,212.5)"/><rect x="190" y="208" width="9" height="9" transform="rotate(0,194.5,212.5)"/><rect x="217" y="208" width="9" height="9" transform="rotate(0,221.5,212.5)"/><path d="M 226 208v 9h 9v -4.5a 4.5 4.5, 0, 0, 0, -4.5 -4.5" transform="rotate(0,230.5,212.5)"/><path d="M 244 208v 9h 9v -4.5a 4.5 4.5, 0, 0, 0, -4.5 -4.5" transform="rotate(-90,248.5,212.5)"/><path d="M 253 208v 9h 9v -4.5a 4.5 4.5, 0, 0, 0, -4.5 -4.5" transform="rotate(0,257.5,212.5)"/><path d="M 289 208v 9h 4.5a 4.5 4.5, 0, 0, 0, 0 -9" transform="rotate(-90,293.5,212.5)"/><path d="M 1 217v 9h 4.5a 4.5 4.5, 0, 0, 0, 0 -9" transform="rotate(180,5.5,221.5)"/><path d="M 10 217v 9h 4.5a 4.5 4.5, 0, 0, 0, 0 -9" transform="rotate(0,14.5,221.5)"/><path d="M 46 217v 9h 4.5a 4.5 4.5, 0, 0, 0, 0 -9" transform="rotate(180,50.5,221.5)"/><path d="M 55 217v 9h 4.5a 4.5 4.5, 0, 0, 0, 0 -9" transform="rotate(0,59.5,221.5)"/><rect x="73" y="217" width="9" height="9" transform="rotate(0,77.5,221.5)"/><rect x="91" y="217" width="9" height="9" transform="rotate(0,95.5,221.5)"/><path d="M 100 217v 9h 9v -4.5a 4.5 4.5, 0, 0, 0, -4.5 -4.5" transform="rotate(90,104.5,221.5)"/><rect x="127" y="217" width="9" height="9" transform="rotate(0,131.5,221.5)"/><rect x="136" y="217" width="9" height="9" transform="rotate(0,140.5,221.5)"/><path d="M 145 217v 9h 9v -4.5a 4.5 4.5, 0, 0, 0, -4.5 -4.5" transform="rotate(90,149.5,221.5)"/><circle cx="176.5" cy="221.5" r="4.5" transform="rotate(0,176.5,221.5)"/><path d="M 190 217v 9h 4.5a 4.5 4.5, 0, 0, 0, 0 -9" transform="rotate(90,194.5,221.5)"/><rect x="217" y="217" width="9" height="9" transform="rotate(0,221.5,221.5)"/><rect x="226" y="217" width="9" height="9" transform="rotate(0,230.5,221.5)"/><rect x="235" y="217" width="9" height="9" transform="rotate(0,239.5,221.5)"/><rect x="244" y="217" width="9" height="9" transform="rotate(0,248.5,221.5)"/><rect x="253" y="217" width="9" height="9" transform="rotate(0,257.5,221.5)"/><path d="M 262 217v 9h 4.5a 4.5 4.5, 0, 0, 0, 0 -9" transform="rotate(0,266.5,221.5)"/><path d="M 289 217v 9h 4.5a 4.5 4.5, 0, 0, 0, 0 -9" transform="rotate(90,293.5,221.5)"/><path d="M 73 226v 9h 4.5a 4.5 4.5, 0, 0, 0, 0 -9" transform="rotate(90,77.5,230.5)"/><path d="M 91 226v 9h 4.5a 4.5 4.5, 0, 0, 0, 0 -9" transform="rotate(90,95.5,230.5)"/><path d="M 127 226v 9h 9v -4.5a 4.5 4.5, 0, 0, 0, -4.5 -4.5" transform="rotate(180,131.5,230.5)"/><rect x="136" y="226" width="9" height="9" transform="rotate(0,140.5,230.5)"/><path d="M 154 226v 9h 9v -4.5a 4.5 4.5, 0, 0, 0, -4.5 -4.5" transform="rotate(-90,158.5,230.5)"/><path d="M 163 226v 9h 4.5a 4.5 4.5, 0, 0, 0, 0 -9" transform="rotate(0,167.5,230.5)"/><path d="M 181 226v 9h 4.5a 4.5 4.5, 0, 0, 0, 0 -9" transform="rotate(-90,185.5,230.5)"/><rect x="217" y="226" width="9" height="9" transform="rotate(0,221.5,230.5)"/><rect x="253" y="226" width="9" height="9" transform="rotate(0,257.5,230.5)"/><path d="M 271 226v 9h 4.5a 4.5 4.5, 0, 0, 0, 0 -9" transform="rotate(180,275.5,230.5)"/><path d="M 280 226v 9h 4.5a 4.5 4.5, 0, 0, 0, 0 -9" transform="rotate(0,284.5,230.5)"/><path d="M 100 235v 9h 4.5a 4.5 4.5, 0, 0, 0, 0 -9" transform="rotate(-90,104.5,239.5)"/><path d="M 136 235v 9h 9v -4.5a 4.5 4.5, 0, 0, 0, -4.5 -4.5" transform="rotate(180,140.5,239.5)"/><rect x="145" y="235" width="9" height="9" transform="rotate(0,149.5,239.5)"/><rect x="154" y="235" width="9" height="9" transform="rotate(0,158.5,239.5)"/><rect x="181" y="235" width="9" height="9" transform="rotate(0,185.5,239.5)"/><rect x="190" y="235" width="9" height="9" transform="rotate(0,194.5,239.5)"/><path d="M 199 235v 9h 4.5a 4.5 4.5, 0, 0, 0, 0 -9" transform="rotate(0,203.5,239.5)"/><rect x="217" y="235" width="9" height="9" transform="rotate(0,221.5,239.5)"/><circle cx="239.5" cy="239.5" r="4.5" transform="rotate(0,239.5,239.5)"/><rect x="253" y="235" width="9" height="9" transform="rotate(0,257.5,239.5)"/><path d="M 262 235v 9h 9v -4.5a 4.5 4.5, 0, 0, 0, -4.5 -4.5" transform="rotate(0,266.5,239.5)"/><path d="M 82 244v 9h 9v -4.5a 4.5 4.5, 0, 0, 0, -4.5 -4.5" transform="rotate(-90,86.5,248.5)"/><rect x="91" y="244" width="9" height="9" transform="rotate(0,95.5,248.5)"/><rect x="100" y="244" width="9" height="9" transform="rotate(0,104.5,248.5)"/><path d="M 118 244v 9h 4.5a 4.5 4.5, 0, 0, 0, 0 -9" transform="rotate(-90,122.5,248.5)"/><path d="M 154 244v 9h 9v -4.5a 4.5 4.5, 0, 0, 0, -4.5 -4.5" transform="rotate(180,158.5,248.5)"/><path d="M 163 244v 9h 9v -4.5a 4.5 4.5, 0, 0, 0, -4.5 -4.5" transform="rotate(0,167.5,248.5)"/><rect x="181" y="244" width="9" height="9" transform="rotate(0,185.5,248.5)"/><path d="M 190 244v 9h 9v -4.5a 4.5 4.5, 0, 0, 0, -4.5 -4.5" transform="rotate(90,194.5,248.5)"/><path d="M 208 244v 9h 4.5a 4.5 4.5, 0, 0, 0, 0 -9" transform="rotate(180,212.5,248.5)"/><rect x="217" y="244" width="9" height="9" transform="rotate(0,221.5,248.5)"/><rect x="253" y="244" width="9" height="9" transform="rotate(0,257.5,248.5)"/><rect x="262" y="244" width="9" height="9" transform="rotate(0,266.5,248.5)"/><path d="M 73 253v 9h 4.5a 4.5 4.5, 0, 0, 0, 0 -9" transform="rotate(180,77.5,257.5)"/><rect x="82" y="253" width="9" height="9" transform="rotate(0,86.5,257.5)"/><rect x="100" y="253" width="9" height="9" transform="rotate(0,104.5,257.5)"/><rect x="118" y="253" width="9" height="9" transform="rotate(0,122.5,257.5)"/><path d="M 136 253v 9h 4.5a 4.5 4.5, 0, 0, 0, 0 -9" transform="rotate(-90,140.5,257.5)"/><rect x="163" y="253" width="9" height="9" transform="rotate(0,167.5,257.5)"/><rect x="172" y="253" width="9" height="9" transform="rotate(0,176.5,257.5)"/><path d="M 181 253v 9h 9v -4.5a 4.5 4.5, 0, 0, 0, -4.5 -4.5" transform="rotate(90,185.5,257.5)"/><path d="M 217 253v 9h 9v -4.5a 4.5 4.5, 0, 0, 0, -4.5 -4.5" transform="rotate(180,221.5,257.5)"/><rect x="226" y="253" width="9" height="9" transform="rotate(0,230.5,257.5)"/><rect x="235" y="253" width="9" height="9" transform="rotate(0,239.5,257.5)"/><rect x="244" y="253" width="9" height="9" transform="rotate(0,248.5,257.5)"/><rect x="253" y="253" width="9" height="9" transform="rotate(0,257.5,257.5)"/><path d="M 262 253v 9h 9v -4.5a 4.5 4.5, 0, 0, 0, -4.5 -4.5" transform="rotate(90,266.5,257.5)"/><path d="M 280 253v 9h 9v -4.5a 4.5 4.5, 0, 0, 0, -4.5 -4.5" transform="rotate(-90,284.5,257.5)"/><path d="M 289 253v 9h 4.5a 4.5 4.5, 0, 0, 0, 0 -9" transform="rotate(0,293.5,257.5)"/><rect x="82" y="262" width="9" height="9" transform="rotate(0,86.5,266.5)"/><rect x="100" y="262" width="9" height="9" transform="rotate(0,104.5,266.5)"/><rect x="118" y="262" width="9" height="9" transform="rotate(0,122.5,266.5)"/><rect x="127" y="262" width="9" height="9" transform="rotate(0,131.5,266.5)"/><path d="M 136 262v 9h 9v -4.5a 4.5 4.5, 0, 0, 0, -4.5 -4.5" transform="rotate(90,140.5,266.5)"/><path d="M 163 262v 9h 9v -4.5a 4.5 4.5, 0, 0, 0, -4.5 -4.5" transform="rotate(180,167.5,266.5)"/><rect x="172" y="262" width="9" height="9" transform="rotate(0,176.5,266.5)"/><path d="M 190 262v 9h 4.5a 4.5 4.5, 0, 0, 0, 0 -9" transform="rotate(180,194.5,266.5)"/><path d="M 199 262v 9h 4.5a 4.5 4.5, 0, 0, 0, 0 -9" transform="rotate(0,203.5,266.5)"/><rect x="226" y="262" width="9" height="9" transform="rotate(0,230.5,266.5)"/><rect x="235" y="262" width="9" height="9" transform="rotate(0,239.5,266.5)"/><rect x="253" y="262" width="9" height="9" transform="rotate(0,257.5,266.5)"/><path d="M 271 262v 9h 9v -4.5a 4.5 4.5, 0, 0, 0, -4.5 -4.5" transform="rotate(-90,275.5,266.5)"/><path d="M 280 262v 9h 9v -4.5a 4.5 4.5, 0, 0, 0, -4.5 -4.5" transform="rotate(90,284.5,266.5)"/><path d="M 82 271v 9h 9v -4.5a 4.5 4.5, 0, 0, 0, -4.5 -4.5" transform="rotate(180,86.5,275.5)"/><rect x="91" y="271" width="9" height="9" transform="rotate(0,95.5,275.5)"/><rect x="100" y="271" width="9" height="9" transform="rotate(0,104.5,275.5)"/><rect x="109" y="271" width="9" height="9" transform="rotate(0,113.5,275.5)"/><path d="M 118 271v 9h 9v -4.5a 4.5 4.5, 0, 0, 0, -4.5 -4.5" transform="rotate(90,122.5,275.5)"/><path d="M 145 271v 9h 4.5a 4.5 4.5, 0, 0, 0, 0 -9" transform="rotate(180,149.5,275.5)"/><path d="M 154 271v 9h 9v -4.5a 4.5 4.5, 0, 0, 0, -4.5 -4.5" transform="rotate(0,158.5,275.5)"/><rect x="172" y="271" width="9" height="9" transform="rotate(0,176.5,275.5)"/><circle cx="212.5" cy="275.5" r="4.5" transform="rotate(0,212.5,275.5)"/><path d="M 226 271v 9h 9v -4.5a 4.5 4.5, 0, 0, 0, -4.5 -4.5" transform="rotate(180,230.5,275.5)"/><rect x="235" y="271" width="9" height="9" transform="rotate(0,239.5,275.5)"/><rect x="244" y="271" width="9" height="9" transform="rotate(0,248.5,275.5)"/><path d="M 253 271v 9h 9v -4.5a 4.5 4.5, 0, 0, 0, -4.5 -4.5" transform="rotate(90,257.5,275.5)"/><path d="M 271 271v 9h 4.5a 4.5 4.5, 0, 0, 0, 0 -9" transform="rotate(90,275.5,275.5)"/><circle cx="77.5" cy="284.5" r="4.5" transform="rotate(0,77.5,284.5)"/><rect x="91" y="280" width="9" height="9" transform="rotate(0,95.5,284.5)"/><path d="M 100 280v 9h 9v -4.5a 4.5 4.5, 0, 0, 0, -4.5 -4.5" transform="rotate(90,104.5,284.5)"/><circle cx="131.5" cy="284.5" r="4.5" transform="rotate(0,131.5,284.5)"/><path d="M 154 280v 9h 9v -4.5a 4.5 4.5, 0, 0, 0, -4.5 -4.5" transform="rotate(180,158.5,284.5)"/><rect x="163" y="280" width="9" height="9" transform="rotate(0,167.5,284.5)"/><rect x="172" y="280" width="9" height="9" transform="rotate(0,176.5,284.5)"/><rect x="181" y="280" width="9" height="9" transform="rotate(0,185.5,284.5)"/><rect x="190" y="280" width="9" height="9" transform="rotate(0,194.5,284.5)"/><path d="M 199 280v 9h 4.5a 4.5 4.5, 0, 0, 0, 0 -9" transform="rotate(0,203.5,284.5)"/><path d="M 217 280v 9h 4.5a 4.5 4.5, 0, 0, 0, 0 -9" transform="rotate(-90,221.5,284.5)"/><path d="M 244 280v 9h 4.5a 4.5 4.5, 0, 0, 0, 0 -9" transform="rotate(90,248.5,284.5)"/><path d="M 91 289v 9h 4.5a 4.5 4.5, 0, 0, 0, 0 -9" transform="rotate(90,95.5,293.5)"/><circle cx="122.5" cy="293.5" r="4.5" transform="rotate(0,122.5,293.5)"/><path d="M 136 289v 9h 4.5a 4.5 4.5, 0, 0, 0, 0 -9" transform="rotate(180,140.5,293.5)"/><path d="M 145 289v 9h 4.5a 4.5 4.5, 0, 0, 0, 0 -9" transform="rotate(0,149.5,293.5)"/><path d="M 163 289v 9h 4.5a 4.5 4.5, 0, 0, 0, 0 -9" transform="rotate(90,167.5,293.5)"/><path d="M 190 289v 9h 4.5a 4.5 4.5, 0, 0, 0, 0 -9" transform="rotate(90,194.5,293.5)"/><path d="M 217 289v 9h 4.5a 4.5 4.5, 0, 0, 0, 0 -9" transform="rotate(90,221.5,293.5)"/><circle cx="257.5" cy="293.5" r="4.5" transform="rotate(0,257.5,293.5)"/><circle cx="293.5" cy="293.5" r="4.5" transform="rotate(0,293.5,293.5)"/></clipPath><clipPath id="clip-path-corners-square-color-0-0-0"><path clip-rule="evenodd" d="M 1 23.5v 18a 22.5 22.5, 0, 0, 0, 22.5 22.5h 18a 22.5 22.5, 0, 0, 0, 22.5 -22.5v -18a 22.5 22.5, 0, 0, 0, -22.5 -22.5h -18a 22.5 22.5, 0, 0, 0, -22.5 22.5M 23.5 10h 18a 13.5 13.5, 0, 0, 1, 13.5 13.5v 18a 13.5 13.5, 0, 0, 1, -13.5 13.5h -18a 13.5 13.5, 0, 0, 1, -13.5 -13.5v -18a 13.5 13.5, 0, 0, 1, 13.5 -13.5" transform="rotate(0,32.5,32.5)"/><path d="M 19 19v 9h 9v -4.5a 4.5 4.5, 0, 0, 0, -4.5 -4.5" transform="rotate(-90,23.5,23.5)"/><rect x="28" y="19" width="9" height="9" transform="rotate(0,32.5,23.5)"/><path d="M 37 19v 9h 9v -4.5a 4.5 4.5, 0, 0, 0, -4.5 -4.5" transform="rotate(0,41.5,23.5)"/><rect x="19" y="28" width="9" height="9" transform="rotate(0,23.5,32.5)"/><rect x="28" y="28" width="9" height="9" transform="rotate(0,32.5,32.5)"/><rect x="37" y="28" width="9" height="9" transform="rotate(0,41.5,32.5)"/><path d="M 19 37v 9h 9v -4.5a 4.5 4.5, 0, 0, 0, -4.5 -4.5" transform="rotate(180,23.5,41.5)"/><rect x="28" y="37" width="9" height="9" transform="rotate(0,32.5,41.5)"/><path d="M 37 37v 9h 9v -4.5a 4.5 4.5, 0, 0, 0, -4.5 -4.5" transform="rotate(90,41.5,41.5)"/></clipPath><clipPath id="clip-path-corners-square-color-1-0-0"><path clip-rule="evenodd" d="M 235 23.5v 18a 22.5 22.5, 0, 0, 0, 22.5 22.5h 18a 22.5 22.5, 0, 0, 0, 22.5 -22.5v -18a 22.5 22.5, 0, 0, 0, -22.5 -22.5h -18a 22.5 22.5, 0, 0, 0, -22.5 22.5M 257.5 10h 18a 13.5 13.5, 0, 0, 1, 13.5 13.5v 18a 13.5 13.5, 0, 0, 1, -13.5 13.5h -18a 13.5 13.5, 0, 0, 1, -13.5 -13.5v -18a 13.5 13.5, 0, 0, 1, 13.5 -13.5" transform="rotate(90,266.5,32.5)"/><path d="M 253 19v 9h 9v -4.5a 4.5 4.5, 0, 0, 0, -4.5 -4.5" transform="rotate(-90,257.5,23.5)"/><rect x="262" y="19" width="9" height="9" transform="rotate(0,266.5,23.5)"/><path d="M 271 19v 9h 9v -4.5a 4.5 4.5, 0, 0, 0, -4.5 -4.5" transform="rotate(0,275.5,23.5)"/><rect x="253" y="28" width="9" height="9" transform="rotate(0,257.5,32.5)"/><rect x="262" y="28" width="9" height="9" transform="rotate(0,266.5,32.5)"/><rect x="271" y="28" width="9" height="9" transform="rotate(0,275.5,32.5)"/><path d="M 253 37v 9h 9v -4.5a 4.5 4.5, 0, 0, 0, -4.5 -4.5" transform="rotate(180,257.5,41.5)"/><rect x="262" y="37" width="9" height="9" transform="rotate(0,266.5,41.5)"/><path d="M 271 37v 9h 9v -4.5a 4.5 4.5, 0, 0, 0, -4.5 -4.5" transform="rotate(90,275.5,41.5)"/></clipPath><clipPath id="clip-path-corners-square-color-0-1-0"><path clip-rule="evenodd" d="M 1 257.5v 18a 22.5 22.5, 0, 0, 0, 22.5 22.5h 18a 22.5 22.5, 0, 0, 0, 22.5 -22.5v -18a 22.5 22.5, 0, 0, 0, -22.5 -22.5h -18a 22.5 22.5, 0, 0, 0, -22.5 22.5M 23.5 244h 18a 13.5 13.5, 0, 0, 1, 13.5 13.5v 18a 13.5 13.5, 0, 0, 1, -13.5 13.5h -18a 13.5 13.5, 0, 0, 1, -13.5 -13.5v -18a 13.5 13.5, 0, 0, 1, 13.5 -13.5" transform="rotate(-90,32.5,266.5)"/><path d="M 19 253v 9h 9v -4.5a 4.5 4.5, 0, 0, 0, -4.5 -4.5" transform="rotate(-90,23.5,257.5)"/><rect x="28" y="253" width="9" height="9" transform="rotate(0,32.5,257.5)"/><path d="M 37 253v 9h 9v -4.5a 4.5 4.5, 0, 0, 0, -4.5 -4.5" transform="rotate(0,41.5,257.5)"/><rect x="19" y="262" width="9" height="9" transform="rotate(0,23.5,266.5)"/><rect x="28" y="262" width="9" height="9" transform="rotate(0,32.5,266.5)"/><rect x="37" y="262" width="9" height="9" transform="rotate(0,41.5,266.5)"/><path d="M 19 271v 9h 9v -4.5a 4.5 4.5, 0, 0, 0, -4.5 -4.5" transform="rotate(180,23.5,275.5)"/><rect x="28" y="271" width="9" height="9" transform="rotate(0,32.5,275.5)"/><path d="M 37 271v 9h 9v -4.5a 4.5 4.5, 0, 0, 0, -4.5 -4.5" transform="rotate(90,41.5,275.5)"/></clipPath></defs><rect x="0" y="0" height="300" width="300" clip-path="url('#clip-path-background-color-0')" fill="#ffffffff"/><rect x="0" y="0" height="300" width="300" clip-path="url('#clip-path-dot-color-0')" fill="#046a81ff"/><rect x="1" y="1" height="63" width="63" clip-path="url('#clip-path-corners-square-color-0-0-0')" fill="#087b8dff"/><rect x="235" y="1" height="63" width="63" clip-path="url('#clip-path-corners-square-color-1-0-0')" fill="#087b8dff"/><rect x="1" y="235" height="63" width="63" clip-path="url('#clip-path-corners-square-color-0-1-0')" fill="#087b8dff"/></svg>