<?xml version="1.0" standalone="no"?>
<svg xmlns="http://www.w3.org/2000/svg" width="300" height="300" xmlns:xlink="http://www.w3.org/1999/xlink" viewBox="0 0 300 300"><defs><clipPath id="clip-path-background-color-0"><rect x="0" y="0" width="300" height="300"/></clipPath><clipPath id="clip-path-dot-color-0"><path d="M 73 1v 9h 4.5a 4.5 4.5, 0, 0, 0, 0 -9" transform="rotate(180,77.5,5.5)"/><rect x="82" y="1" width="9" height="9" transform="rotate(0,86.5,5.5)"/><path d="M 91 1v 9h 4.5a 4.5 4.5, 0, 0, 0, 0 -9" transform="rotate(0,95.5,5.5)"/><path d="M 145 1v 9h 9v -4.5a 4.5 4.5, 0, 0, 0, -4.5 -4.5" transform="rotate(-90,149.5,5.5)"/><path d="M 154 1v 9h 9v -4.5a 4.5 4.5, 0, 0, 0, -4.5 -4.5" transform="rotate(0,158.5,5.5)"/><circle cx="176.5" cy="5.5" r="4.5" transform="rotate(0,176.5,5.5)"/><path d="M 199 1v 9h 9v -4.5a 4.5 4.5, 0, 0, 0, -4.5 -4.5" transform="rotate(-90,203.5,5.5)"/><rect x="208" y="1" width="9" height="9" transform="rotate(0,212.5,5.5)"/><path d="M 217 1v 9h 9v -4.5a 4.5 4.5, 0, 0, 0, -4.5 -4.5" transform="rotate(0,221.5,5.5)"/><path d="M 82 10v 9h 4.5a 4.5 4.5, 0, 0, 0, 0 -9" transform="rotate(90,86.5,14.5)"/><circle cx="113.5" cy="14.5" r="4.5" transform="rotate(0,113.5,14.5)"/><path d="M 127 10v 9h 9v -4.5a 4.5 4.5, 0, 0, 0, -4.5 -4.5" transform="rotate(-90,131.5,14.5)"/><rect x="136" y="10" width="9" height="9" transform="rotate(0,140.5,14.5)"/><rect x="145" y="10" width="9" height="9" transform="rotate(0,149.5,14.5)"/><rect x="154" y="10" width="9" height="9" transform="rotate(0,158.5,14.5)"/><circle cx="185.5" cy="14.5" r="4.5" transform="rotate(0,185.5,14.5)"/><path d="M 199 10v 9h 4.5a 4.5 4.5, 0, 0, 0, 0 -9" transform="rotate(90,203.5,14.5)"/><path d="M 217 10v 9h 4.5a 4.5 4.5, 0, 0, 0, 0 -9" transform="rotate(90,221.5,14.5)"/><rect x="127" y="19" width="9" height="9" transform="rotate(0,131.5,23.5)"/><path d="M 136 19v 9h 9v -4.5a 4.5 4.5, 0, 0, 0, -4.5 -4.5" transform="rotate(90,140.5,23.5)"/><path d="M 154 19v 9h 9v -4.5a 4.5 4.5, 0, 0, 0, -4.5 -4.5" transform="rotate(180,158.5,23.5)"/><path d="M 163 19v 9h 4.5a 4.5 4.5, 0, 0, 0, 0 -9" transform="rotate(0,167.5,23.5)"/><path d="M 190 19v 9h 4.5a 4.5 4.5, 0, 0, 0, 0 -9" transform="rotate(-90,194.5,23.5)"/><circle cx="212.5" cy="23.5" r="4.5" transform="rotate(0,212.5,23.5)"/><path d="M 82 28v 9h 4.5a 4.5 4.5, 0, 0, 0, 0 -9" transform="rotate(-90,86.5,32.5)"/><circle cx="104.5" cy="32.5" r="4.5" transform="rotate(0,104.5,32.5)"/><rect x="127" y="28" width="9" height="9" transform="rotate(0,131.5,32.5)"/><path d="M 145 28v 9h 4.5a 4.5 4.5, 0, 0, 0, 0 -9" transform="rotate(-90,149.5,32.5)"/><path d="M 181 28v 9h 4.5a 4.5 4.5, 0, 0, 0, 0 -9" transform="rotate(180,185.5,32.5)"/><rect x="190" y="28" width="9" height="9" transform="rotate(0,194.5,32.5)"/><path d="M 199 28v 9h 4.5a 4.5 4.5, 0, 0, 0, 0 -9" transform="rotate(0,203.5,32.5)"/><circle cx="221.5" cy="32.5" r="4.5" transform="rotate(0,221.5,32.5)"/><path d="M 73 37v 9h 9v -4.5a 4.5 4.5, 0, 0, 0, -4.5 -4.5" transform="rotate(-90,77.5,41.5)"/><rect x="82" y="37" width="9" height="9" transform="rotate(0,86.5,41.5)"/><path d="M 91 37v 9h 4.5a 4.5 4.5, 0, 0, 0, 0 -9" transform="rotate(0,95.5,41.5)"/><path d="M 118 37v 9h 4.5a 4.5 4.5, 0, 0, 0, 0 -9" transform="rotate(180,122.5,41.5)"/><path d="M 127 37v 9h 9v -4.5a 4.5 4.5, 0, 0, 0, -4.5 -4.5" transform="rotate(90,131.5,41.5)"/><rect x="145" y="37" width="9" height="9" transform="rotate(0,149.5,41.5)"/><path d="M 163 37v 9h 4.5a 4.5 4.5, 0, 0, 0, 0 -9" transform="rotate(-90,167.5,41.5)"/><rect x="73" y="46" width="9" height="9" transform="rotate(0,77.5,50.5)"/><rect x="145" y="46" width="9" height="9" transform="rotate(0,149.5,50.5)"/><rect x="163" y="46" width="9" height="9" transform="rotate(0,167.5,50.5)"/><path d="M 181 46v 9h 9v -4.5a 4.5 4.5, 0, 0, 0, -4.5 -4.5" transform="rotate(-90,185.5,50.5)"/><path d="M 190 46v 9h 4.5a 4.5 4.5, 0, 0, 0, 0 -9" transform="rotate(0,194.5,50.5)"/><path d="M 73 55v 9h 4.5a 4.5 4.5, 0, 0, 0, 0 -9" transform="rotate(90,77.5,59.5)"/><circle cx="95.5" cy="59.5" r="4.5" transform="rotate(0,95.5,59.5)"/><circle cx="113.5" cy="59.5" r="4.5" transform="rotate(0,113.5,59.5)"/><circle cx="131.5" cy="59.5" r="4.5" transform="rotate(0,131.5,59.5)"/><rect x="145" y="55" width="9" height="9" transform="rotate(0,149.5,59.5)"/><rect x="163" y="55" width="9" height="9" transform="rotate(0,167.5,59.5)"/><path d="M 181 55v 9h 4.5a 4.5 4.5, 0, 0, 0, 0 -9" transform="rotate(90,185.5,59.5)"/><circle cx="203.5" cy="59.5" r="4.5" transform="rotate(0,203.5,59.5)"/><path d="M 217 55v 9h 4.5a 4.5 4.5, 0, 0, 0, 0 -9" transform="rotate(-90,221.5,59.5)"/><path d="M 82 64v 9h 4.5a 4.5 4.5, 0, 0, 0, 0 -9" transform="rotate(-90,86.5,68.5)"/><path d="M 136 64v 9h 9v -4.5a 4.5 4.5, 0, 0, 0, -4.5 -4.5" transform="rotate(-90,140.5,68.5)"/><rect x="145" y="64" width="9" height="9" transform="rotate(0,149.5,68.5)"/><rect x="163" y="64" width="9" height="9" transform="rotate(0,167.5,68.5)"/><circle cx="194.5" cy="68.5" r="4.5" transform="rotate(0,194.5,68.5)"/><path d="M 217 64v 9h 4.5a 4.5 4.5, 0, 0, 0, 0 -9" transform="rotate(90,221.5,68.5)"/><path d="M 10 73v 9h 9v -4.5a 4.5 4.5, 0, 0, 0, -4.5 -4.5" transform="rotate(-90,14.5,77.5)"/><rect x="19" y="73" width="9" height="9" transform="rotate(0,23.5,77.5)"/><rect x="28" y="73" width="9" height="9" transform="rotate(0,32.5,77.5)"/><rect x="37" y="73" width="9" height="9" transform="rotate(0,41.5,77.5)"/><rect x="46" y="73" width="9" height="9" transform="rotate(0,50.5,77.5)"/><rect x="55" y="73" width="9" height="9" transform="rotate(0,59.5,77.5)"/><path d="M 64 73v 9h 4.5a 4.5 4.5, 0, 0, 0, 0 -9" transform="rotate(0,68.5,77.5)"/><path d="M 82 73v 9h 4.5a 4.5 4.5, 0, 0, 0, 0 -9" transform="rotate(90,86.5,77.5)"/><path d="M 109 73v 9h 4.5a 4.5 4.5, 0, 0, 0, 0 -9" transform="rotate(180,113.5,77.5)"/><path d="M 118 73v 9h 4.5a 4.5 4.5, 0, 0, 0, 0 -9" transform="rotate(0,122.5,77.5)"/><rect x="136" y="73" width="9" height="9" transform="rotate(0,140.5,77.5)"/><rect x="145" y="73" width="9" height="9" transform="rotate(0,149.5,77.5)"/><rect x="154" y="73" width="9" height="9" transform="rotate(0,158.5,77.5)"/><path d="M 163 73v 9h 9v -4.5a 4.5 4.5, 0, 0, 0, -4.5 -4.5" transform="rotate(90,167.5,77.5)"/><circle cx="185.5" cy="77.5" r="4.5" transform="rotate(0,185.5,77.5)"/><path d="M 244 73v 9h 9v -4.5a 4.5 4.5, 0, 0, 0, -4.5 -4.5" transform="rotate(-90,248.5,77.5)"/><path d="M 253 73v 9h 4.5a 4.5 4.5, 0, 0, 0, 0 -9" transform="rotate(0,257.5,77.5)"/><path d="M 289 73v 9h 4.5a 4.5 4.5, 0, 0, 0, 0 -9" transform="rotate(-90,293.5,77.5)"/><rect x="10" y="82" width="9" height="9" transform="rotate(0,14.5,86.5)"/><rect x="19" y="82" width="9" height="9" transform="rotate(0,23.5,86.5)"/><path d="M 28 82v 9h 9v -4.5a 4.5 4.5, 0, 0, 0, -4.5 -4.5" transform="rotate(90,32.5,86.5)"/><circle cx="104.5" cy="86.5" r="4.5" transform="rotate(0,104.5,86.5)"/><path d="M 136 82v 9h 4.5a 4.5 4.5, 0, 0, 0, 0 -9" transform="rotate(90,140.5,86.5)"/><circle cx="176.5" cy="86.5" r="4.5" transform="rotate(0,176.5,86.5)"/><path d="M 190 82v 9h 4.5a 4.5 4.5, 0, 0, 0, 0 -9" transform="rotate(-90,194.5,86.5)"/><path d="M 208 82v 9h 4.5a 4.5 4.5, 0, 0, 0, 0 -9" transform="rotate(180,212.5,86.5)"/><rect x="217" y="82" width="9" height="9" transform="rotate(0,221.5,86.5)"/><rect x="226" y="82" width="9" height="9" transform="rotate(0,230.5,86.5)"/><rect x="235" y="82" width="9" height="9" transform="rotate(0,239.5,86.5)"/><path d="M 244 82v 9h 9v -4.5a 4.5 4.5, 0, 0, 0, -4.5 -4.5" transform="rotate(90,248.5,86.5)"/><path d="M 262 82v 9h 4.5a 4.5 4.5, 0, 0, 0, 0 -9" transform="rotate(180,266.5,86.5)"/><rect x="271" y="82" width="9" height="9" transform="rotate(0,275.5,86.5)"/><rect x="280" y="82" width="9" height="9" transform="rotate(0,284.5,86.5)"/><path d="M 289 82v 9h 9v -4.5a 4.5 4.5, 0, 0, 0, -4.5 -4.5" transform="rotate(90,293.5,86.5)"/><path d="M 1 91v 9h 9v -4.5a 4.5 4.5, 0, 0, 0, -4.5 -4.5" transform="rotate(-90,5.5,95.5)"/><rect x="10" y="91" width="9" height="9" transform="rotate(0,14.5,95.5)"/><rect x="19" y="91" width="9" height="9" transform="rotate(0,23.5,95.5)"/><path d="M 46 91v 9h 9v -4.5a 4.5 4.5, 0, 0, 0, -4.5 -4.5" transform="rotate(-90,50.5,95.5)"/><rect x="55" y="91" width="9" height="9" transform="rotate(0,59.5,95.5)"/><rect x="64" y="91" width="9" height="9" transform="rotate(0,68.5,95.5)"/><path d="M 73 91v 9h 4.5a 4.5 4.5, 0, 0, 0, 0 -9" transform="rotate(0,77.5,95.5)"/><path d="M 109 91v 9h 4.5a 4.5 4.5, 0, 0, 0, 0 -9" transform="rotate(-90,113.5,95.5)"/><circle cx="167.5" cy="95.5" r="4.5" transform="rotate(0,167.5,95.5)"/><path d="M 181 91v 9h 9v -4.5a 4.5 4.5, 0, 0, 0, -4.5 -4.5" transform="rotate(-90,185.5,95.5)"/><rect x="190" y="91" width="9" height="9" transform="rotate(0,194.5,95.5)"/><path d="M 199 91v 9h 9v -4.5a 4.5 4.5, 0, 0, 0, -4.5 -4.5" transform="rotate(0,203.5,95.5)"/><path d="M 226 91v 9h 9v -4.5a 4.5 4.5, 0, 0, 0, -4.5 -4.5" transform="rotate(180,230.5,95.5)"/><rect x="235" y="91" width="9" height="9" transform="rotate(0,239.5,95.5)"/><path d="M 253 91v 9h 4.5a 4.5 4.5, 0, 0, 0, 0 -9" transform="rotate(-90,257.5,95.5)"/><rect x="271" y="91" width="9" height="9" transform="rotate(0,275.5,95.5)"/><rect x="280" y="91" width="9" height="9" transform="rotate(0,284.5,95.5)"/><path d="M 1 100v 9h 4.5a 4.5 4.5, 0, 0, 0, 0 -9" transform="rotate(90,5.5,104.5)"/><path d="M 19 100v 9h 9v -4.5a 4.5 4.5, 0, 0, 0, -4.5 -4.5" transform="rotate(180,23.5,104.5)"/><path d="M 28 100v 9h 9v -4.5a 4.5 4.5, 0, 0, 0, -4.5 -4.5" transform="rotate(0,32.5,104.5)"/><rect x="46" y="100" width="9" height="9" transform="rotate(0,50.5,104.5)"/><path d="M 100 100v 9h 4.5a 4.5 4.5, 0, 0, 0, 0 -9" transform="rotate(180,104.5,104.5)"/><rect x="109" y="100" width="9" height="9" transform="rotate(0,113.5,104.5)"/><path d="M 118 100v 9h 9v -4.5a 4.5 4.5, 0, 0, 0, -4.5 -4.5" transform="rotate(0,122.5,104.5)"/><circle cx="149.5" cy="104.5" r="4.5" transform="rotate(0,149.5,104.5)"/><path d="M 172 100v 9h 4.5a 4.5 4.5, 0, 0, 0, 0 -9" transform="rotate(180,176.5,104.5)"/><rect x="181" y="100" width="9" height="9" transform="rotate(0,185.5,104.5)"/><rect x="190" y="100" width="9" height="9" transform="rotate(0,194.5,104.5)"/><path d="M 199 100v 9h 9v -4.5a 4.5 4.5, 0, 0, 0, -4.5 -4.5" transform="rotate(90,203.5,104.5)"/><path d="M 217 100v 9h 4.5a 4.5 4.5, 0, 0, 0, 0 -9" transform="rotate(-90,221.5,104.5)"/><path d="M 235 100v 9h 4.5a 4.5 4.5, 0, 0, 0, 0 -9" transform="rotate(90,239.5,104.5)"/><rect x="253" y="100" width="9" height="9" transform="rotate(0,257.5,104.5)"/><rect x="262" y="100" width="9" height="9" transform="rotate(0,266.5,104.5)"/><rect x="271" y="100" width="9" height="9" transform="rotate(0,275.5,104.5)"/><path d="M 280 100v 9h 9v -4.5a 4.5 4.5, 0, 0, 0, -4.5 -4.5" transform="rotate(90,284.5,104.5)"/><circle cx="14.5" cy="113.5" r="4.5" transform="rotate(0,14.5,113.5)"/><path d="M 28 109v 9h 4.5a 4.5 4.5, 0, 0, 0, 0 -9" transform="rotate(90,32.5,113.5)"/><rect x="46" y="109" width="9" height="9" transform="rotate(0,50.5,113.5)"/><path d="M 55 109v 9h 4.5a 4.5 4.5, 0, 0, 0, 0 -9" transform="rotate(0,59.5,113.5)"/><rect x="109" y="109" width="9" height="9" transform="rotate(0,113.5,113.5)"/><path d="M 118 109v 9h 9v -4.5a 4.5 4.5, 0, 0, 0, -4.5 -4.5" transform="rotate(90,122.5,113.5)"/><circle cx="167.5" cy="113.5" r="4.5" transform="rotate(0,167.5,113.5)"/><path d="M 190 109v 9h 4.5a 4.5 4.5, 0, 0, 0, 0 -9" transform="rotate(90,194.5,113.5)"/><path d="M 217 109v 9h 4.5a 4.5 4.5, 0, 0, 0, 0 -9" transform="rotate(90,221.5,113.5)"/><path d="M 244 109v 9h 4.5a 4.5 4.5, 0, 0, 0, 0 -9" transform="rotate(180,248.5,113.5)"/><rect x="253" y="109" width="9" height="9" transform="rotate(0,257.5,113.5)"/><path d="M 262 109v 9h 9v -4.5a 4.5 4.5, 0, 0, 0, -4.5 -4.5" transform="rotate(90,266.5,113.5)"/><circle cx="5.5" cy="122.5" r="4.5" transform="rotate(0,5.5,122.5)"/><circle cx="23.5" cy="122.5" r="4.5" transform="rotate(0,23.5,122.5)"/><path d="M 37 118v 9h 4.5a 4.5 4.5, 0, 0, 0, 0 -9" transform="rotate(180,41.5,122.5)"/><path d="M 46 118v 9h 9v -4.5a 4.5 4.5, 0, 0, 0, -4.5 -4.5" transform="rotate(90,50.5,122.5)"/><path d="M 73 118v 9h 9v -4.5a 4.5 4.5, 0, 0, 0, -4.5 -4.5" transform="rotate(-90,77.5,122.5)"/><rect x="82" y="118" width="9" height="9" transform="rotate(0,86.5,122.5)"/><path d="M 91 118v 9h 4.5a 4.5 4.5, 0, 0, 0, 0 -9" transform="rotate(0,95.5,122.5)"/><rect x="109" y="118" width="9" height="9" transform="rotate(0,113.5,122.5)"/><path d="M 127 118v 9h 4.5a 4.5 4.5, 0, 0, 0, 0 -9" transform="rotate(180,131.5,122.5)"/><path d="M 136 118v 9h 4.5a 4.5 4.5, 0, 0, 0, 0 -9" transform="rotate(0,140.5,122.5)"/><path d="M 154 118v 9h 4.5a 4.5 4.5, 0, 0, 0, 0 -9" transform="rotate(-90,158.5,122.5)"/><circle cx="185.5" cy="122.5" r="4.5" transform="rotate(0,185.5,122.5)"/><circle cx="239.5" cy="122.5" r="4.5" transform="rotate(0,239.5,122.5)"/><path d="M 271 118v 9h 4.5a 4.5 4.5, 0, 0, 0, 0 -9" transform="rotate(180,275.5,122.5)"/><rect x="280" y="118" width="9" height="9" transform="rotate(0,284.5,122.5)"/><path d="M 289 118v 9h 4.5a 4.5 4.5, 0, 0, 0, 0 -9" transform="rotate(0,293.5,122.5)"/><path d="M 10 127v 9h 4.5a 4.5 4.5, 0, 0, 0, 0 -9" transform="rotate(-90,14.5,131.5)"/><path d="M 55 127v 9h 4.5a 4.5 4.5, 0, 0, 0, 0 -9" transform="rotate(180,59.5,131.5)"/><rect x="64" y="127" width="9" height="9" transform="rotate(0,68.5,131.5)"/><path d="M 73 127v 9h 9v -4.5a 4.5 4.5, 0, 0, 0, -4.5 -4.5" transform="rotate(90,77.5,131.5)"/><rect x="109" y="127" width="9" height="9" transform="rotate(0,113.5,131.5)"/><path d="M 145 127v 9h 4.5a 4.5 4.5, 0, 0, 0, 0 -9" transform="rotate(180,149.5,131.5)"/><path d="M 154 127v 9h 9v -4.5a 4.5 4.5, 0, 0, 0, -4.5 -4.5" transform="rotate(90,158.5,131.5)"/><path d="M 172 127v 9h 4.5a 4.5 4.5, 0, 0, 0, 0 -9" transform="rotate(-90,176.5,131.5)"/><circle cx="203.5" cy="131.5" r="4.5" transform="rotate(0,203.5,131.5)"/><path d="M 280 127v 9h 4.5a 4.5 4.5, 0, 0, 0, 0 -9" transform="rotate(90,284.5,131.5)"/><path d="M 1 136v 9h 4.5a 4.5 4.5, 0, 0, 0, 0 -9" transform="rotate(180,5.5,140.5)"/><rect x="10" y="136" width="9" height="9" transform="rotate(0,14.5,140.5)"/><path d="M 19 136v 9h 9v -4.5a 4.5 4.5, 0, 0, 0, -4.5 -4.5" transform="rotate(0,23.5,140.5)"/><path d="M 46 136v 9h 4.5a 4.5 4.5, 0, 0, 0, 0 -9" transform="rotate(-90,50.5,140.5)"/><circle cx="86.5" cy="140.5" r="4.5" transform="rotate(0,86.5,140.5)"/><path d="M 109 136v 9h 4.5a 4.5 4.5, 0, 0, 0, 0 -9" transform="rotate(90,113.5,140.5)"/><path d="M 136 136v 9h 4.5a 4.5 4.5, 0, 0, 0, 0 -9" transform="rotate(-90,140.5,140.5)"/><path d="M 163 136v 9h 4.5a 4.5 4.5, 0, 0, 0, 0 -9" transform="rotate(180,167.5,140.5)"/><rect x="172" y="136" width="9" height="9" transform="rotate(0,176.5,140.5)"/><rect x="181" y="136" width="9" height="9" transform="rotate(0,185.5,140.5)"/><path d="M 190 136v 9h 4.5a 4.5 4.5, 0, 0, 0, 0 -9" transform="rotate(0,194.5,140.5)"/><path d="M 217 136v 9h 4.5a 4.5 4.5, 0, 0, 0, 0 -9" transform="rotate(180,221.5,140.5)"/><path d="M 226 136v 9h 4.5a 4.5 4.5, 0, 0, 0, 0 -9" transform="rotate(0,230.5,140.5)"/><path d="M 244 136v 9h 4.5a 4.5 4.5, 0, 0, 0, 0 -9" transform="rotate(-90,248.5,140.5)"/><circle cx="275.5" cy="140.5" r="4.5" transform="rotate(0,275.5,140.5)"/><path d="M 19 145v 9h 4.5a 4.5 4.5, 0, 0, 0, 0 -9" transform="rotate(90,23.5,149.5)"/><path d="M 37 145v 9h 4.5a 4.5 4.5, 0, 0, 0, 0 -9" transform="rotate(180,41.5,149.5)"/><rect x="46" y="145" width="9" height="9" transform="rotate(0,50.5,149.5)"/><rect x="55" y="145" width="9" height="9" transform="rotate(0,59.5,149.5)"/><path d="M 64 145v 9h 4.5a 4.5 4.5, 0, 0, 0, 0 -9" transform="rotate(0,68.5,149.5)"/><path d="M 127 145v 9h 4.5a 4.5 4.5, 0, 0, 0, 0 -9" transform="rotate(180,131.5,149.5)"/><rect x="136" y="145" width="9" height="9" transform="rotate(0,140.5,149.5)"/><rect x="145" y="145" width="9" height="9" transform="rotate(0,149.5,149.5)"/><path d="M 154 145v 9h 4.5a 4.5 4.5, 0, 0, 0, 0 -9" transform="rotate(0,158.5,149.5)"/><rect x="172" y="145" width="9" height="9" transform="rotate(0,176.5,149.5)"/><path d="M 181 145v 9h 9v -4.5a 4.5 4.5, 0, 0, 0, -4.5 -4.5" transform="rotate(90,185.5,149.5)"/><path d="M 208 145v 9h 4.5a 4.5 4.5, 0, 0, 0, 0 -9" transform="rotate(-90,212.5,149.5)"/><rect x="244" y="145" width="9" height="9" transform="rotate(0,248.5,149.5)"/><path d="M 253 145v 9h 4.5a 4.5 4.5, 0, 0, 0, 0 -9" transform="rotate(0,257.5,149.5)"/><path d="M 289 145v 9h 4.5a 4.5 4.5, 0, 0, 0, 0 -9" transform="rotate(-90,293.5,149.5)"/><path d="M 10 154v 9h 4.5a 4.5 4.5, 0, 0, 0, 0 -9" transform="rotate(-90,14.5,158.5)"/><path d="M 28 154v 9h 4.5a 4.5 4.5, 0, 0, 0, 0 -9" transform="rotate(-90,32.5,158.5)"/><rect x="46" y="154" width="9" height="9" transform="rotate(0,50.5,158.5)"/><path d="M 73 154v 9h 4.5a 4.5 4.5, 0, 0, 0, 0 -9" transform="rotate(180,77.5,158.5)"/><rect x="82" y="154" width="9" height="9" transform="rotate(0,86.5,158.5)"/><path d="M 91 154v 9h 9v -4.5a 4.5 4.5, 0, 0, 0, -4.5 -4.5" transform="rotate(0,95.5,158.5)"/><path d="M 136 154v 9h 4.5a 4.5 4.5, 0, 0, 0, 0 -9" transform="rotate(90,140.5,158.5)"/><path d="M 172 154v 9h 4.5a 4.5 4.5, 0, 0, 0, 0 -9" transform="rotate(90,176.5,158.5)"/><path d="M 199 154v 9h 9v -4.5a 4.5 4.5, 0, 0, 0, -4.5 -4.5" transform="rotate(-90,203.5,158.5)"/><rect x="208" y="154" width="9" height="9" transform="rotate(0,212.5,158.5)"/><rect x="217" y="154" width="9" height="9" transform="rotate(0,221.5,158.5)"/><rect x="226" y="154" width="9" height="9" transform="rotate(0,230.5,158.5)"/><rect x="235" y="154" width="9" height="9" transform="rotate(0,239.5,158.5)"/><path d="M 244 154v 9h 9v -4.5a 4.5 4.5, 0, 0, 0, -4.5 -4.5" transform="rotate(90,248.5,158.5)"/><path d="M 262 154v 9h 4.5a 4.5 4.5, 0, 0, 0, 0 -9" transform="rotate(180,266.5,158.5)"/><rect x="271" y="154" width="9" height="9" transform="rotate(0,275.5,158.5)"/><rect x="280" y="154" width="9" height="9" transform="rotate(0,284.5,158.5)"/><path d="M 289 154v 9h 9v -4.5a 4.5 4.5, 0, 0, 0, -4.5 -4.5" transform="rotate(90,293.5,158.5)"/><path d="M 1 163v 9h 9v -4.5a 4.5 4.5, 0, 0, 0, -4.5 -4.5" transform="rotate(-90,5.5,167.5)"/><rect x="10" y="163" width="9" height="9" transform="rotate(0,14.5,167.5)"/><rect x="19" y="163" width="9" height="9" transform="rotate(0,23.5,167.5)"/><rect x="28" y="163" width="9" height="9" transform="rotate(0,32.5,167.5)"/><rect x="46" y="163" width="9" height="9" transform="rotate(0,50.5,167.5)"/><path d="M 55 163v 9h 4.5a 4.5 4.5, 0, 0, 0, 0 -9" transform="rotate(0,59.5,167.5)"/><path d="M 82 163v 9h 9v -4.5a 4.5 4.5, 0, 0, 0, -4.5 -4.5" transform="rotate(180,86.5,167.5)"/><path d="M 91 163v 9h 9v -4.5a 4.5 4.5, 0, 0, 0, -4.5 -4.5" transform="rotate(90,95.5,167.5)"/><path d="M 199 163v 9h 4.5a 4.5 4.5, 0, 0, 0, 0 -9" transform="rotate(90,203.5,167.5)"/><path d="M 217 163v 9h 9v -4.5a 4.5 4.5, 0, 0, 0, -4.5 -4.5" transform="rotate(180,221.5,167.5)"/><rect x="226" y="163" width="9" height="9" transform="rotate(0,230.5,167.5)"/><rect x="235" y="163" width="9" height="9" transform="rotate(0,239.5,167.5)"/><path d="M 253 163v 9h 4.5a 4.5 4.5, 0, 0, 0, 0 -9" transform="rotate(-90,257.5,167.5)"/><rect x="271" y="163" width="9" height="9" transform="rotate(0,275.5,167.5)"/><rect x="280" y="163" width="9" height="9" transform="rotate(0,284.5,167.5)"/><rect x="1" y="172" width="9" height="9" transform="rotate(0,5.5,176.5)"/><path d="M 19 172v 9h 9v -4.5a 4.5 4.5, 0, 0, 0, -4.5 -4.5" transform="rotate(180,23.5,176.5)"/><path d="M 28 172v 9h 9v -4.5a 4.5 4.5, 0, 0, 0, -4.5 -4.5" transform="rotate(90,32.5,176.5)"/><rect x="46" y="172" width="9" height="9" transform="rotate(0,50.5,176.5)"/><path d="M 64 172v 9h 4.5a 4.5 4.5, 0, 0, 0, 0 -9" transform="rotate(180,68.5,176.5)"/><path d="M 73 172v 9h 9v -4.5a 4.5 4.5, 0, 0, 0, -4.5 -4.5" transform="rotate(0,77.5,176.5)"/><path d="M 100 172v 9h 4.5a 4.5 4.5, 0, 0, 0, 0 -9" transform="rotate(180,104.5,176.5)"/><path d="M 109 172v 9h 9v -4.5a 4.5 4.5, 0, 0, 0, -4.5 -4.5" transform="rotate(0,113.5,176.5)"/><path d="M 145 172v 9h 4.5a 4.5 4.5, 0, 0, 0, 0 -9" transform="rotate(180,149.5,176.5)"/><rect x="154" y="172" width="9" height="9" transform="rotate(0,158.5,176.5)"/><rect x="163" y="172" width="9" height="9" transform="rotate(0,167.5,176.5)"/><path d="M 172 172v 9h 9v -4.5a 4.5 4.5, 0, 0, 0, -4.5 -4.5" transform="rotate(0,176.5,176.5)"/><path d="M 208 172v 9h 4.5a 4.5 4.5, 0, 0, 0, 0 -9" transform="rotate(-90,212.5,176.5)"/><rect x="226" y="172" width="9" height="9" transform="rotate(0,230.5,176.5)"/><path d="M 235 172v 9h 9v -4.5a 4.5 4.5, 0, 0, 0, -4.5 -4.5" transform="rotate(90,239.5,176.5)"/><rect x="253" y="172" width="9" height="9" transform="rotate(0,257.5,176.5)"/><rect x="262" y="172" width="9" height="9" transform="rotate(0,266.5,176.5)"/><rect x="271" y="172" width="9" height="9" transform="rotate(0,275.5,176.5)"/><rect x="280" y="172" width="9" height="9" transform="rotate(0,284.5,176.5)"/><path d="M 289 172v 9h 9v -4.5a 4.5 4.5, 0, 0, 0, -4.5 -4.5" transform="rotate(0,293.5,176.5)"/><rect x="1" y="181" width="9" height="9" transform="rotate(0,5.5,185.5)"/><path d="M 46 181v 9h 9v -4.5a 4.5 4.5, 0, 0, 0, -4.5 -4.5" transform="rotate(180,50.5,185.5)"/><path d="M 55 181v 9h 4.5a 4.5 4.5, 0, 0, 0, 0 -9" transform="rotate(0,59.5,185.5)"/><rect x="73" y="181" width="9" height="9" transform="rotate(0,77.5,185.5)"/><path d="M 91 181v 9h 4.5a 4.5 4.5, 0, 0, 0, 0 -9" transform="rotate(-90,95.5,185.5)"/><path d="M 109 181v 9h 4.5a 4.5 4.5, 0, 0, 0, 0 -9" transform="rotate(90,113.5,185.5)"/><circle cx="131.5" cy="185.5" r="4.5" transform="rotate(0,131.5,185.5)"/><path d="M 154 181v 9h 9v -4.5a 4.5 4.5, 0, 0, 0, -4.5 -4.5" transform="rotate(180,158.5,185.5)"/><rect x="163" y="181" width="9" height="9" transform="rotate(0,167.5,185.5)"/><rect x="172" y="181" width="9" height="9" transform="rotate(0,176.5,185.5)"/><rect x="181" y="181" width="9" height="9" transform="rotate(0,185.5,185.5)"/><rect x="190" y="181" width="9" height="9" transform="rotate(0,194.5,185.5)"/><rect x="199" y="181" width="9" height="9" transform="rotate(0,203.5,185.5)"/><rect x="208" y="181" width="9" height="9" transform="rotate(0,212.5,185.5)"/><rect x="226" y="181" width="9" height="9" transform="rotate(0,230.5,185.5)"/><path d="M 244 181v 9h 4.5a 4.5 4.5, 0, 0, 0, 0 -9" transform="rotate(180,248.5,185.5)"/><rect x="253" y="181" width="9" height="9" transform="rotate(0,257.5,185.5)"/><rect x="262" y="181" width="9" height="9" transform="rotate(0,266.5,185.5)"/><path d="M 280 181v 9h 9v -4.5a 4.5 4.5, 0, 0, 0, -4.5 -4.5" transform="rotate(180,284.5,185.5)"/><rect x="289" y="181" width="9" height="9" transform="rotate(0,293.5,185.5)"/><rect x="1" y="190" width="9" height="9" transform="rotate(0,5.5,194.5)"/><path d="M 19 190v 9h 4.5a 4.5 4.5, 0, 0, 0, 0 -9" transform="rotate(180,23.5,194.5)"/><path d="M 28 190v 9h 9v -4.5a 4.5 4.5, 0, 0, 0, -4.5 -4.5" transform="rotate(0,32.5,194.5)"/><path d="M 64 190v 9h 4.5a 4.5 4.5, 0, 0, 0, 0 -9" transform="rotate(180,68.5,194.5)"/><rect x="73" y="190" width="9" height="9" transform="rotate(0,77.5,194.5)"/><path d="M 91 190v 9h 9v -4.5a 4.5 4.5, 0, 0, 0, -4.5 -4.5" transform="rotate(180,95.5,194.5)"/><path d="M 100 190v 9h 9v -4.5a 4.5 4.5, 0, 0, 0, -4.5 -4.5" transform="rotate(0,104.5,194.5)"/><path d="M 118 190v 9h 4.5a 4.5 4.5, 0, 0, 0, 0 -9" transform="rotate(-90,122.5,194.5)"/><path d="M 163 190v 9h 4.5a 4.5 4.5, 0, 0, 0, 0 -9" transform="rotate(90,167.5,194.5)"/><rect x="190" y="190" width="9" height="9" transform="rotate(0,194.5,194.5)"/><path d="M 208 190v 9h 9v -4.5a 4.5 4.5, 0, 0, 0, -4.5 -4.5" transform="rotate(180,212.5,194.5)"/><rect x="217" y="190" width="9" height="9" transform="rotate(0,221.5,194.5)"/><rect x="226" y="190" width="9" height="9" transform="rotate(0,230.5,194.5)"/><path d="M 235 190v 9h 9v -4.5a 4.5 4.5, 0, 0, 0, -4.5 -4.5" transform="rotate(0,239.5,194.5)"/><rect x="262" y="190" width="9" height="9" transform="rotate(0,266.5,194.5)"/><path d="M 289 190v 9h 4.5a 4.5 4.5, 0, 0, 0, 0 -9" transform="rotate(90,293.5,194.5)"/><rect x="1" y="199" width="9" height="9" transform="rotate(0,5.5,203.5)"/><path d="M 28 199v 9h 4.5a 4.5 4.5, 0, 0, 0, 0 -9" transform="rotate(90,32.5,203.5)"/><circle cx="59.5" cy="203.5" r="4.5" transform="rotate(0,59.5,203.5)"/><path d="M 73 199v 9h 4.5a 4.5 4.5, 0, 0, 0, 0 -9" transform="rotate(90,77.5,203.5)"/><rect x="100" y="199" width="9" height="9" transform="rotate(0,104.5,203.5)"/><rect x="109" y="199" width="9" height="9" transform="rotate(0,113.5,203.5)"/><path d="M 118 199v 9h 9v -4.5a 4.5 4.5, 0, 0, 0, -4.5 -4.5" transform="rotate(90,122.5,203.5)"/><path d="M 145 199v 9h 4.5a 4.5 4.5, 0, 0, 0, 0 -9" transform="rotate(-90,149.5,203.5)"/><path d="M 181 199v 9h 4.5a 4.5 4.5, 0, 0, 0, 0 -9" transform="rotate(180,185.5,203.5)"/><rect x="190" y="199" width="9" height="9" transform="rotate(0,194.5,203.5)"/><path d="M 217 199v 9h 4.5a 4.5 4.5, 0, 0, 0, 0 -9" transform="rotate(90,221.5,203.5)"/><path d="M 235 199v 9h 4.5a 4.5 4.5, 0, 0, 0, 0 -9" transform="rotate(90,239.5,203.5)"/><path d="M 253 199v 9h 4.5a 4.5 4.5, 0, 0, 0, 0 -9" transform="rotate(180,257.5,203.5)"/><rect x="262" y="199" width="9" height="9" transform="rotate(0,266.5,203.5)"/><circle cx="284.5" cy="203.5" r="4.5" transform="rotate(0,284.5,203.5)"/><rect x="1" y="208" width="9" height="9" transform="rotate(0,5.5,212.5)"/><path d="M 19 208v 9h 4.5a 4.5 4.5, 0, 0, 0, 0 -9" transform="rotate(-90,23.5,212.5)"/><path d="M 46 208v 9h 4.5a 4.5 4.5, 0, 0, 0, 0 -9" transform="rotate(-90,50.5,212.5)"/><circle cx="68.5" cy="212.5" r="4.5" transform="rotate(0,68.5,212.5)"/><path d="M 82 208v 9h 4.5a 4.5 4.5, 0, 0, 0, 0 -9" transform="rotate(-90,86.5,212.5)"/><path d="M 100 208v 9h 9v -4.5a 4.5 4.5, 0, 0, 0, -4.5 -4.5" transform="rotate(180,104.5,212.5)"/><path d="M 109 208v 9h 9v -4.5a 4.5 4.5, 0, 0, 0, -4.5 -4.5" transform="rotate(90,113.5,212.5)"/><path d="M 127 208v 9h 4.5a 4.5 4.5, 0, 0, 0, 0 -9" transform="rotate(180,131.5,212.5)"/><rect x="136" y="208" width="9" height="9" transform="rotate(0,140.5,212.5)"/><rect x="145" y="208" width="9" height="9" transform="rotate(0,149.5,212.5)"/><path d="M 190 208v 9h 9v -4.5a 4.5 4.5, 0, 0, 0, -4.5 -4.5" transform="rotate(180,194.5,212.5)"/><path d="M 199 208v 9h 4.5a 4.5 4.5, 0, 0, 0, 0 -9" transform="rotate(0,203.5,212.5)"/><path d="M 226 208v 9h 4.5a 4.5 4.5, 0, 0, 0, 0 -9" transform="rotate(-90,230.5,212.5)"/><path d="M 244 208v 9h 4.5a 4.5 4.5, 0, 0, 0, 0 -9" transform="rotate(-90,248.5,212.5)"/><rect x="262" y="208" width="9" height="9" transform="rotate(0,266.5,212.5)"/><path d="M 271 208v 9h 4.5a 4.5 4.5, 0, 0, 0, 0 -9" transform="rotate(0,275.5,212.5)"/><circle cx="293.5" cy="212.5" r="4.5" transform="rotate(0,293.5,212.5)"/><path d="M 1 217v 9h 4.5a 4.5 4.5, 0, 0, 0, 0 -9" transform="rotate(90,5.5,221.5)"/><path d="M 19 217v 9h 9v -4.5a 4.5 4.5, 0, 0, 0, -4.5 -4.5" transform="rotate(180,23.5,221.5)"/><path d="M 28 217v 9h 4.5a 4.5 4.5, 0, 0, 0, 0 -9" transform="rotate(0,32.5,221.5)"/><path d="M 46 217v 9h 9v -4.5a 4.5 4.5, 0, 0, 0, -4.5 -4.5" transform="rotate(180,50.5,221.5)"/><path d="M 55 217v 9h 4.5a 4.5 4.5, 0, 0, 0, 0 -9" transform="rotate(0,59.5,221.5)"/><path d="M 82 217v 9h 9v -4.5a 4.5 4.5, 0, 0, 0, -4.5 -4.5" transform="rotate(180,86.5,221.5)"/><path d="M 91 217v 9h 9v -4.5a 4.5 4.5, 0, 0, 0, -4.5 -4.5" transform="rotate(0,95.5,221.5)"/><circle cx="122.5" cy="221.5" r="4.5" transform="rotate(0,122.5,221.5)"/><path d="M 145 217v 9h 4.5a 4.5 4.5, 0, 0, 0, 0 -9" transform="rotate(90,149.5,221.5)"/><circle cx="185.5" cy="221.5" r="4.5" transform="rotate(0,185.5,221.5)"/><path d="M 217 217v 9h 9v -4.5a 4.5 4.5, 0, 0, 0, -4.5 -4.5" transform="rotate(-90,221.5,221.5)"/><rect x="226" y="217" width="9" height="9" transform="rotate(0,230.5,221.5)"/><rect x="235" y="217" width="9" height="9" transform="rotate(0,239.5,221.5)"/><rect x="244" y="217" width="9" height="9" transform="rotate(0,248.5,221.5)"/><rect x="253" y="217" width="9" height="9" transform="rotate(0,257.5,221.5)"/><path d="M 262 217v 9h 9v -4.5a 4.5 4.5, 0, 0, 0, -4.5 -4.5" transform="rotate(90,266.5,221.5)"/><circle cx="284.5" cy="221.5" r="4.5" transform="rotate(0,284.5,221.5)"/><path d="M 73 226v 9h 4.5a 4.5 4.5, 0, 0, 0, 0 -9" transform="rotate(-90,77.5,230.5)"/><rect x="91" y="226" width="9" height="9" transform="rotate(0,95.5,230.5)"/><path d="M 163 226v 9h 4.5a 4.5 4.5, 0, 0, 0, 0 -9" transform="rotate(180,167.5,230.5)"/><path d="M 172 226v 9h 4.5a 4.5 4.5, 0, 0, 0, 0 -9" transform="rotate(0,176.5,230.5)"/><path d="M 190 226v 9h 4.5a 4.5 4.5, 0, 0, 0, 0 -9" transform="rotate(-90,194.5,230.5)"/><rect x="217" y="226" width="9" height="9" transform="rotate(0,221.5,230.5)"/><rect x="253" y="226" width="9" height="9" transform="rotate(0,257.5,230.5)"/><path d="M 271 226v 9h 4.5a 4.5 4.5, 0, 0, 0, 0 -9" transform="rotate(-90,275.5,230.5)"/><circle cx="293.5" cy="230.5" r="4.5" transform="rotate(0,293.5,230.5)"/><rect x="73" y="235" width="9" height="9" transform="rotate(0,77.5,239.5)"/><path d="M 91 235v 9h 4.5a 4.5 4.5, 0, 0, 0, 0 -9" transform="rotate(90,95.5,239.5)"/><path d="M 109 235v 9h 4.5a 4.5 4.5, 0, 0, 0, 0 -9" transform="rotate(-90,113.5,239.5)"/><circle cx="140.5" cy="239.5" r="4.5" transform="rotate(0,140.5,239.5)"/><path d="M 181 235v 9h 9v -4.5a 4.5 4.5, 0, 0, 0, -4.5 -4.5" transform="rotate(-90,185.5,239.5)"/><rect x="190" y="235" width="9" height="9" transform="rotate(0,194.5,239.5)"/><path d="M 208 235v 9h 4.5a 4.5 4.5, 0, 0, 0, 0 -9" transform="rotate(180,212.5,239.5)"/><rect x="217" y="235" width="9" height="9" transform="rotate(0,221.5,239.5)"/><circle cx="239.5" cy="239.5" r="4.5" transform="rotate(0,239.5,239.5)"/><rect x="253" y="235" width="9" height="9" transform="rotate(0,257.5,239.5)"/><rect x="271" y="235" width="9" height="9" transform="rotate(0,275.5,239.5)"/><rect x="73" y="244" width="9" height="9" transform="rotate(0,77.5,248.5)"/><path d="M 82 244v 9h 9v -4.5a 4.5 4.5, 0, 0, 0, -4.5 -4.5" transform="rotate(0,86.5,248.5)"/><rect x="109" y="244" width="9" height="9" transform="rotate(0,113.5,248.5)"/><path d="M 118 244v 9h 4.5a 4.5 4.5, 0, 0, 0, 0 -9" transform="rotate(0,122.5,248.5)"/><path d="M 145 244v 9h 4.5a 4.5 4.5, 0, 0, 0, 0 -9" transform="rotate(-90,149.5,248.5)"/><path d="M 181 244v 9h 9v -4.5a 4.5 4.5, 0, 0, 0, -4.5 -4.5" transform="rotate(180,185.5,248.5)"/><rect x="190" y="244" width="9" height="9" transform="rotate(0,194.5,248.5)"/><path d="M 199 244v 9h 4.5a 4.5 4.5, 0, 0, 0, 0 -9" transform="rotate(0,203.5,248.5)"/><rect x="217" y="244" width="9" height="9" transform="rotate(0,221.5,248.5)"/><rect x="253" y="244" width="9" height="9" transform="rotate(0,257.5,248.5)"/><path d="M 271 244v 9h 4.5a 4.5 4.5, 0, 0, 0, 0 -9" transform="rotate(90,275.5,248.5)"/><rect x="73" y="253" width="9" height="9" transform="rotate(0,77.5,257.5)"/><rect x="82" y="253" width="9" height="9" transform="rotate(0,86.5,257.5)"/><rect x="91" y="253" width="9" height="9" transform="rotate(0,95.5,257.5)"/><rect x="100" y="253" width="9" height="9" transform="rotate(0,104.5,257.5)"/><rect x="109" y="253" width="9" height="9" transform="rotate(0,113.5,257.5)"/><path d="M 127 253v 9h 4.5a 4.5 4.5, 0, 0, 0, 0 -9" transform="rotate(-90,131.5,257.5)"/><rect x="145" y="253" width="9" height="9" transform="rotate(0,149.5,257.5)"/><rect x="154" y="253" width="9" height="9" transform="rotate(0,158.5,257.5)"/><path d="M 163 253v 9h 4.5a 4.5 4.5, 0, 0, 0, 0 -9" transform="rotate(0,167.5,257.5)"/><path d="M 190 253v 9h 4.5a 4.5 4.5, 0, 0, 0, 0 -9" transform="rotate(90,194.5,257.5)"/><path d="M 217 253v 9h 9v -4.5a 4.5 4.5, 0, 0, 0, -4.5 -4.5" transform="rotate(180,221.5,257.5)"/><rect x="226" y="253" width="9" height="9" transform="rotate(0,230.5,257.5)"/><rect x="235" y="253" width="9" height="9" transform="rotate(0,239.5,257.5)"/><rect x="244" y="253" width="9" height="9" transform="rotate(0,248.5,257.5)"/><rect x="253" y="253" width="9" height="9" transform="rotate(0,257.5,257.5)"/><path d="M 262 253v 9h 4.5a 4.5 4.5, 0, 0, 0, 0 -9" transform="rotate(0,266.5,257.5)"/><rect x="73" y="262" width="9" height="9" transform="rotate(0,77.5,266.5)"/><path d="M 109 262v 9h 4.5a 4.5 4.5, 0, 0, 0, 0 -9" transform="rotate(90,113.5,266.5)"/><path d="M 127 262v 9h 4.5a 4.5 4.5, 0, 0, 0, 0 -9" transform="rotate(90,131.5,266.5)"/><path d="M 145 262v 9h 4.5a 4.5 4.5, 0, 0, 0, 0 -9" transform="rotate(90,149.5,266.5)"/><circle cx="185.5" cy="266.5" r="4.5" transform="rotate(0,185.5,266.5)"/><path d="M 199 262v 9h 4.5a 4.5 4.5, 0, 0, 0, 0 -9" transform="rotate(-90,203.5,266.5)"/><rect x="244" y="262" width="9" height="9" transform="rotate(0,248.5,266.5)"/><path d="M 253 262v 9h 9v -4.5a 4.5 4.5, 0, 0, 0, -4.5 -4.5" transform="rotate(90,257.5,266.5)"/><circle cx="275.5" cy="266.5" r="4.5" transform="rotate(0,275.5,266.5)"/><circle cx="293.5" cy="266.5" r="4.5" transform="rotate(0,293.5,266.5)"/><rect x="73" y="271" width="9" height="9" transform="rotate(0,77.5,275.5)"/><path d="M 82 271v 9h 4.5a 4.5 4.5, 0, 0, 0, 0 -9" transform="rotate(0,86.5,275.5)"/><path d="M 100 271v 9h 4.5a 4.5 4.5, 0, 0, 0, 0 -9" transform="rotate(-90,104.5,275.5)"/><circle cx="122.5" cy="275.5" r="4.5" transform="rotate(0,122.5,275.5)"/><path d="M 136 271v 9h 4.5a 4.5 4.5, 0, 0, 0, 0 -9" transform="rotate(-90,140.5,275.5)"/><path d="M 163 271v 9h 4.5a 4.5 4.5, 0, 0, 0, 0 -9" transform="rotate(180,167.5,275.5)"/><path d="M 172 271v 9h 9v -4.5a 4.5 4.5, 0, 0, 0, -4.5 -4.5" transform="rotate(0,176.5,275.5)"/><path d="M 199 271v 9h 4.5a 4.5 4.5, 0, 0, 0, 0 -9" transform="rotate(90,203.5,275.5)"/><path d="M 217 271v 9h 9v -4.5a 4.5 4.5, 0, 0, 0, -4.5 -4.5" transform="rotate(-90,221.5,275.5)"/><rect x="226" y="271" width="9" height="9" transform="rotate(0,230.5,275.5)"/><rect x="235" y="271" width="9" height="9" transform="rotate(0,239.5,275.5)"/><rect x="244" y="271" width="9" height="9" transform="rotate(0,248.5,275.5)"/><path d="M 262 271v 9h 4.5a 4.5 4.5, 0, 0, 0, 0 -9" transform="rotate(-90,266.5,275.5)"/><path d="M 73 280v 9h 4.5a 4.5 4.5, 0, 0, 0, 0 -9" transform="rotate(90,77.5,284.5)"/><path d="M 100 280v 9h 4.5a 4.5 4.5, 0, 0, 0, 0 -9" transform="rotate(90,104.5,284.5)"/><path d="M 127 280v 9h 9v -4.5a 4.5 4.5, 0, 0, 0, -4.5 -4.5" transform="rotate(-90,131.5,284.5)"/><path d="M 136 280v 9h 9v -4.5a 4.5 4.5, 0, 0, 0, -4.5 -4.5" transform="rotate(90,140.5,284.5)"/><rect x="172" y="280" width="9" height="9" transform="rotate(0,176.5,284.5)"/><rect x="181" y="280" width="9" height="9" transform="rotate(0,185.5,284.5)"/><path d="M 190 280v 9h 4.5a 4.5 4.5, 0, 0, 0, 0 -9" transform="rotate(0,194.5,284.5)"/><rect x="217" y="280" width="9" height="9" transform="rotate(0,221.5,284.5)"/><rect x="235" y="280" width="9" height="9" transform="rotate(0,239.5,284.5)"/><rect x="244" y="280" width="9" height="9" transform="rotate(0,248.5,284.5)"/><rect x="253" y="280" width="9" height="9" transform="rotate(0,257.5,284.5)"/><rect x="262" y="280" width="9" height="9" transform="rotate(0,266.5,284.5)"/><path d="M 271 280v 9h 4.5a 4.5 4.5, 0, 0, 0, 0 -9" transform="rotate(0,275.5,284.5)"/><path d="M 82 289v 9h 4.5a 4.5 4.5, 0, 0, 0, 0 -9" transform="rotate(180,86.5,293.5)"/><path d="M 91 289v 9h 4.5a 4.5 4.5, 0, 0, 0, 0 -9" transform="rotate(0,95.5,293.5)"/><path d="M 127 289v 9h 4.5a 4.5 4.5, 0, 0, 0, 0 -9" transform="rotate(90,131.5,293.5)"/><circle cx="149.5" cy="293.5" r="4.5" transform="rotate(0,149.5,293.5)"/><path d="M 163 289v 9h 4.5a 4.5 4.5, 0, 0, 0, 0 -9" transform="rotate(180,167.5,293.5)"/><rect x="172" y="289" width="9" height="9" transform="rotate(0,176.5,293.5)"/><path d="M 181 289v 9h 9v -4.5a 4.5 4.5, 0, 0, 0, -4.5 -4.5" transform="rotate(90,185.5,293.5)"/><path d="M 208 289v 9h 4.5a 4.5 4.5, 0, 0, 0, 0 -9" transform="rotate(180,212.5,293.5)"/><path d="M 217 289v 9h 9v -4.5a 4.5 4.5, 0, 0, 0, -4.5 -4.5" transform="rotate(90,221.5,293.5)"/><path d="M 235 289v 9h 9v -4.5a 4.5 4.5, 0, 0, 0, -4.5 -4.5" transform="rotate(180,239.5,293.5)"/><rect x="244" y="289" width="9" height="9" transform="rotate(0,248.5,293.5)"/><path d="M 253 289v 9h 9v -4.5a 4.5 4.5, 0, 0, 0, -4.5 -4.5" transform="rotate(90,257.5,293.5)"/><circle cx="284.5" cy="293.5" r="4.5" transform="rotate(0,284.5,293.5)"/></clipPath><clipPath id="clip-path-corners-square-color-0-0-0"><path clip-rule="evenodd" d="M 1 23.5v 18a 22.5 22.5, 0, 0, 0, 22.5 22.5h 18a 22.5 22.5, 0, 0, 0, 22.5 -22.5v -18a 22.5 22.5, 0, 0, 0, -22.5 -22.5h -18a 22.5 22.5, 0, 0, 0, -22.5 22.5M 23.5 10h 18a 13.5 13.5, 0, 0, 1, 13.5 13.5v 18a 13.5 13.5, 0, 0, 1, -13.5 13.5h -18a 13.5 13.5, 0, 0, 1, -13.5 -13.5v -18a 13.5 13.5, 0, 0, 1, 13.5 -13.5" transform="rotate(0,32.5,32.5)"/><path d="M 19 19v 9h 9v -4.5a 4.5 4.5, 0, 0, 0, -4.5 -4.5" transform="rotate(-90,23.5,23.5)"/><rect x="28" y="19" width="9" height="9" transform="rotate(0,32.5,23.5)"/><path d="M 37 19v 9h 9v -4.5a 4.5 4.5, 0, 0, 0, -4.5 -4.5" transform="rotate(0,41.5,23.5)"/><rect x="19" y="28" width="9" height="9" transform="rotate(0,23.5,32.5)"/><rect x="28" y="28" width="9" height="9" transform="rotate(0,32.5,32.5)"/><rect x="37" y="28" width="9" height="9" transform="rotate(0,41.5,32.5)"/><path d="M 19 37v 9h 9v -4.5a 4.5 4.5, 0, 0, 0, -4.5 -4.5" transform="rotate(180,23.5,41.5)"/><rect x="28" y="37" width="9" height="9" transform="rotate(0,32.5,41.5)"/><path d="M 37 37v 9h 9v -4.5a 4.5 4.5, 0, 0, 0, -4.5 -4.5" transform="rotate(90,41.5,41.5)"/></clipPath><clipPath id="clip-path-corners-square-color-1-0-0"><path clip-rule="evenodd" d="M 235 23.5v 18a 22.5 22.5, 0, 0, 0, 22.5 22.5h 18a 22.5 22.5, 0, 0, 0, 22.5 -22.5v -18a 22.5 22.5, 0, 0, 0, -22.5 -22.5h -18a 22.5 22.5, 0, 0, 0, -22.5 22.5M 257.5 10h 18a 13.5 13.5, 0, 0, 1, 13.5 13.5v 18a 13.5 13.5, 0, 0, 1, -13.5 13.5h -18a 13.5 13.5, 0, 0, 1, -13.5 -13.5v -18a 13.5 13.5, 0, 0, 1, 13.5 -13.5" transform="rotate(90,266.5,32.5)"/><path d="M 253 19v 9h 9v -4.5a 4.5 4.5, 0, 0, 0, -4.5 -4.5" transform="rotate(-90,257.5,23.5)"/><rect x="262" y="19" width="9" height="9" transform="rotate(0,266.5,23.5)"/><path d="M 271 19v 9h 9v -4.5a 4.5 4.5, 0, 0, 0, -4.5 -4.5" transform="rotate(0,275.5,23.5)"/><rect x="253" y="28" width="9" height="9" transform="rotate(0,257.5,32.5)"/><rect x="262" y="28" width="9" height="9" transform="rotate(0,266.5,32.5)"/><rect x="271" y="28" width="9" height="9" transform="rotate(0,275.5,32.5)"/><path d="M 253 37v 9h 9v -4.5a 4.5 4.5, 0, 0, 0, -4.5 -4.5" transform="rotate(180,257.5,41.5)"/><rect x="262" y="37" width="9" height="9" transform="rotate(0,266.5,41.5)"/><path d="M 271 37v 9h 9v -4.5a 4.5 4.5, 0, 0, 0, -4.5 -4.5" transform="rotate(90,275.5,41.5)"/></clipPath><clipPath id="clip-path-corners-square-color-0-1-0"><path clip-rule="evenodd" d="M 1 257.5v 18a 22.5 22.5, 0, 0, 0, 22.5 22.5h 18a 22.5 22.5, 0, 0, 0, 22.5 -22.5v -18a 22.5 22.5, 0, 0, 0, -22.5 -22.5h -18a 22.5 22.5, 0, 0, 0, -22.5 22.5M 23.5 244h 18a 13.5 13.5, 0, 0, 1, 13.5 13.5v 18a 13.5 13.5, 0, 0, 1, -13.5 13.5h -18a 13.5 13.5, 0, 0, 1, -13.5 -13.5v -18a 13.5 13.5, 0, 0, 1, 13.5 -13.5" transform="rotate(-90,32.5,266.5)"/><path d="M 19 253v 9h 9v -4.5a 4.5 4.5, 0, 0, 0, -4.5 -4.5" transform="rotate(-90,23.5,257.5)"/><rect x="28" y="253" width="9" height="9" transform="rotate(0,32.5,257.5)"/><path d="M 37 253v 9h 9v -4.5a 4.5 4.5, 0, 0, 0, -4.5 -4.5" transform="rotate(0,41.5,257.5)"/><rect x="19" y="262" width="9" height="9" transform="rotate(0,23.5,266.5)"/><rect x="28" y="262" width="9" height="9" transform="rotate(0,32.5,266.5)"/><rect x="37" y="262" width="9" height="9" transform="rotate(0,41.5,266.5)"/><path d="M 19 271v 9h 9v -4.5a 4.5 4.5, 0, 0, 0, -4.5 -4.5" transform="rotate(180,23.5,275.5)"/><rect x="28" y="271" width="9" height="9" transform="rotate(0,32.5,275.5)"/><path d="M 37 271v 9h 9v -4.5a 4.5 4.5, 0, 0, 0, -4.5 -4.5" transform="rotate(90,41.5,275.5)"/></clipPath></defs><rect x="0" y="0" height="300" width="300" clip-path="url('#clip-path-background-color-0')" fill="#ffffffff"/><rect x="0" y="0" height="300" width="300" clip-path="url('#clip-path-dot-color-0')" fill="#046a81ff"/><rect x="1" y="1" height="63" width="63" clip-path="url('#clip-path-corners-square-color-0-0-0')" fill="#087b8dff"/><rect x="235" y="1" height="63" width="63" clip-path="url('#clip-path-corners-square-color-1-0-0')" fill="#087b8dff"/><rect x="1" y="235" height="63" width="63" clip-path="url('#clip-path-corners-square-color-0-1-0')" fill="#087b8dff"/></svg>