<?xml version="1.0" encoding="UTF-8"?>
<svg xmlns="http://www.w3.org/2000/svg" xmlns:xlink="http://www.w3.org/1999/xlink" viewBox="0 0 258.26 275.18">
  <defs>
    <style>
      .cls-1 {
        fill: #20291f;
      }

      .cls-2, .cls-3 {
        opacity: .8;
      }

      .cls-2, .cls-4 {
        fill: #e4f2ed;
      }

      .cls-5 {
        fill: #7d424d;
      }

      .cls-6 {
        fill: #96c4ac;
      }

      .cls-7 {
        fill: #231f20;
      }

      .cls-8 {
        fill: #a3947b;
      }

      .cls-9 {
        fill: #d1d3d4;
        mix-blend-mode: multiply;
      }

      .cls-10 {
        fill: #fff;
      }

      .cls-11 {
        fill: #ffd7a2;
      }

      .cls-12 {
        fill: #e39f85;
      }

      .cls-13, .cls-14 {
        fill: none;
      }

      .cls-15 {
        fill: #f5c868;
      }

      .cls-16 {
        fill: #bbded5;
      }

      .cls-14 {
        stroke: #96c4ac;
        stroke-linecap: round;
        stroke-linejoin: round;
        stroke-width: .35px;
      }

      .cls-17 {
        fill: #f1e7e7;
      }

      .cls-18 {
        fill: #fdbd63;
      }

      .cls-19 {
        isolation: isolate;
      }

      .cls-20 {
        fill: #000002;
      }

      .cls-21 {
        fill: #e1cece;
      }

      .cls-22 {
        fill: #fbc5b9;
      }

      .cls-23 {
        fill: #edebe8;
      }

      .cls-24 {
        mix-blend-mode: screen;
        opacity: .32;
      }

      .cls-24, .cls-25 {
        fill: #656873;
      }

      .cls-26 {
        fill: #493635;
      }

      .cls-27 {
        fill-rule: evenodd;
      }

      .cls-27, .cls-28 {
        fill: #35c6f4;
      }

      .cls-29 {
        fill: #a39898;
      }

      .cls-30 {
        fill: #010101;
      }

      .cls-31 {
        fill: #bf6f46;
      }

      .cls-32 {
        fill: #aed3c1;
      }

      .cls-33 {
        fill: #ce745f;
      }

      .cls-34 {
        fill: #c04646;
      }

      .cls-35 {
        fill: #99a747;
      }

      .cls-36 {
        fill: #ceb8b8;
      }

      .cls-37 {
        fill: #93836e;
      }

      .cls-38 {
        fill: #fab59d;
      }

      .cls-39 {
        clip-path: url(#clippath);
      }

      .cls-40 {
        fill: #3b221e;
      }

      .cls-41 {
        opacity: .22;
      }
    </style>
    <clipPath id="clippath">
      <path class="cls-13" d="M117.2,56.69s-2.03,2.81-3.69,3.95-4.37-6.89-4.37-6.89l6.61-.57,1.45,3.5Z"/>
    </clipPath>
  </defs>
  <g class="cls-19">
    <g id="Layer_2" data-name="Layer 2">
      <g id="Layer_1-2" data-name="Layer 1">
        <g>
          <g>
            <g class="cls-3">
              <path class="cls-4" d="M63.85,266.61c-17.71-3.22-33.46-10.16-42.94-23-12.66-17.16-14.65-39.95-7.55-61.56,4.05-12.33,11.53-23.99,19.2-35.4,6.81-10.14,17.47-22.25,19.07-33.51,2.17-15.24-26.89-44.8-21.53-72.08C35.45,13.77,75.96-1.46,102,.11c26.04,1.58,27.89,26.36,49.56,31.42,21.67,5.06,41.89,34.01,33.01,76.04-8.88,42.03-14.18,63.97-3.02,83.2,11.16,19.22,16.07,47.62-23.36,64.94-15.78,6.93-32.76,11.28-49.51,12.56-14.69,1.12-30.4.96-44.82-1.66Z"/>
              <path class="cls-2" d="M63.85,266.61c-17.71-3.22-33.46-10.16-42.94-23-12.66-17.16-14.65-39.95-7.55-61.56,4.05-12.33,11.53-23.99,19.2-35.4,6.81-10.14,17.47-22.25,19.07-33.51,2.17-15.24-26.89-44.8-21.53-72.08C35.45,13.77,75.96-1.46,102,.11c26.04,1.58,27.89,26.36,49.56,31.42,21.67,5.06,41.89,34.01,33.01,76.04-8.88,42.03-14.18,63.97-3.02,83.2,11.16,19.22,16.07,47.62-23.36,64.94-15.78,6.93-32.76,11.28-49.51,12.56-14.69,1.12-30.4.96-44.82-1.66Z"/>
            </g>
            <g class="cls-3">
              <path class="cls-4" d="M255.98,133.83c-2.95-13.06-9.08-24.72-20.25-31.82-14.92-9.48-34.6-11.16-53.17-6.15-10.59,2.86-20.58,8.26-30.35,13.79-8.68,4.92-19.02,12.64-28.72,13.71-13.12,1.45-38.9-20.22-62.37-16.53-23.48,3.68-36.23,33.35-34.63,52.52,1.61,19.17,23,20.78,27.57,36.77s29.73,31.15,65.9,25.01c36.17-6.13,55.04-9.82,71.73-1.43,16.69,8.4,41.23,12.28,55.78-16.57,5.83-11.55,9.42-24,10.36-36.32.83-10.8.54-22.36-1.86-33Z"/>
              <path class="cls-2" d="M255.98,133.83c-2.95-13.06-9.08-24.72-20.25-31.82-14.92-9.48-34.6-11.16-53.17-6.15-10.59,2.86-20.58,8.26-30.35,13.79-8.68,4.92-19.02,12.64-28.72,13.71-13.12,1.45-38.9-20.22-62.37-16.53-23.48,3.68-36.23,33.35-34.63,52.52,1.61,19.17,23,20.78,27.57,36.77s29.73,31.15,65.9,25.01c36.17-6.13,55.04-9.82,71.73-1.43,16.69,8.4,41.23,12.28,55.78-16.57,5.83-11.55,9.42-24,10.36-36.32.83-10.8.54-22.36-1.86-33Z"/>
            </g>
            <g>
              <ellipse class="cls-16" cx="90.89" cy="268.81" rx="90.89" ry="6.38"/>
              <g>
                <path class="cls-32" d="M112.82,105.51c.22.14.97.74,1.92,1.5,1.48,1.19,3.42,2.78,4.44,3.57.27.21.48.37.59.44,4.83,3.16,8.6,5.09,10.03,3.26,1.43-1.83,1.73-5.83-.49-7.54-5.89-4.53-6.93-6.51-11.42-12.25-.78-1-1.51-1.94-2.16-2.77-1.57-2-2.61-3.35-2.61-3.35,0,0-4.11-.71-3.56,4.4.5,4.57-2.26,9.3,3.26,12.76Z"/>
                <path class="cls-10" d="M131.06,115.15c0-.12.09-3.25-.82-4.47-.9-1.22-7.44-2.28-8,2.29-.5,4.08,8.82,2.82,8.82,2.18Z"/>
                <path class="cls-18" d="M124.44,109.8v1.21s4.4,0,4.4,0v-1.21c-1.59-1.12-4.29-.05-4.4,0h0Z"/>
                <path class="cls-18" d="M130.95,113.62s-.57-2.32-4.02-2.67c-3.45-.34-4.28,3.55-4.28,3.55,0,0-.56-.07-.59-.85-.03-.78,1.44-2.94,3.43-3.34,1.99-.41,3.9-.09,5.02,1.39,1.12,1.48.44,1.92.44,1.92Z"/>
                <path class="cls-12" d="M123.38,117.87c.28.43.58.71.85.77,1.23.24,1.34-.78,1.89-.7.55.08.51,1.13,1.58,1.01,1.07-.12,1.55-1.23,2.13-.85.49.33,1.23.84,1.87-.36.32-.61.35-1.53.27-2.46-.08-.9-.27-1.81-.41-2.41,0,0-.12-.93-.77-.87-.67.07-.67.68-1.54.44-.87-.24-.87-1.13-1.94-.73-1.07.4-1,.71-2.07.11-1.07-.6-1.3.04-2.14.47-.47.24-.71.71-.8,1.3,0,.04-.01.08-.01.12-.16,1.32.43,3.15,1.11,4.17Z"/>
                <path class="cls-12" d="M120.72,113.76c.1-.87,1.18-1.22,1.79-.59.66.69,1.53,1.75,1.41,2.44-.23,1.34-2.84.32-3.1-.62-.1-.36-.15-.81-.1-1.23Z"/>
                <path class="cls-11" d="M124.44,109.8c2.13.97,4.4,0,4.4,0-1.59-1.12-4.29-.05-4.4,0h0Z"/>
                <path class="cls-33" d="M122.51,113.17s1.36,1.4,1.37,1.98c.01.58-.01.93-.55,1.07s-.71.04-.66.18c.05.13,1.01.54,1.57-.37.55-.91-.77-2.3-1.72-2.85Z"/>
                <path class="cls-33" d="M125.48,117.75c.17-.06.34-.09.52-.08.53.03,1.01,0,1.39.44.43.5,1.05-.41,1.48-.47.73-.11,1.37-.44,1.99-.83.47-.3.86-.99,1.11-1.52.08.92.05,1.85-.27,2.46-.63,1.2-1.37.68-1.87.36-.58-.39-1.06.73-2.13.85-.36.04-.71-.08-.95-.37-.18-.22-.32-.6-.64-.64-.28-.03-.48.25-.7.43-.3.26-.74.37-1.13.27-.39-.1-.73-.39-.88-.77.43.09.89.2,1.33.11.25-.05.49-.16.74-.24Z"/>
                <path class="cls-6" d="M127.63,107.38s-2.01-.59-3.93.94c-1.92,1.54-2.36,3.02-1.67.4.69-2.63,4.61-2.6,5.6-1.34Z"/>
                <g>
                  <path class="cls-21" d="M47.11,238.02c-1.41,2-1.22,5.01.44,6.72s4.14,1.47,5.56-.53c1.92-3.21,7.87-9.73,7.9-9.84.03-.13-5.97-6.69-6.66-6.35-.69.35-3.45,5.62-5.46,8.1-.43.54-1.17,1.03-1.78,1.9Z"/>
                  <path class="cls-36" d="M61,234.38c-.02.08-2.95,3.3-5.36,6.33l-5.76-5.94c1.83-2.67,3.88-6.44,4.46-6.74.69-.35,6.69,6.22,6.66,6.35Z"/>
                  <path class="cls-8" d="M74.06,191.21l-25.72,38.13s13.11,13.59,13.25,13.44c10.6-11.93,20.27-23.39,28.93-33.92,4.03-5.5,3.6-13.91-.94-18.78-4.55-4.87-11.5-4.36-15.52,1.14Z"/>
                  <path class="cls-37" d="M65.03,238.88l-13.63-14.08.42-.62,13.7,14.15c-.16.18-.33.37-.49.55Z"/>
                  <path class="cls-10" d="M82.04,199.76c-.12.17-.1.43.04.58s.36.13.48-.05.1-.43-.04-.58-.36-.13-.48.05Z"/>
                  <path class="cls-10" d="M49.86,240.86c-.12.17-.1.42.04.56s.34.12.46-.04.1-.42-.04-.56-.34-.12-.46.04Z"/>
                </g>
                <g>
                  <path class="cls-8" d="M77.01,146.29c-1.14,5.57,1.63,15.82,1.63,15.82l-6.1,33c-1.56,7.1,1.92,14.39,7.79,16.28,5.87,1.89,11.89-2.33,13.46-9.43,5.25-19.27,9.44-36.02,12.17-47.7,1.97-9.63-2.89-19.36-10.84-21.74-7.96-2.38-16,3.49-17.97,13.12-.04.19-.1.44-.14.63Z"/>
                  <ellipse class="cls-10" cx="91.55" cy="149.97" rx=".34" ry=".41"/>
                  <path class="cls-10" d="M82.83,198.45c-.04.22.07.44.25.5s.37-.08.41-.3-.07-.44-.25-.5-.37.08-.41.3Z"/>
                </g>
                <polygon class="cls-9" points="83.61 162.34 95.58 195.13 97.61 187.75 80.66 157.2 83.61 162.34"/>
                <g>
                  <g>
                    <path class="cls-21" d="M44.96,239.75h0s0,0,0,0c1.71-2,4.72-2.24,6.72-.53,2,1.71,2.24,4.72.53,6.72l-.02.02c-.05.1-.09.2-.12.29-.69,2.14,4,12.9,5.37,17.08l-20.16-17.2c.95-1.17,4.93-4.15,7.67-6.39Z"/>
                    <path class="cls-29" d="M53.81,245.75c-1.65-3.27-3.39-3.52-4.68-3.49-.69.02-3.05,1.3-3.36.88s-1.22-3.04-1.22-3.04l.41-.35-.32-.29s-4.6,2.25-5.95,3.43c-1.35,1.18-2.18,3.11-2.18,3.11l22.27,19s4.84-.6,1.33-6.54c-3.26-5.53-4.62-9.38-6.3-12.71Z"/>
                    <path class="cls-17" d="M58.24,255.47c-2.13-2.44-3.43-.32-3.68-.5-.25-.18-4.13-7.74-3.75-7.85.38-.11,3.18-.45,4.55.62,1.38,1.07,3.87,8.38,3.8,8.46s-.24.17-.24.17l-.68-.89Z"/>
                    <path class="cls-17" d="M58.17,265.67l-22.91-19.55c.46-.52,2.01-2.22,2.11-2.18.12.05,21.06,20.01,21.41,20.2,1.09.58,2.57-1.43,2.57-1.43.57,2.07-1.78,3.66-3.18,2.97Z"/>
                  </g>
                  <path class="cls-10" d="M48.29,242.59c-.14.17-.12.42.04.56s.42.12.56-.04.12-.42-.04-.56-.42-.12-.56.04Z"/>
                </g>
                <g>
                  <path class="cls-34" d="M124.23,62.14s-1.23,1.14-.97,1.64c.27.5,6.17,5.92,6.23,5.91.06-.01,1.71-1.94,1.71-1.94l-6.98-5.62Z"/>
                  <path class="cls-31" d="M123.3,63.5s5.69,4.66,6.5,5.45-2.34,1.03-4.12-.51c-1.78-1.54-2.33-3.58-2.44-4.3-.11-.72.07-.64.07-.64Z"/>
                  <path class="cls-35" d="M123.52,63.18s-.81.48-.76.8c.05.33.89.54,1.46.81.58.27.39,1.07,1.2,1.35.81.28,1.12.11,1.51.77.39.66,1.87,1.53,2.29,1.48.42-.05.46-.45.46-.45l-6.16-4.76Z"/>
                  <path class="cls-15" d="M123.51,62.84s-.28.45-.35.59c-.08.14,6.12,4.59,6.73,5.31.61.71-.15-1.45-6.37-5.9Z"/>
                  <path class="cls-31" d="M123.99,62.08s1.07,1.52,1.98,2.06c.91.54,4.24,3.85,5.2,4.01.96.16.27-4.13-2.74-5.74-3.01-1.62-4.39-.6-4.45-.32Z"/>
                </g>
                <g>
                  <path class="cls-12" d="M130.12,74.5s1.83-.59,2.95-2.48c1.13-1.9.74-3.37,1.09-3.65.35-.28,1.12,1.15,1.94.22.82-.92-1.23-2.48-1.23-2.48,0,0,.39-.65-.33-1.28-.72-.63-1.44-.46-1.44-.46,0,0,.21-.78-.44-1.21s-1.75-.02-1.75-.02c0,0,.16-1.11-1.12-1.08-1.28.03-3.55,2.48-4.14,3.74-.97,2.03,0,6.2-.13,6.48-.03.06-.2.65-.31,1-.4,1.34.36,2.75,1.7,3.15,1.34.4,2.75-.36,3.15-1.7l.07-.22Z"/>
                  <path class="cls-38" d="M131.89,68.83c-.15-.32-.35-.6-.61-.85-.1-.09-.23-.24-.36-.27-.12-.03-.11.03-.18.12-.55.67-.97-.49-1.17-.84-.08-.15-.18-.29-.31-.41-.07-.07-.21-.2-.24-.19-.05.02-.1.12-.15.16-.04.03-.08.06-.13.07-.13.04-.29,0-.39-.09-.22-.19-.38-.5-.56-.73-.06-.08-.46-.66-.57-.46-.23.4-.84.05-.62-.35.24-.42.78-.49,1.18-.24.22.14.37.35.52.55.09.12.18.24.27.36.03.04.05.07.08.11.08-.05.18-.08.27-.09.25-.02.47.09.66.25.22.18.42.41.56.65.1.16.16.38.26.57.06-.05.13-.1.23-.13.24-.07.49,0,.71.12.51.29.91.81,1.16,1.33.19.41-.41.77-.61.36Z"/>
                  <g>
                    <path class="cls-33" d="M129.71,64.21c-.16-.11-.32-.22-.48-.32.43-.48.89-.96,1.46-1.26.04-.02.08-.04.12-.06.13.28.09.57.09.57,0,0,.05-.02.14-.05-.04.02-.08.04-.13.06-.47.26-.85.65-1.21,1.06Z"/>
                    <path class="cls-33" d="M131.53,65.51c-.09-.06-.18-.12-.26-.18-.07-.05-.13-.09-.2-.14.53-.65,1.26-1.08,2.05-1.23.02.23-.03.41-.03.41,0,0,.39-.09.88.11-.93-.08-1.85.29-2.45,1.03Z"/>
                    <path class="cls-33" d="M134.22,66.4c-.22.07-.43.19-.6.33-.05.04-.1.09-.15.14-.15-.11-.31-.23-.46-.34.11-.11.22-.21.34-.31.23-.18.49-.3.77-.39.27-.09.57-.12.86-.11-.02.22-.1.37-.1.37,0,0,.1.08.25.21-.3-.03-.6,0-.89.1Z"/>
                  </g>
                  <path class="cls-10" d="M127.82,74.21c.12-.11.13-.29.02-.41-.11-.12-.29-.13-.41-.02-.12.11-.13.29-.02.41.11.12.29.13.41.02Z"/>
                </g>
                <g>
                  <path class="cls-8" d="M83.84,156.84c1.26,5.53,7.81,12.84,7.81,12.84l8.01,32.4c1.5,7.12,7.49,11.41,13.38,9.6,5.88-1.82,9.43-9.06,7.93-16.18-3.2-19.92-6.32-37.01-8.65-48.81-2.17-9.56-10.34-15.18-18.24-12.55-7.9,2.63-12.55,12.51-10.37,22.07.04.19.09.44.14.63Z"/>
                  <ellipse class="cls-10" cx="98.01" cy="151.44" rx=".34" ry=".41"/>
                  <path class="cls-10" d="M109.99,198.9c.05.22.24.35.42.29s.29-.29.24-.5-.24-.35-.42-.29-.29.29-.24.5Z"/>
                </g>
                <g>
                  <path class="cls-21" d="M116.56,255.36c.58,2.54,2.75,4.03,4.85,3.33,2.1-.7,3.33-3.32,2.76-5.86-1.12-3.73-2.24-13.34-2.3-13.43-.07-.1-7.93,2.22-8.08,3.11-.15.88,1.9,6.61,2.48,10.01.12.73.05,1.75.3,2.84Z"/>
                  <path class="cls-36" d="M121.86,239.41c.04.06.61,4.8,1.32,8.92l-7.3,2.43c-.8-3.33-2.23-7.5-2.11-8.24.15-.88,8.01-3.21,8.08-3.11Z"/>
                  <path class="cls-8" d="M99.67,202.09l11.64,47.15s16.66-5.5,16.63-5.73c-2.21-17.31-4.62-33.42-6.97-48.01-1.5-7.12-7.49-11.41-13.38-9.6-5.88,1.82-9.43,9.06-7.93,16.18Z"/>
                  <path class="cls-37" d="M127.21,237.89l-17.28,5.75-.19-.77,17.37-5.78c.04.26.07.53.1.8Z"/>
                  <path class="cls-10" d="M109.99,198.91c.05.22.24.35.42.29s.29-.29.24-.5-.24-.35-.42-.29-.29.29-.24.5Z"/>
                  <path class="cls-10" d="M120.04,254.2c.05.21.23.33.4.28s.28-.28.23-.49-.23-.33-.4-.28-.28.28-.23.49Z"/>
                </g>
                <g>
                  <g>
                    <path class="cls-21" d="M116.7,258.04h0s0,0,0,0c-.7-2.54.79-5.16,3.33-5.86,2.54-.7,5.16.79,5.86,3.33v.03c.07.1.12.19.18.26,1.38,1.77,12.92,3.93,17.15,5.15l-25.55,7.03c-.44-1.44-.67-6.41-.98-9.94Z"/>
                    <path class="cls-29" d="M126.64,254.09c-3.63-.47-4.82.83-5.51,1.91-.37.58-.63,3.25-1.16,3.27s-3.2-.69-3.2-.69l-.06-.53-.42.1s-.72,5.07-.5,6.85c.22,1.78,1.35,3.55,1.35,3.55l28.22-7.76s2.22-4.34-4.67-4.77c-6.41-.4-10.36-1.44-14.05-1.92Z"/>
                    <path class="cls-17" d="M137.17,255.88c-3.22.4-2.19,2.66-2.48,2.77-.29.11-8.73-.92-8.6-1.3.12-.38,1.41-2.88,3.07-3.42,1.65-.54,9.1,1.5,9.13,1.61s0,.29,0,.29l-1.12.06Z"/>
                    <path class="cls-17" d="M145.57,261.66l-29.04,7.99c-.17-.67-.71-2.91-.62-2.97.11-.07,28.39-6.2,28.73-6.38,1.09-.58.26-2.93.26-2.93,2.03.69,2.03,3.52.67,4.3Z"/>
                  </g>
                  <path class="cls-10" d="M120.92,256.88c.06.21.28.33.49.28s.33-.28.28-.49-.28-.33-.49-.28-.33.28-.28.49Z"/>
                </g>
                <path class="cls-12" d="M125.11,36.08c.81,3.5-4.71,11.88-4.8,12.18s2.93,4.66,2.04,6.24-4.02.71-4.18.82c-.16.11-3.61,5.8-6.55,6.15s-6.72-3.1-7.17-2.87-4.56,12.18-4.56,12.18l-11.34-8.54s5.07-13.21,5.89-15.33c.62-1.61.76-18.71,5.35-22.03,5.65-4.09,24.15,6.14,25.32,11.2Z"/>
                <path class="cls-26" d="M119.05,45.95c-.42.65-.63,1.25-.47,1.35s.62-.34,1.03-.99.63-1.25.47-1.35-.62.34-1.03.99Z"/>
                <path class="cls-26" d="M120.41,42.05c.72.23,1.41.55,2.04.97.16.11.29.24.34.44.04.17.02.39-.07.55-.1.17-.25.32-.44.37-.17.05-.38.05-.54-.05-.47-.31-.97-.57-1.5-.77-.07-.02-.13-.05-.2-.07-.18-.06-.34-.15-.44-.33-.08-.15-.12-.37-.07-.54.11-.35.5-.68.88-.56Z"/>
                <path class="cls-33" d="M117.34,47.82c.08-.07.17-.13.28-.12h.1c.07.03.13.06.18.11.13.1.27.2.4.3.04.04.07.08.09.13.02.05.04.1.04.15,0,.05,0,.1-.03.15-.01.05-.04.1-.08.14-.08.07-.17.13-.28.12h-.1c-.07-.03-.13-.06-.18-.11-.13-.1-.27-.2-.4-.3-.04-.04-.07-.08-.09-.13-.02-.05-.04-.1-.04-.15,0-.05,0-.1.03-.15.01-.05.04-.1.08-.14Z"/>
                <path class="cls-8" d="M78.1,146.27c0,9.92,8.04,17.95,17.95,17.95,9.92,0,17.95-8.04,17.95-17.95.41-12.14.4-19.3.25-19.44h-31.02c-.52.25-4.93,9.82-5.14,19.44Z"/>
                <path class="cls-33" d="M99.8,56.26c-.15-3.92,2.63-7.88,2.63-7.88,0,0-2.29-3.05-2.24-3.16s1.91-1.92,1.91-1.92l2.66,4.27s-1.59,4.27-.99,6.47c1.06,3.9,6.11,6.83,7.27,7.45-2.84-.1-6.18-3.1-6.6-2.89-.14.07-.91.96-1.92,2.17-1.46-1.39-2.67-2.99-2.73-4.51Z"/>
                <path class="cls-1" d="M125.11,36.08s-4.47-2.63-6.06-1.74c-1.1.61-3.03,5.76-3.21,5.73s-2.56-.51-2.77-.44-2.29,4.35-2.29,4.35l-1.7-.82-.7-1.69-3.53-.03-6.06,7.47-4.58-2.21s1.24-18.23,2.84-20.82c2.05-3.31,5.46-3.11,5.46-3.11,0,0,.17-3.42,2.97-3.48,2.79-.06,18.96,7.67,20.59,10.85,1.63,3.17-.96,5.93-.96,5.93Z"/>
                <path class="cls-12" d="M109.2,45.39c-.83,2.27-3,3.42-4.84,2.56s-2.67-3.4-1.84-5.67c.83-2.27,3-3.42,4.84-2.56s2.67,3.4,1.84,5.67Z"/>
                <path class="cls-33" d="M106.04,47.52c.09-.1,2.28-2.37,1.96-4.19-.31-1.82-2.49-2.97-2.58-3.01l-.37.71s1.92,1.01,2.16,2.44c.2,1.18-1.19,2.93-1.75,3.5l.58.56Z"/>
                <rect class="cls-33" x="105.86" y="42.81" width=".8" height="2.41" transform="translate(8.44 104.51) rotate(-54.23)"/>
                <path class="cls-32" d="M87.05,63.04s.15-3.96,1.21-4.35c1.06-.38,13.96,4.47,15.78,5.77.68.48.37,2.11.37,2.11,0,0,9.26,8.02,11.44,19.46,2.19,11.44,1.41,57.59.42,57.91-1.4.45-39.79.13-41.07-2.21-.68-1.26,1.56-17.4,2.29-34.11.63-14.33-.41-29.3.93-33.27,2.9-8.58,8.62-11.31,8.62-11.31Z"/>
                <g>
                  <path class="cls-20" d="M121.69,30.74c.27-1.66-1.8-4.51-3.08-5.97.63.35,1.25.69,1.85,1.04,1.09,1.49,2.28,3.53,2.02,5.06-.22,1.32-.88,2.53-1.5,3.43-.31-.07-.61-.12-.89-.14.64-.86,1.39-2.1,1.61-3.43Z"/>
                  <path class="cls-20" d="M123.37,27.65c.46.32.88.63,1.25.93.63,1.68,1.15,3.62.73,4.5-.38.78-1.22,1.52-2,2.08-.27-.13-.57-.25-.87-.37.79-.53,1.78-1.29,2.14-2.05.39-.82-.53-3.42-1.25-5.09Z"/>
                  <path class="cls-20" d="M100.49,26.09c-.93.02-2.43.05-3.45-.17-.11.18-.21.44-.32.75,1,.25,2.36.25,3.79.22.37,0,.77-.02,1,0,.31,1.27,1.67,6.28,3.12,6.98.06.03.12.05.18.06.81.18,2.39-.46,4.53-1.39.76-.33,1.7-.74,2.06-.82.15.28.41.98.63,1.57.95,2.53,1.58,4.06,2.43,4,.83-.06,1.24-1.08,1.54-1.82.03-.07.06-.15.09-.23.27.43.68,1.23,1.08,2.07.15-.31.3-.62.46-.91-.59-1.2-.94-1.74-1.15-1.98.02-.61.13-1.53.36-1.85.16-.23.73-.16,1.07-.06.57.73.85,1.42.98,1.96.06-.05.11-.1.17-.13.17-.09.37-.15.59-.17-.25-.98-.9-2.3-2.48-3.52.41-.48,1.05-1.44,1.21-2.85.12-1.08-.79-2.71-1.79-4.11-.55-.28-1.1-.55-1.64-.82,1.18,1.47,2.76,3.74,2.64,4.84-.14,1.27-.75,2.11-1.08,2.47-.75-.49-1.84-1.12-3.11-1.81.79-.51,1.57-1.5,1.16-3.05-.23-.88-.93-2.22-1.69-3.43-.47-.22-.94-.42-1.39-.62.87,1.21,1.97,2.97,2.3,4.25.41,1.57-.78,2.21-1.24,2.39-1.06-.57-2.2-1.16-3.36-1.75.52-.56,1.33-1.63,1.27-2.74-.04-.75-.6-1.87-1.33-3.1-.42-.16-.82-.31-1.19-.43.61,1.01,1.68,2.79,1.72,3.58.04.93-.81,1.91-1.21,2.32l-3.3-1.84c.57-.8,1.78-2.73,1.7-4.39-.31-.09-.59-.15-.83-.19.22,1.4-1,3.41-1.67,4.31-.06,0-.12,0-.18,0-.65-.32-1.25-.61-1.79-.88-.23,0-.76.02-1.43.2.49.24,1.1.53,1.78.87-.21.08-.38.19-.47.34-.22.35-.55,1.42-.69,1.91-.26-.02-.61,0-1.08,0ZM112.14,29.7c.06-.14.56-.37,1.05-.5,1.29.73,3.01,1.77,3.14,1.84.09.06.18.12.25.18.17.13.33.26.48.39-.34.04-.67.17-.89.48-.4.56-.49,1.75-.51,2.26-.16.18-.28.47-.42.81-.18.44-.5,1.25-.83,1.32-.43-.24-1.25-2.42-1.64-3.48-.41-1.09-.6-1.58-.77-1.83,0-.48.04-1.2.14-1.48ZM106.9,27.94c.77-1.21,2.22-.85,2.44-.79.73.37,1.44.75,2.13,1.11h0s.79.42.79.42c-.37.17-.74.41-.86.74-.14.38-.18,1.08-.19,1.52-.41.1-1.05.36-2.19.86-1.25.54-3.09,1.34-3.86,1.36.24-1.04.96-3.99,1.74-5.23ZM102.28,26.52c.18-.64.5-1.62.65-1.9.13-.08.57-.14,1.06-.16,1.16.58,2.46,1.22,3.78,1.89-.57.16-1.14.5-1.56,1.15-.78,1.23-1.46,3.83-1.76,5.12-.92-1.44-2.13-5.37-2.22-6.09,0,0,0-.02,0-.02h.05Z"/>
                </g>
                <path class="cls-20" d="M99.48,35.29c.07.05.42.32.51.19.07-.1-.07-.44-.08-.57-.02-.37.13-.74.5-.87.39-.14.79.13,1.11.32.41.26.79.57,1.16.88.66.56,1.3,1.18,2.08,1.56.57.28,1.76.65,2.24.01.31-.42.95.06.64.48-.56.75-1.68.74-2.5.51-.93-.26-1.72-.86-2.44-1.48-.42-.36-.82-.73-1.27-1.05-.2-.15-.4-.29-.62-.4-.03-.02-.07-.03-.1-.05,0,.08.02.16.03.24.08.43.05.89-.38,1.12-.48.26-.96.02-1.37-.26-.43-.29.06-.94.48-.64Z"/>
                <g class="cls-41">
                  <path class="cls-22" d="M104.26,19.59c4.31,2.25,19.48,10.15,19.96,10.3.33.11.65-.45.86-.91.47.43.82.82.99,1.16.59,1.14.63,2.23.44,3.15-.7.09-1.5.11-2.18-.11-1.43-.46-18.46-9.5-21.69-11.22.18-.76.61-1.85,1.62-2.37Z"/>
                </g>
                <path class="cls-6" d="M104.42,66.56s.27.23.71.66c0,.14-.02.28-.03.42-.07,1.09-.12,2.03-.78,2.23-.03,0-.07.02-.12.02-.36,0-1.68-.4-9.64-3.77-2.9-1.23-5.8-2.47-7.5-3.21,0-.16.03-.47.06-.85,6.65,2.88,15.69,6.71,16.97,7,.13-.23.18-1,.21-1.48.03-.54.07-1.1.18-1.55h0c-.02.3-.06.52-.06.52Z"/>
                <path class="cls-6" d="M107.61,86.84v.4c.03,3.25.11,13.91.32,14.55.25.79,2.37,1.97,2.67,1.97.44,0,2.61-2.14,2.62-2.16.08-.13.24-.37.07-14.36v-.4h-5.68ZM112.49,87.65c0,.57.01,1.16.02,1.77h-4.07c0-.61-.01-1.2-.01-1.77h4.07ZM108.69,101.55c-.11-.49-.2-6.28-.25-11.33h4.07c.05,4.78.07,10.21-.01,10.99-.28.3-1.52,1.37-1.95,1.7-.51-.25-1.76-1.03-1.86-1.36Z"/>
                <circle class="cls-32" cx="92.48" cy="77.51" r="6.54"/>
                <path class="cls-10" d="M92.88,77.51c0,.22-.18.4-.4.4s-.4-.18-.4-.4.18-.4.4-.4.4.18.4.4Z"/>
                <g>
                  <path class="cls-32" d="M91.35,82.38h0c-1.7-2.73-.93-6.33,1.77-8.12,2.75-1.82,6.45-1.07,8.27,1.67,4.2,6.33,11.98,15.49,18.09,20.6,2.9,2.41,3.3,6.71.89,9.61-2.41,2.9-6.71,3.3-9.61.89-10.61-9.52-18.47-22.96-19.41-24.65Z"/>
                  <path class="cls-10" d="M96.72,79.02c.11.17.07.4-.1.51-.17.11-.4.07-.51-.1-.11-.17-.07-.4.1-.51.17-.11.4-.07.51.1Z"/>
                  <path class="cls-10" d="M114.82,101.98c.11.17.34.22.51.1.17-.11.22-.34.1-.51-.11-.17-.34-.22-.51-.1-.17.11-.22.34-.1.51Z"/>
                </g>
                <g>
                  <path class="cls-12" d="M129.08,77.77l.99-3.14c.4-1.34-.36-2.75-1.7-3.15-1.34-.4-2.75.36-3.15,1.7-.38,1.23-.98,3.2-.98,3.2.12.03,4.83,1.39,4.83,1.39Z"/>
                  <path class="cls-32" d="M120.69,105.75c.54-.81,1.16-1.69,1.65-2.53,6.48-11.15,9.89-26.41,9.89-26.41l-9.37-3.21s-6.48,18.04-10.05,24.69c-.28.53-.76,1.32-1.12,1.89-1.54,2.49-.77,5.75,1.72,7.29,2.49,1.54,5.75.77,7.29-1.72Z"/>
                  <path class="cls-10" d="M116.38,103.17c.12-.1.13-.29.02-.4-.1-.12-.29-.13-.4-.02s-.13.29-.02.4c.1.12.29.13.4.02Z"/>
                  <path class="cls-10" d="M127.84,74.12c.12-.11.13-.29.02-.41-.11-.12-.29-.13-.41-.02-.12.11-.13.29-.02.41.11.12.29.13.41.02Z"/>
                </g>
                <path class="cls-10" d="M95.64,146.27c0,.23.18.41.41.41s.41-.18.41-.41c0-.23-.18-.41-.41-.41s-.41.18-.41.41Z"/>
                <path class="cls-6" d="M106.55,102.91c4.1,4.03,9.6,8.51,14.09,2.28,1.16-1.5,2.17-3.13,3.18-4.75-.9,1.69-1.82,3.37-2.96,4.92-4.56,6.49-10.36,2.02-14.32-2.46h0Z"/>
                <path class="cls-14" d="M91.74,75.52s4.71-3.39,6.17-2.26c5.51,4.25,8.92,9.98,8.92,9.98"/>
                <path class="cls-6" d="M90.51,79.03c-.05.02-.15.34-.11.59.34,1.96,1.5,3.68,2.47,5.38,3.64,5.86,7.97,11.26,12.26,16.65-2.17-2.78-17.4-20.64-14.7-22.97.26-.08.33.29.07.35h0Z"/>
                <g class="cls-39">
                  <g>
                    <path class="cls-40" d="M116.38,57.05c.35.51.28,1.46,0,1.95-.23.4-.91,1.1-1.65.99-1.14-.18-1.51-1.27-1-2.23.52-.96,2.12-1.47,2.64-.72Z"/>
                    <path class="cls-5" d="M113.83,59.5c.21.26.51.44.9.5.35.06.68-.07.94-.24-.22-.32-1.04-.43-1.84-.25Z"/>
                    <path class="cls-23" d="M116.6,57.7c-.03-.24-.1-.47-.23-.65-.14-.21-.36-.32-.63-.35l.85.99Z"/>
                  </g>
                </g>
              </g>
              <g>
                <polygon class="cls-30" points="77.55 151.86 77.55 98.49 80.66 151.14 77.55 151.86"/>
                <path class="cls-30" d="M80.75,170.8l32.7-.37c1.28-.01,2.31-1.08,2.29-2.37l-.34-21.58c-.02-1.29-1.08-2.33-2.36-2.31l-14.15.16-18.55.21c-1.28.01-2.31,1.08-2.3,2.37l.3,19.45s.03,2.13.03,2.13c.02,1.29,1.08,2.33,2.36,2.31Z"/>
                <path class="cls-25" d="M79.75,158.19c.89-.51,2.13-.85,3.51-.87l26.32-.54c1.37-.03,2.62.25,3.54.73-.65-1.1-2.57-1.88-4.81-1.83l-23.82.49c-2.24.05-4.13.9-4.72,2.03Z"/>
                <path class="cls-24" d="M78.36,166.35c.12-.35,3.74-11.87,4.79-14.49,1.08-2.66,18.76-4.75,18.76-4.75l-3.01-2.78-18.55.21c-1.28.01-2.31,1.08-2.3,2.37l.3,19.45Z"/>
                <path class="cls-25" d="M79.53,147.84c.89-.51,2.13-.85,3.51-.87l26.32-.54c1.37-.03,2.62.25,3.54.73-.65-1.1-2.57-1.88-4.81-1.83l-23.82.49c-2.24.05-4.13.9-4.72,2.03Z"/>
                <path class="cls-25" d="M102.61,163.5c-1.05-.18-2.1-.27-3.15-.32-1.05-.06-2.1-.06-3.15-.05-1.05.03-2.09.07-3.14.17-1.05.09-2.09.22-3.13.44,1.05.18,2.1.27,3.15.32,1.05.06,2.1.06,3.15.04,1.05-.03,2.09-.07,3.14-.17,1.05-.09,2.09-.22,3.13-.44Z"/>
                <path class="cls-30" d="M115.12,108.86s-.45,26.16-.28,37c-.03,4.95.03,5.17.03,5.17l.55-3.19s-.04-9.23.09-16.11-.4-22.87-.4-22.87Z"/>
              </g>
            </g>
          </g>
          <g>
            <g>
              <path class="cls-7" d="M163.51,148.8v10.67h-2.02v-10.67h2.02Z"/>
              <path class="cls-7" d="M170.41,156.23c0,.6.13,1.03.4,1.28.27.26.65.39,1.14.39.38,0,.68-.08.9-.24s.33-.38.36-.67l.02-.05h1.82v.08c0,.76-.28,1.38-.85,1.84-.57.46-1.34.7-2.32.7-1.03,0-1.85-.3-2.46-.89-.61-.59-.91-1.51-.91-2.74v-.97c0-1.21.29-2.11.88-2.71.59-.6,1.4-.9,2.43-.9s1.81.3,2.4.91c.59.61.89,1.51.89,2.7v1.07h-4.7v.22ZM170.41,154.66v.05h2.78v-.2c0-1.02-.46-1.53-1.38-1.53-.45,0-.8.13-1.04.39-.24.26-.36.69-.36,1.3Z"/>
              <path class="cls-7" d="M182.72,154.18v5.29h-1.85v-.7c-.27.28-.54.48-.83.6s-.64.19-1.07.19c-.82,0-1.46-.22-1.92-.66-.45-.44-.68-1.06-.68-1.84,0-.72.24-1.29.73-1.71.48-.42,1.16-.63,2.02-.63h1.7v-.63c0-.86-.43-1.28-1.28-1.28-.36,0-.65.09-.86.27-.21.18-.32.42-.32.72v.05h-1.78v-.06c0-.75.27-1.35.8-1.79s1.26-.66,2.16-.66c1.02,0,1.8.24,2.35.72.55.48.82,1.19.82,2.13ZM180.82,156.61v-.57h-1.39c-.8,0-1.21.32-1.21.97s.39,1,1.17,1c.5,0,.87-.12,1.09-.35s.33-.58.33-1.06Z"/>
              <path class="cls-7" d="M186.88,157.02c0,.55.26.82.79.82h.6v1.62h-.91c-.73,0-1.31-.21-1.74-.63-.43-.42-.64-.98-.64-1.69v-4.37h-1.11v-1.34h1.11v-1.58l1.9-.66v2.24h1.55v1.34h-1.55v4.25Z"/>
              <path class="cls-7" d="M194.97,148.8v1.53h-1.95v-1.53h1.95ZM194.96,151.43v8.04h-1.9v-8.04h1.9Z"/>
              <path class="cls-7" d="M198.58,151.43v.73c.24-.27.52-.47.86-.61s.68-.21,1.04-.21c.82,0,1.46.26,1.92.77.45.52.68,1.22.68,2.12v5.24h-1.92v-5.01c0-.45-.11-.8-.34-1.05-.23-.25-.53-.37-.91-.37s-.68.12-.92.37c-.24.25-.36.6-.36,1.05v5.01h-1.92v-8.04h1.87Z"/>
              <path class="cls-7" d="M166.32,172.73v5.29h-1.85v-.7c-.27.28-.54.48-.83.6s-.64.19-1.07.19c-.82,0-1.46-.22-1.92-.66-.45-.44-.68-1.06-.68-1.84,0-.72.24-1.29.73-1.71.48-.42,1.16-.63,2.02-.63h1.7v-.63c0-.86-.43-1.28-1.28-1.28-.36,0-.65.09-.86.27-.21.18-.32.42-.32.72v.05h-1.78v-.06c0-.75.27-1.35.8-1.79s1.26-.66,2.16-.66c1.02,0,1.8.24,2.35.72.55.48.82,1.19.82,2.13ZM164.42,175.15v-.57h-1.39c-.8,0-1.21.32-1.21.97s.39,1,1.17,1c.5,0,.87-.12,1.09-.35s.33-.58.33-1.06Z"/>
              <path class="cls-7" d="M173.13,167.35v3.34c.24-.27.52-.47.83-.6.32-.13.66-.2,1.02-.2.82,0,1.46.25,1.92.77.45.51.68,1.22.68,2.13v5.24h-1.92v-5.01c0-.46-.11-.82-.34-1.06s-.53-.36-.91-.36-.68.12-.92.37c-.24.25-.36.6-.36,1.05v5.01h-1.92v-10.67h1.92Z"/>
              <path class="cls-7" d="M179.25,169.97h1.92v4.7c0,.57.08,1,.25,1.29.17.29.51.44,1.01.44s.84-.14,1.01-.42.25-.72.25-1.31v-4.7h1.92v4.79c0,1.11-.26,1.95-.79,2.5-.53.56-1.32.83-2.4.83-2.12,0-3.18-1.11-3.18-3.34v-4.79Z"/>
              <path class="cls-7" d="M189.16,169.97v.83c.2-.34.46-.59.79-.76.33-.17.7-.25,1.11-.25.24,0,.45.02.65.06v1.79c-.36-.11-.68-.17-.96-.17-.46,0-.84.15-1.12.44-.28.29-.42.71-.42,1.26v4.82h-1.92v-8.04h1.87Z"/>
              <path class="cls-7" d="M194.7,169.97v.83c.2-.34.46-.59.79-.76.33-.17.7-.25,1.11-.25.24,0,.45.02.65.06v1.79c-.36-.11-.68-.17-.96-.17-.46,0-.84.15-1.12.44-.28.29-.42.71-.42,1.26v4.82h-1.92v-8.04h1.87Z"/>
              <path class="cls-7" d="M201.79,178.71c-.21.59-.5,1.01-.89,1.28-.39.27-.9.4-1.54.4h-.66v-1.72h.6c.31,0,.54-.05.69-.16.15-.11.27-.31.36-.61l.03-.11-2.72-7.82h2.02l1.58,5.05,1.61-5.05h1.96l-3.04,8.73Z"/>
            </g>
            <g>
              <path class="cls-27" d="M146.94,125.53c1.79.35,3.14,1.92,3.14,3.81,0,2.15-1.74,3.88-3.88,3.88s-3.88-1.74-3.88-3.88c0-2.51,2.01-6.57,6.94-6.92-1.02.85-2.12,2.43-2.31,3.11h0ZM137.52,125.53c1.79.35,3.14,1.92,3.14,3.81,0,2.15-1.74,3.88-3.88,3.88s-3.88-1.74-3.88-3.88c0-2.51,2.01-6.57,6.94-6.92-1.02.85-2.12,2.43-2.31,3.11h0Z"/>
              <path class="cls-27" d="M211.06,199.11c-1.79-.35-3.14-1.92-3.14-3.81,0-2.15,1.74-3.88,3.88-3.88s3.88,1.74,3.88,3.88c0,2.51-2.01,6.57-6.94,6.92,1.02-.85,2.12-2.43,2.31-3.11h0ZM220.48,199.11c-1.79-.35-3.14-1.92-3.14-3.81,0-2.15,1.74-3.88,3.88-3.88s3.88,1.74,3.88,3.88c0,2.51-2.01,6.57-6.94,6.92,1.02-.85,2.12-2.43,2.31-3.11h0Z"/>
              <g>
                <polygon class="cls-28" points="126.29 129.37 130.76 129.37 130.76 126.46 124.83 126.46 123.38 126.46 123.38 127.91 123.38 198.9 123.38 200.36 124.83 200.36 205.27 200.36 205.27 197.45 126.29 197.45 126.29 129.37"/>
                <polygon class="cls-28" points="237.14 126.46 152.61 126.46 152.61 129.37 235.68 129.37 235.68 197.45 227.12 197.45 227.12 200.36 237.14 200.36 238.59 200.36 238.59 198.9 238.59 127.91 238.59 126.46 237.14 126.46"/>
              </g>
            </g>
          </g>
        </g>
      </g>
    </g>
  </g>
</svg>