<?xml version="1.0" encoding="UTF-8"?>
<svg id="Layer_2" data-name="Layer 2" xmlns="http://www.w3.org/2000/svg" viewBox="0 0 115.21 79.8">
  <defs>
    <style>
      .cls-1 {
        fill: #231f20;
        font-family: D-DIN-Bold, D-DIN;
        font-size: 15.46px;
        font-weight: 700;
      }

      .cls-2 {
        fill-rule: evenodd;
      }

      .cls-2, .cls-3 {
        fill: #35c6f4;
      }
    </style>
  </defs>
  <g id="Layer_1-2" data-name="Layer 1">
    <g>
      <text class="cls-1" transform="translate(45.22 30.55)"><tspan x="0" y="0">I eat</tspan><tspan x="-16.56" y="18.55">mindfully</tspan></text>
      <g>
        <path class="cls-2" d="M23.57,3.11c1.79.35,3.14,1.92,3.14,3.81,0,2.15-1.74,3.88-3.88,3.88s-3.88-1.74-3.88-3.88c0-2.51,2.01-6.57,6.94-6.92-1.02.85-2.12,2.43-2.31,3.11h0ZM14.14,3.11c1.79.35,3.14,1.92,3.14,3.81,0,2.15-1.74,3.88-3.88,3.88s-3.88-1.74-3.88-3.88c0-2.51,2.01-6.57,6.94-6.92-1.02.85-2.12,2.43-2.31,3.11h0Z"/>
        <path class="cls-2" d="M87.68,76.69c-1.79-.35-3.14-1.92-3.14-3.81,0-2.15,1.74-3.88,3.88-3.88s3.88,1.74,3.88,3.88c0,2.51-2.01,6.57-6.94,6.92,1.02-.85,2.12-2.43,2.31-3.11h0ZM97.11,76.69c-1.79-.35-3.14-1.92-3.14-3.81,0-2.15,1.74-3.88,3.88-3.88s3.88,1.74,3.88,3.88c0,2.51-2.01,6.57-6.94,6.92,1.02-.85,2.12-2.43,2.31-3.11h0Z"/>
        <g>
          <polygon class="cls-3" points="2.91 6.95 7.38 6.95 7.38 4.04 1.46 4.04 0 4.04 0 5.49 0 76.48 0 77.94 1.46 77.94 81.89 77.94 81.89 75.03 2.91 75.03 2.91 6.95"/>
          <polygon class="cls-3" points="113.76 4.04 29.23 4.04 29.23 6.95 112.3 6.95 112.3 75.03 103.74 75.03 103.74 77.94 113.76 77.94 115.21 77.94 115.21 76.48 115.21 5.49 115.21 4.04 113.76 4.04"/>
        </g>
      </g>
    </g>
  </g>
</svg>