<?xml version="1.0" encoding="UTF-8"?>
<svg id="Layer_2" data-name="Layer 2" xmlns="http://www.w3.org/2000/svg" viewBox="0 0 401.07 120.88">
  <defs>
    <style>
      .cls-1 {
        fill: #fff;
      }

      .cls-2 {
        fill: #046a81;
      }

      .cls-3 {
        fill-rule: evenodd;
      }

      .cls-3, .cls-4 {
        fill: #35c6f4;
      }
    </style>
  </defs>
  <g id="Layer_1-2" data-name="Layer 1">
    <g>
      <rect class="cls-4" x="1.46" y="77.86" width="398.15" height="26.65"/>
      <g>
        <path class="cls-1" d="M11.18,97.68v-12.21h2.27v12.21h-2.27ZM13.19,94.8l-.1-2.69,6.38-6.65h2.56l-5.32,5.65-1.26,1.38-2.27,2.3ZM19.69,97.68l-4.69-5.56,1.52-1.66,5.84,7.22h-2.67Z"/>
        <path class="cls-1" d="M40.99,97.68v-12.21h1.87l7.66,9.42h-.92v-9.42h2.23v12.21h-1.87l-7.64-9.42h.92v9.42h-2.25Z"/>
        <path class="cls-1" d="M77.93,97.86c-.94,0-1.82-.16-2.62-.47-.81-.31-1.51-.76-2.1-1.33-.59-.57-1.05-1.24-1.38-2-.33-.76-.49-1.59-.49-2.49s.16-1.74.49-2.5.79-1.42,1.38-1.99c.59-.56,1.29-1,2.09-1.32s1.68-.47,2.63-.47,1.81.15,2.62.46c.8.31,1.5.74,2.08,1.31.59.56,1.04,1.23,1.37,2,.33.77.49,1.6.49,2.51s-.16,1.74-.49,2.5c-.33.76-.78,1.43-1.37,2-.59.57-1.28,1.01-2.08,1.32-.8.31-1.67.46-2.62.46ZM77.93,95.87c.62,0,1.18-.1,1.7-.31.52-.21.97-.51,1.35-.89s.68-.84.9-1.36c.22-.52.32-1.1.32-1.73s-.1-1.2-.31-1.73c-.21-.52-.51-.98-.9-1.36-.39-.38-.84-.68-1.36-.89s-1.08-.31-1.7-.31-1.19.1-1.72.31-.99.51-1.37.9-.69.84-.91,1.36c-.22.52-.33,1.09-.33,1.72s.11,1.19.33,1.71c.22.52.52.98.91,1.37s.84.69,1.37.9c.53.21,1.1.31,1.72.31Z"/>
        <path class="cls-1" d="M106.49,97.68l-4.05-12.21h2.35l3.61,11.04h-1.17l3.75-11.04h2.09l3.65,11.04h-1.13l3.7-11.04h2.16l-4.05,12.21h-2.41l-3.33-9.96h.63l-3.37,9.96h-2.44Z"/>
        <path class="cls-1" d="M165.05,97.68v-10.29h-4.05v-1.92h10.36v1.92h-4.05v10.29h-2.27Z"/>
        <path class="cls-1" d="M192.43,97.68h-2.27v-12.21h2.27v12.21ZM198.92,92.45h-6.66v-1.94h6.66v1.94ZM198.75,85.47h2.25v12.21h-2.25v-12.21Z"/>
        <path class="cls-1" d="M223.65,95.76h6.89v1.92h-9.16v-12.21h8.91v1.92h-6.65v8.37ZM223.48,90.55h6.07v1.87h-6.07v-1.87Z"/>
        <path class="cls-1" d="M272.08,97.68v-12.21h5.02c1.08,0,2.01.17,2.78.51.77.34,1.37.84,1.79,1.49.42.65.63,1.43.63,2.34s-.21,1.66-.63,2.3c-.42.64-1.01,1.13-1.79,1.48-.77.35-1.7.52-2.78.52h-3.75l.99-1.01v4.57h-2.27ZM274.34,93.36l-.99-1.1h3.65c1,0,1.75-.21,2.26-.65.51-.43.76-1.03.76-1.8s-.25-1.36-.76-1.79c-.51-.42-1.26-.64-2.26-.64h-3.65l.99-1.12v7.08ZM280.06,97.68l-3.09-4.43h2.42l3.1,4.43h-2.44Z"/>
        <path class="cls-1" d="M301.92,97.68v-12.21h2.27v12.21h-2.27Z"/>
        <path class="cls-1" d="M328.36,97.86c-.95,0-1.86-.14-2.73-.41-.87-.27-1.56-.62-2.08-1.06l.79-1.76c.49.38,1.09.7,1.81.96.72.26,1.46.38,2.21.38.64,0,1.16-.07,1.55-.21.39-.14.69-.33.87-.57.19-.24.28-.51.28-.81,0-.37-.13-.67-.4-.9-.27-.23-.61-.41-1.04-.54-.42-.13-.9-.26-1.41-.37-.52-.11-1.04-.25-1.55-.41-.52-.16-.99-.37-1.42-.62-.43-.25-.78-.58-1.04-1-.26-.42-.39-.95-.39-1.6s.18-1.27.53-1.82c.35-.55.9-.99,1.62-1.33.73-.33,1.65-.5,2.76-.5.73,0,1.46.09,2.18.28.72.19,1.35.45,1.88.8l-.72,1.76c-.55-.33-1.11-.57-1.69-.72-.58-.16-1.14-.24-1.67-.24-.62,0-1.12.08-1.52.23-.4.15-.68.35-.86.6-.18.25-.27.53-.27.83,0,.37.13.67.39.9s.6.4,1.03.53c.42.13.9.25,1.42.37s1.04.25,1.55.41c.51.16.98.36,1.41.61s.78.58,1.04.99.39.94.39,1.58-.18,1.25-.53,1.81c-.35.55-.9.99-1.63,1.33s-1.66.5-2.77.5Z"/>
        <path class="cls-1" d="M352.64,97.68v-12.21h2.27v12.21h-2.27ZM354.65,94.8l-.1-2.69,6.38-6.65h2.56l-5.32,5.65-1.26,1.38-2.27,2.3ZM361.16,97.68l-4.69-5.56,1.52-1.66,5.84,7.22h-2.67Z"/>
        <path class="cls-1" d="M385.98,97.86c-.95,0-1.86-.14-2.73-.41-.87-.27-1.56-.62-2.08-1.06l.79-1.76c.49.38,1.09.7,1.81.96.72.26,1.46.38,2.21.38.64,0,1.16-.07,1.55-.21.39-.14.69-.33.87-.57.19-.24.28-.51.28-.81,0-.37-.13-.67-.4-.9-.27-.23-.61-.41-1.04-.54-.42-.13-.9-.26-1.41-.37-.52-.11-1.04-.25-1.55-.41-.52-.16-.99-.37-1.42-.62-.43-.25-.78-.58-1.04-1-.26-.42-.39-.95-.39-1.6s.18-1.27.53-1.82c.35-.55.9-.99,1.62-1.33.73-.33,1.65-.5,2.76-.5.73,0,1.46.09,2.18.28.72.19,1.35.45,1.88.8l-.72,1.76c-.55-.33-1.11-.57-1.69-.72-.58-.16-1.14-.24-1.67-.24-.62,0-1.12.08-1.52.23-.4.15-.68.35-.86.6-.18.25-.27.53-.27.83,0,.37.13.67.39.9s.6.4,1.03.53c.42.13.9.25,1.42.37s1.04.25,1.55.41c.51.16.98.36,1.41.61s.78.58,1.04.99.39.94.39,1.58-.18,1.25-.53,1.81c-.35.55-.9.99-1.63,1.33s-1.66.5-2.77.5Z"/>
      </g>
      <g>
        <g>
          <path class="cls-2" d="M16.01,49.96h11.01v4.79h-11.01v7.44h12.9v4.79H10.5v-28.99h18.4v4.79h-12.9v7.18Z"/>
          <path class="cls-2" d="M39.78,61.35l-1.76,5.63h-5.8l10.29-28.99h4.49l10.33,28.99h-5.84l-1.76-5.63h-9.96ZM44.74,45.63l-3.49,11.13h7.02l-3.53-11.13Z"/>
          <path class="cls-2" d="M69.77,42.78v24.2h-5.54v-24.2h-7.39v-4.79h20.33v4.79h-7.39Z"/>
          <path class="cls-2" d="M87.32,37.99v28.99h-5.5v-28.99h5.5Z"/>
          <path class="cls-2" d="M115.89,66.97h-5.5l-10.67-18.1v18.1h-5.5v-28.99h5.5l10.67,18.15v-18.15h5.5v28.99Z"/>
          <path class="cls-2" d="M122.14,49.12c0-7.7,3.54-11.55,10.63-11.55,3.17,0,5.69.83,7.56,2.5s2.81,3.97,2.81,6.91v.29h-5.5v-.29c0-1.32-.43-2.41-1.28-3.28s-2.07-1.3-3.63-1.3c-1.76,0-3.05.55-3.84,1.64-.8,1.09-1.2,2.88-1.2,5.38v6.26c0,2.38.43,4.1,1.28,5.15.85,1.05,2.18,1.58,3.97,1.58,1.68,0,2.91-.43,3.68-1.3.77-.87,1.16-2.18,1.16-3.95v-1.39h-5.12v-4.54h10.5v4.96c0,7.42-3.49,11.13-10.46,11.13s-10.54-3.85-10.54-11.55v-6.64Z"/>
          <path class="cls-2" d="M180.9,66.97h-5.5v-12.27h-9.62v12.27h-5.5v-28.99h5.5v11.93h9.62v-11.93h5.5v28.99Z"/>
          <path class="cls-2" d="M192.79,61.35l-1.76,5.63h-5.8l10.29-28.99h4.49l10.33,28.99h-5.84l-1.76-5.63h-9.96ZM197.74,45.63l-3.49,11.13h7.02l-3.53-11.13Z"/>
          <path class="cls-2" d="M235.21,58.66c0,2.63-.78,4.68-2.35,6.13-1.57,1.46-3.75,2.18-6.55,2.18h-11.64v-28.99h11.17c2.83,0,5.03.7,6.62,2.1,1.58,1.4,2.37,3.39,2.37,5.96,0,1.29-.32,2.47-.97,3.55s-1.54,1.9-2.69,2.46c1.32.59,2.32,1.44,3,2.56.69,1.12,1.03,2.46,1.03,4.03ZM220.17,49.84h5.25c1.26,0,2.22-.3,2.88-.9.66-.6.99-1.45.99-2.54,0-1.18-.33-2.07-.99-2.69-.66-.62-1.62-.92-2.88-.92h-5.25v7.06ZM229.71,58.28c0-1.15-.33-2.04-.99-2.69-.66-.64-1.65-.97-2.96-.97h-5.59v7.56h5.59c1.32,0,2.3-.34,2.96-1.03.66-.69.99-1.65.99-2.88Z"/>
          <path class="cls-2" d="M246.8,37.99v28.99h-5.5v-28.99h5.5Z"/>
          <path class="cls-2" d="M264.4,42.78v24.2h-5.54v-24.2h-7.39v-4.79h20.33v4.79h-7.39Z"/>
          <path class="cls-2" d="M286.07,58.15h5.21c.2,1.6.71,2.72,1.53,3.38s2.05.99,3.68.99c3.11,0,4.66-1.27,4.66-3.82,0-1.15-.31-2.02-.92-2.63s-1.6-1.02-2.94-1.24l-2.73-.46c-5.24-.87-7.86-3.56-7.86-8.07,0-2.69.89-4.82,2.67-6.39s4.14-2.35,7.08-2.35,5.12.76,6.78,2.27c1.67,1.51,2.61,3.64,2.84,6.39h-5.29c-.08-1.4-.49-2.42-1.22-3.07-.73-.64-1.79-.97-3.19-.97s-2.51.33-3.23.99-1.09,1.56-1.09,2.71c0,1.01.32,1.81.97,2.39.64.59,1.65,1.01,3.02,1.26l3.07.55c4.99.9,7.48,3.61,7.48,8.15,0,2.91-.93,5.14-2.79,6.68-1.86,1.54-4.38,2.31-7.54,2.31s-5.53-.78-7.27-2.33c-1.74-1.55-2.7-3.8-2.9-6.74Z"/>
          <path class="cls-2" d="M317.44,61.35l-1.76,5.63h-5.8l10.29-28.99h4.5l10.33,28.99h-5.84l-1.76-5.63h-9.96ZM322.4,45.63l-3.49,11.13h7.02l-3.53-11.13Z"/>
          <path class="cls-2" d="M347.6,66.97h-5.5v-11.89l-8.44-17.1h6.01l5.17,11.76,5.17-11.76h6.05l-8.44,17.06v11.93Z"/>
          <path class="cls-2" d="M358.94,58.15h5.21c.2,1.6.71,2.72,1.53,3.38s2.05.99,3.68.99c3.11,0,4.66-1.27,4.66-3.82,0-1.15-.31-2.02-.92-2.63s-1.6-1.02-2.94-1.24l-2.73-.46c-5.24-.87-7.86-3.56-7.86-8.07,0-2.69.89-4.82,2.67-6.39s4.14-2.35,7.08-2.35,5.12.76,6.78,2.27c1.67,1.51,2.61,3.64,2.84,6.39h-5.29c-.08-1.4-.49-2.42-1.22-3.07-.73-.64-1.79-.97-3.19-.97s-2.51.33-3.23.99-1.09,1.56-1.09,2.71c0,1.01.32,1.81.97,2.39.64.59,1.65,1.01,3.02,1.26l3.07.55c4.99.9,7.48,3.61,7.48,8.15,0,2.91-.93,5.14-2.79,6.68-1.86,1.54-4.38,2.31-7.54,2.31s-5.53-.78-7.27-2.33c-1.74-1.55-2.7-3.8-2.9-6.74Z"/>
          <path class="cls-2" d="M390.77,37.99l-1.01,19.32h-3.91l-1.01-19.32h5.92ZM390.56,61.51v5.46h-5.5v-5.46h5.5Z"/>
        </g>
        <g>
          <path class="cls-2" d="M106.81.55c.51,0,.93.1,1.28.3.34.2.62.43.83.67.21.25.35.45.43.61-.38,1.15-.82,3.23-1.32,6.25-.5,3.02-.95,6.13-1.34,9.32-.39,3.19-.59,5.44-.59,6.76,0,.21.03.41.09.61s.19.29.4.29c.39,0,.8-.43,1.23-1.29s.86-1.97,1.3-3.34c.44-1.37.86-2.85,1.27-4.45s.8-3.17,1.18-4.71c.66-2.85,1.22-4.93,1.66-6.23.6-1.55,1.39-2.32,2.36-2.32h.1s.03,0,.04-.02c.06-.01.13-.02.2-.02.3,0,.61.07.92.21.39.16.81.62,1.25,1.39-.18.52-.38,1.33-.61,2.44-.59,2.89-1.07,6.11-1.46,9.66-.38,3.55-.58,6.14-.58,7.78,0,.21.03.41.09.61s.19.29.4.29c.6,0,1.54-1.23,2.82-3.69,1.28-2.46,2.41-5.27,3.39-8.42-.91-.49-1.57-1.2-1.97-2.12-.4-.92-.61-1.92-.61-3,0-1.28.21-2.54.62-3.78.42-1.24.94-2.28,1.56-3.11.62-.83,1.26-1.24,1.91-1.24.77,0,1.35.23,1.76.68.4.46.68,1.04.84,1.76.14.65.21,1.35.21,2.09v.18c-.05,2.17-.65,5.01-1.8,8.52.48.07.98.1,1.5.1,1.21-.01,2.5-.19,3.87-.53-1.2.77-2.66,1.15-4.38,1.15-.39,0-.8-.02-1.23-.06-.6,1.78-1.3,3.53-2.11,5.23-.82,1.76-1.71,3.36-2.66,4.79-.95,1.44-1.94,2.6-2.97,3.48-1.03.88-2.05,1.32-3.07,1.32-.69,0-1.24-.19-1.64-.58-.4-.38-.7-.89-.89-1.5-.19-.62-.3-1.29-.32-2.02-.01-.31-.02-.62-.02-.92,0-.4.01-.8.04-1.19.06-.69.13-1.3.2-1.84-.3.99-.64,1.96-1.03,2.9-.38.94-.83,1.8-1.35,2.58-.51.77-1.13,1.4-1.84,1.87-.71.47-1.55.7-2.51.7-.81,0-1.43-.19-1.86-.57s-.73-.84-.89-1.38c-.16-.54-.24-1.04-.24-1.49,0-1.43.15-3.66.45-6.69.3-3.03.67-6.04,1.12-9.02s.92-5.28,1.42-6.88c-1.24,0-2.44.5-3.59,1.49-1.16,1-2.11,2.23-2.85,3.7-.74,1.47-1.11,2.92-1.11,4.34,0,.86.16,1.66.48,2.41.32.75.85,1.37,1.59,1.87-.04.01-.07.03-.1.04-.29.14-.56.26-.83.35-.27.09-.63.14-1.08.14-.73,0-1.32-.18-1.78-.55-.46-.36-.79-.82-1.02-1.36-.22-.54-.33-1.06-.33-1.57,0-1.59.4-3.15,1.21-4.7s1.86-2.94,3.16-4.18c1.3-1.24,2.72-2.24,4.26-2.99,1.54-.75,3.03-1.12,4.49-1.12ZM122.42,12.36c.73-2.46,1.09-4.64,1.09-6.54,0-.52-.04-.98-.12-1.37s-.26-.59-.55-.59c-.46,0-.93.5-1.42,1.48-.49.99-.73,2.08-.73,3.26,0,.72.13,1.41.39,2.07.26.66.7,1.22,1.33,1.68Z"/>
          <path class="cls-2" d="M137.03,15.7c-.53.4-1.11,1.18-1.72,2.32-.64,1.2-1.26,2.56-1.88,4.08-.92,2.36-1.6,4.36-2.03,6.02-.42.22-.84.37-1.28.46-.44.08-.81.13-1.12.13-.57,0-1.04-.09-1.42-.27s-.67-.42-.89-.72c-.27-.36-.46-.77-.55-1.21-.09-.44-.14-.85-.14-1.23,0-1.2.14-2.66.43-4.39.51-3.11,1.22-6.41,2.15-9.9.48-1.84.96-3.55,1.45-5.16.43-1.41.82-2.64,1.17-3.71,1-.42,1.98-.62,2.93-.62.43,0,.82.05,1.16.16.34.1.6.27.77.49-.56,1.58-1.09,3.16-1.6,4.75-.6,1.86-1.16,3.73-1.68,5.61-.39,1.42-.76,2.85-1.09,4.3-.22.94-.42,1.83-.59,2.68-.47,2.23-.7,3.83-.7,4.82,0,.23.04.47.12.71.08.24.16.36.23.36.4-1.42.87-2.79,1.39-4.1.52-1.35,1.09-2.62,1.72-3.81.6-1.12,1.22-2.12,1.88-3.01.61-.87,1.31-1.58,2.11-2.13.57-.39,1.22-.59,1.93-.59.53,0,1.02.15,1.46.45.21.16.37.37.5.63.12.27.19.59.19.97s-.2,1.2-.61,2.48c-.05.14-.1.29-.14.43-.44,1.42-.84,2.98-1.19,4.67-.22,1.11-.33,2.14-.33,3.11,0,.21.03.41.08.61.05.2.18.29.39.29.35,0,.78-.29,1.28-.87.5-.58,1.01-1.31,1.53-2.2.99-1.68,1.71-3.32,2.17-4.92,0,.47-.23,1.42-.68,2.84-.46,1.43-1.08,2.88-1.88,4.37-.42.76-.87,1.45-1.37,2.07-.5.62-1.02,1.13-1.58,1.5-.56.38-1.15.57-1.76.57-.48,0-.89-.08-1.23-.22-.34-.15-.62-.34-.86-.58-.34-.38-.57-.81-.69-1.29-.12-.48-.19-.93-.19-1.35,0-1.26.16-2.62.47-4.08.43-1.98.99-3.81,1.68-5.49Z"/>
          <path class="cls-2" d="M155.68,24.45c0,.21.03.41.08.61.05.2.18.29.39.29.23,0,.52-.18.85-.55.33-.36.69-.83,1.06-1.41.65-1.04,1.26-2.15,1.84-3.33.57-1.18.98-2.08,1.23-2.71,0,.33-.23,1.14-.68,2.45-.46,1.31-1.07,2.7-1.84,4.17-.44.85-.92,1.62-1.44,2.33-.51.71-1.05,1.29-1.61,1.73-.56.44-1.13.66-1.7.66-.81,0-1.43-.19-1.86-.58s-.72-.84-.88-1.38c-.16-.53-.23-1.03-.23-1.48,0-.82.09-1.78.27-2.87-.34.91-.74,1.8-1.21,2.66-.59,1.11-1.25,2.01-1.99,2.71-.64.62-1.31.94-2.01.94-.51,0-.94-.08-1.29-.25s-.64-.38-.86-.64c-.33-.4-.55-.84-.66-1.32-.12-.48-.18-.88-.18-1.22,0-.47.06-1.15.17-2.05.11-.9.28-1.89.52-2.99.3-1.42.7-2.8,1.21-4.14.44-1.16.98-2.13,1.6-2.91.34-.43.71-.77,1.1-1.02.4-.25.82-.37,1.28-.37.85,0,1.65.21,2.42.62.77.41,1.44.94,2.01,1.59.01-.05.04-.14.08-.26.04-.12.08-.26.14-.4.21-.59.61-.99,1.21-1.21.6-.22,1.27-.33,2.01-.33.43,0,.81.05,1.15.16.34.1.6.26.78.47-.22.61-.47,1.35-.74,2.21-.35,1.08-.7,2.24-1.05,3.48-.36,1.29-.66,2.53-.88,3.71-.2,1.03-.29,1.91-.29,2.64ZM152.93,15.14c-.61-.89-1.19-1.33-1.72-1.33-.44,0-.85.38-1.23,1.15-.47.92-.87,2.08-1.19,3.46-.25.95-.45,1.88-.61,2.77-.27,1.69-.41,2.75-.41,3.16,0,.23.03.46.08.67.05.21.18.32.37.32.25,0,.54-.26.88-.77.34-.51.69-1.17,1.05-1.98.52-1.17,1.02-2.4,1.48-3.67.64-1.78,1.07-3.05,1.29-3.79Z"/>
          <path class="cls-2" d="M162.46,9.53l.23-.78c.89-3.15,1.54-5.36,1.97-6.64.99-.42,1.97-.62,2.93-.62.43,0,.81.05,1.15.16.34.1.6.27.78.49-.59,1.67-1.33,4.04-2.23,7.13l-.14.47c1.08-.05,2.11-.18,3.09-.37-.17.56-.72,1-1.64,1.31-.57.21-1.19.38-1.86.51-.69,2.44-1.32,4.83-1.89,7.19-.73,3-1.09,5.03-1.09,6.09,0,.21.03.41.08.61.05.2.18.29.39.29.44,0,.94-.33,1.49-.98.55-.65,1.1-1.43,1.65-2.34.55-.91,1.03-1.8,1.45-2.66.42-.86.72-1.53.9-2.01,0,.29-.14.86-.41,1.72s-.65,1.83-1.14,2.9-1.06,2.12-1.71,3.14c-.65,1.02-1.36,1.88-2.13,2.56-.77.68-1.56,1.03-2.36,1.03s-1.45-.19-1.88-.58-.72-.84-.88-1.38c-.16-.53-.23-1.03-.23-1.48,0-1.29.4-3.58,1.19-6.88.53-2.24,1.09-4.45,1.68-6.62-.3.04-.55.07-.76.08-.38-.22-.59-.61-.64-1.17-.01-.16-.02-.31-.02-.45,0-.36.06-.69.18-.98.64.1,1.26.2,1.86.27Z"/>
          <path class="cls-2" d="M198.79,2.11c.99-.42,1.97-.62,2.93-.62.42,0,.8.05,1.14.16.34.1.61.27.79.49-1.38,3.92-2.49,7.6-3.34,11.04-.85,3.44-1.68,7.13-2.5,11.06,1.11-.48,2.88-1.26,5.33-2.34-.39.6-2.24,1.73-5.55,3.4-.39,1.78-.84,3.52-1.35,5.21-.34,1.13-.74,2.27-1.2,3.4-.46,1.13-1.03,2.18-1.69,3.14-.73,1.08-1.62,1.95-2.68,2.62s-2.34,1-3.85,1c-1.07,0-1.95-.37-2.65-1.11-.7-.74-1.04-1.73-1.04-2.97,0-1.77.8-3.51,2.4-5.22,1.6-1.71,4.02-3.36,7.25-4.93.51-2.34.96-4.48,1.35-6.41.39-1.88.77-3.67,1.15-5.37-.55,1.38-1.15,2.72-1.82,4.03s-1.37,2.49-2.13,3.54c-.76,1.05-1.55,1.89-2.37,2.52-.83.62-1.67.94-2.53.94s-1.45-.19-1.88-.57c-.43-.38-.72-.84-.88-1.38-.16-.54-.23-1.04-.23-1.49,0-1.43.3-3.41.9-5.93.6-2.52,1.27-5.03,2.01-7.54.74-2.51,1.37-4.54,1.89-6.1-1.24,0-2.44.5-3.59,1.49-1.16,1-2.11,2.23-2.85,3.7-.74,1.47-1.11,2.92-1.11,4.34,0,.86.16,1.66.49,2.41.33.75.85,1.37,1.58,1.87-.04.01-.07.03-.1.04-.29.14-.56.26-.83.35-.27.09-.63.14-1.08.14-.73,0-1.32-.18-1.78-.55-.46-.36-.79-.82-1.02-1.36-.22-.54-.33-1.06-.33-1.57,0-1.59.4-3.15,1.21-4.7s1.86-2.94,3.16-4.18c1.3-1.24,2.72-2.24,4.26-2.99,1.54-.75,3.03-1.12,4.49-1.12.51,0,.93.1,1.28.3.34.2.62.43.83.67.21.25.35.45.43.61-.39,1.12-.98,2.94-1.78,5.47-.79,2.53-1.54,5.13-2.24,7.82-.7,2.69-1.04,4.69-1.04,6.01,0,.21.03.41.08.61.05.2.18.29.39.29.49,0,1.12-.59,1.88-1.76s1.57-2.64,2.41-4.41c.85-1.77,1.67-3.61,2.46-5.51.79-1.9,1.49-3.62,2.08-5.17.59-1.54,1.01-2.67,1.24-3.37ZM192.07,29.51c.14-.59.28-1.18.41-1.78-.85.46-1.69.98-2.54,1.58-.85.6-1.62,1.27-2.33,2-.71.74-1.28,1.54-1.72,2.41-.44.87-.65,1.8-.65,2.79,0,.55.11.99.32,1.33.21.34.57.51,1.06.51.73,0,1.39-.34,1.99-1.02.6-.68,1.13-1.5,1.58-2.48.47-1,.86-1.99,1.17-2.97s.55-1.77.7-2.38Z"/>
          <path class="cls-2" d="M206.23,28.71c-1.09,0-1.99-.27-2.68-.81-.69-.54-1.2-1.23-1.52-2.06-.33-.83-.49-1.68-.49-2.54,0-1.2.17-2.42.5-3.66.33-1.24.73-2.43,1.2-3.56.33-.49.89-.83,1.7-1.02.27-1.21.8-2.12,1.59-2.71.79-.6,1.75-.9,2.9-.9,1.3,0,2.3.53,3.01,1.59.7,1.06,1.05,2.58,1.05,4.56,0,.77-.06,1.56-.18,2.38.77-.13,1.44-.41,2-.84s1-1.02,1.3-1.78c0,.89-.31,1.59-.94,2.11-.62.52-1.44.88-2.44,1.07-.25,1.38-.68,2.68-1.31,3.91-.62,1.25-1.42,2.27-2.38,3.07-.96.79-2.07,1.19-3.32,1.19ZM206.76,19.14c-.29,1.13-.43,2.24-.43,3.32,0,.31.03.73.09,1.24.06.51.2.98.41,1.39s.55.62,1.01.62c.48,0,.92-.25,1.33-.74.4-.49.75-1.13,1.05-1.91.29-.77.51-1.59.66-2.46-1.58-.18-2.95-.66-4.12-1.45ZM206.99,14.94c.53.08.97.25,1.31.51-.46.72-.83,1.48-1.13,2.3.81,1.21,2.07,1.95,3.79,2.21.12-.9.18-1.74.18-2.52,0-.92-.16-1.76-.49-2.5-.33-.74-.9-1.11-1.72-1.11-.38,0-.72.08-1.03.22-.31.15-.61.45-.91.89Z"/>
          <path class="cls-2" d="M227.26,24.45c0,.21.03.41.09.61s.19.29.4.29c.33,0,.73-.33,1.22-.98.49-.65.99-1.43,1.49-2.34.51-.91.96-1.8,1.37-2.66.4-.86.7-1.53.88-2.01,0,.25-.13.79-.4,1.64-.27.85-.63,1.81-1.1,2.9-.47,1.09-1.01,2.15-1.62,3.17-.61,1.03-1.27,1.89-1.97,2.59s-1.42,1.04-2.15,1.04c-.81,0-1.43-.19-1.86-.58s-.73-.84-.89-1.38c-.16-.53-.24-1.03-.24-1.48,0-.78.09-1.69.27-2.71-.48,1.04-1.01,2.03-1.58,2.96-.57.93-1.18,1.7-1.81,2.29-.63.6-1.27.9-1.92.9-.9,0-1.62-.29-2.16-.87s-.81-1.44-.81-2.57c0-.95.17-2.3.5-4.04.33-1.74.71-3.45,1.14-5.11s.82-2.91,1.17-3.76c.39-.56,1.07-.84,2.05-.84h.2c1.08.03,1.98.27,2.7.74-.18.61-.38,1.27-.59,1.97-.44,1.41-.88,2.92-1.32,4.55-.44,1.63-.77,3.29-1.01,5v.51c.01.7.15,1.05.41,1.05.25,0,.66-.51,1.23-1.52.55-.98,1.06-2.05,1.54-3.22.52-1.26,1.02-2.58,1.48-3.95.44-1.31.81-2.42,1.09-3.3l.31-.94c.99-.42,1.97-.62,2.93-.62.42,0,.8.05,1.14.16.34.1.61.26.79.47-.35.98-.76,2.21-1.22,3.69-.46,1.48-.87,2.99-1.23,4.52-.36,1.53-.54,2.8-.54,3.82Z"/>
          <path class="cls-2" d="M235.96,28.12c-.87.39-1.65.59-2.34.59h-.06c-.91,0-1.64-.29-2.18-.87s-.81-1.44-.81-2.57c0-1.28.24-3.1.72-5.48.48-2.38,1.16-4.65,2.03-6.81.43-.64,1.2-1.02,2.32-1.15.23-.03.46-.04.68-.04.81,0,1.49.19,2.05.57-.36.59-.8,1.69-1.3,3.3-.5,1.61-.95,3.3-1.36,5.06-.4,1.76-.61,3.05-.61,3.89v.12c0,.42.06.62.2.62.13-.47.28-1.04.45-1.72.21-.87.46-1.84.75-2.89s.63-2.11,1.02-3.16c.38-1.05.84-2.06,1.37-3.01.53-.95,1.12-1.7,1.77-2.24.65-.54,1.39-.81,2.21-.81.57,0,1.08.16,1.51.48.44.32.65.86.65,1.63,0,.34-.08.78-.23,1.32-.16.54-.33,1.08-.51,1.61-.2.55-.36,1.08-.51,1.59-.14.51-.21.97-.21,1.36.01.56.12.84.33.84.25,0,.56-.21.93-.62s.71-.85,1.03-1.32.51-.82.61-1.05c0,.43-.17.99-.51,1.68-.34.69-.8,1.31-1.38,1.85-.58.54-1.25.83-2.02.87h-.08c-.69,0-1.28-.18-1.78-.53-.51-.35-.76-.92-.76-1.7,0-.52.13-1.31.4-2.36.27-1.05.75-2.16,1.44-3.32-.48,0-.96.36-1.44,1.07-.48.72-.92,1.59-1.33,2.62-.41,1.03-.79,2.13-1.15,3.3-.36,1.17-.67,2.3-.95,3.39-.27,1.09-.5,2.02-.68,2.78-.12.48-.21.85-.27,1.11Z"/>
        </g>
        <g>
          <path class="cls-3" d="M351.12,117.97c-1.67-.33-2.93-1.8-2.93-3.56,0-2,1.62-3.63,3.63-3.63s3.63,1.62,3.63,3.63c0,2.35-1.88,6.14-6.48,6.46.96-.8,1.98-2.27,2.15-2.9h0ZM359.92,117.97c-1.67-.33-2.93-1.8-2.93-3.56,0-2,1.62-3.63,3.63-3.63s3.63,1.62,3.63,3.63c0,2.35-1.88,6.14-6.48,6.46.96-.8,1.98-2.27,2.15-2.9h0Z"/>
          <g>
            <polygon class="cls-4" points="2.72 26.75 96.01 26.75 96.01 24.03 1.36 24.03 0 24.03 0 25.39 0 114.3 0 115.66 1.36 115.66 345.88 115.66 345.88 112.94 2.72 112.94 2.72 26.75"/>
            <polygon class="cls-4" points="399.7 24.03 249.19 24.03 249.19 26.75 398.34 26.75 398.34 112.94 366.29 112.94 366.29 115.66 399.7 115.66 401.07 115.66 401.07 114.3 401.07 25.39 401.07 24.03 399.7 24.03"/>
          </g>
        </g>
      </g>
    </g>
  </g>
</svg>